<?xml version="1.0" encoding="UTF-8"?>
<svg width="21px" height="21px" viewBox="0 0 21 21" version="1.1" xmlns="http://www.w3.org/2000/svg" xmlns:xlink="http://www.w3.org/1999/xlink">
    <!-- Generator: Sketch 48.2 (47327) - http://www.bohemiancoding.com/sketch -->
    <title>icon/add_white</title>
    <desc>Created with Sketch.</desc>
    <defs></defs>
    <g id="4--02-menu-edit-mode" stroke="none" stroke-width="1" fill="none" fill-rule="evenodd" transform="translate(-30.000000, -319.000000)">
        <g id="меню-на-день" transform="translate(0.000000, 161.000000)" fill="#FFFFFF" fill-rule="nonzero">
            <g id="добавить" transform="translate(0.000000, 137.000000)">
                <g id="icon/add_white" transform="translate(30.000000, 21.000000)">
                    <path d="M0.082,10.082 C0.082,7.52445069 1.06378904,4.95465684 3.01534521,3.00310067 C4.96690138,1.0515445 7.52445069,0.082 10.082,0.082 C12.6395493,0.082 15.1970986,1.05176713 17.1486548,3.0033233 C19.100211,4.95487947 20.082,7.52445069 20.082,10.082 C20.082,12.6395493 19.100211,15.1970986 17.1486548,17.1486548 C15.1970986,19.100211 12.6395493,20.082 10.082,20.082 C7.52445069,20.082 4.96690138,19.100211 3.01534521,17.1486548 C1.06378904,15.1970986 0.082,12.6395493 0.082,10.082 Z M15.8638692,4.28810891 C14.2638425,2.68808219 12.1789322,1.90020206 10.082,1.90020206 C7.98506781,1.90020206 5.90015753,2.68808219 4.30013082,4.28810891 C2.7001041,5.88813562 1.90020206,7.98506781 1.90020206,10.082 C1.90020206,12.1789322 2.7001041,14.2638425 4.30013082,15.8638692 C5.90015753,17.4638959 7.98506781,18.2637979 10.082,18.2637979 C12.1789322,18.2637979 14.2638425,17.4638959 15.8638692,15.8638692 C17.4638959,14.2638425 18.2637979,12.1789322 18.2637979,10.082 C18.2637979,7.98506781 17.4638959,5.88813562 15.8638692,4.28810891 Z M10.9909897,10.9909897 L10.9909897,14.1910431 C10.9909897,14.6879486 10.5789055,15.1000329 10.082,15.1000329 C9.58509453,15.1000329 9.17301029,14.6879486 9.17301029,14.1910431 L9.17301029,10.9909897 L5.97295685,10.9909897 C5.46380685,10.9909897 5.06396714,10.5789055 5.06396714,10.082 C5.06396714,9.57284999 5.46402948,9.17301029 5.97295685,9.17301029 L9.17301029,9.17301029 L9.17301029,5.96071232 C9.17301029,5.46380685 9.58509453,5.05172261 10.082,5.05172261 C10.5789055,5.05172261 10.9909897,5.46380685 10.9909897,5.96071232 L10.9909897,9.17278766 L14.1910431,9.17278766 C14.7001932,9.17278766 15.1000329,9.57284999 15.1000329,10.0817774 C15.1000329,10.5786828 14.6999705,10.9907671 14.1910431,10.9907671 L10.9909897,10.9907671 L10.9909897,10.9909897 Z"></path>
                </g>
            </g>
        </g>
    </g>
</svg>