<?xml version="1.0" encoding="UTF-8"?>
<svg width="18px" height="18px" viewBox="0 0 18 18" version="1.1" xmlns="http://www.w3.org/2000/svg" xmlns:xlink="http://www.w3.org/1999/xlink">
    <!-- Generator: Sketch 48.2 (47327) - http://www.bohemiancoding.com/sketch -->
    <title>beans</title>
    <desc>Created with Sketch.</desc>
    <defs>
        <path d="M14.93052,12.2286523 C14.6507272,12.0779985 14.3519914,11.9533033 14.0630057,11.8325656 C13.41837,11.563343 12.80952,11.3091902 12.5657272,10.8351384 C11.9337557,9.60716928 11.3135914,8.9123911 9.67726287,8.52240845 C8.31256287,8.19708752 7.61926287,7.54353902 6.6394843,6.50597767 C5.66851287,5.47753873 4.24949144,5.67317846 3.78305573,5.73846624 C3.74382001,5.74394415 3.71212716,5.7487513 3.68887716,5.75114369 C3.66472716,5.7482594 3.64072716,5.75076359 3.61687716,5.75378203 C3.61340573,5.75427393 3.60980573,5.7535808 3.60637716,5.75418449 C3.51290573,5.76934377 3.4263343,5.82727549 3.3762343,5.9201317 C3.2890843,6.08127176 3.34370573,6.28587739 3.49835573,6.37692253 C3.50564144,6.38121542 3.51271287,6.38257931 3.5199343,6.38620144 C3.52289144,6.38781128 3.52482001,6.39067321 3.52786287,6.39221596 C3.54564859,6.40093591 3.96050573,6.61906862 3.7024843,7.53897782 C3.62902716,7.80077732 3.53926287,8.06322523 3.45252001,8.31695319 C3.1227343,9.28182599 2.78161287,10.2796781 3.38857716,11.2109232 C4.00572001,12.1579089 4.46911287,12.9308536 4.35830573,13.5422333 C4.18944859,14.474574 4.76784859,15.5562717 5.98711287,16.5875278 C6.29870573,16.8510713 6.32497716,17.0707244 6.36451287,17.4032673 C6.41902716,17.8605053 6.4869343,18.4299399 7.29939859,19.0871776 C7.76345573,19.4625152 8.40211287,19.6393735 9.01977001,19.8103515 C9.56176287,19.9603568 10.12227,20.1155942 10.3079914,20.3682042 C10.3892075,20.4789014 10.5276063,20.5255977 10.6555629,20.4854762 C10.7835314,20.4452925 10.8743685,20.3267501 10.8837772,20.1876567 C10.8887057,20.1136489 10.9977129,18.356357 10.3286057,16.9172311 C10.0619914,16.3442862 9.75772716,15.8519225 9.46340573,15.3757018 C9.16162716,14.8874745 8.87270573,14.4191241 8.67245573,13.92761 C8.95364144,14.1779618 9.22745573,14.3543506 9.4873843,14.4865807 C9.49837716,14.49264 9.50885573,14.4994594 9.52072716,14.5042665 C9.52119859,14.5044678 9.52167001,14.5045348 9.52214144,14.5047137 C9.81526287,14.6502697 10.0899772,14.7419409 10.3356129,14.8235059 C10.7294486,14.954305 11.0406129,15.0575581 11.2713343,15.3171888 C11.90142,16.0259412 12.9509914,16.4340121 13.9519843,16.4340121 C14.37387,16.4340121 14.7870557,16.3615472 15.1566129,16.2087023 C15.78222,15.9499436 16.78647,15.8671935 16.7966057,15.8665451 C16.8889573,15.859068 16.9737501,15.8104563 17.02932,15.73313 C17.0847979,15.6558194 17.1056906,15.5573294 17.0866629,15.4628118 C16.9470772,14.7726172 15.9622843,12.7847833 14.93052,12.2286523 Z M9.7501843,17.2102659 C10.1154557,17.9956644 10.2179057,18.9194864 10.2424843,19.5168919 C9.93549859,19.3699273 9.56604859,19.2675239 9.18455573,19.1620573 C8.62895573,19.0081391 8.05432716,18.8491679 7.6932343,18.5570274 C7.09192716,18.0705441 7.0504843,17.7229314 7.00246287,17.3205173 C6.95662716,16.9360125 6.90474859,16.5001719 6.39204859,16.0665448 C5.37982716,15.2104254 4.86882001,14.3357033 4.9900843,13.6666825 C5.14651287,12.8031176 4.6219843,11.9107321 3.92011287,10.833618 C3.49677001,10.1840494 3.74444144,9.4595563 4.05802716,8.54228544 C4.14789859,8.27961395 4.24070573,8.00797657 4.31939144,7.72719442 C4.4230843,7.35796076 4.4469343,7.05401487 4.42319144,6.80511641 C5.04397716,7.2894086 5.34897001,8.08681379 5.64676287,8.86499039 C5.83529144,9.35780128 6.0133843,9.82333441 6.26690573,10.1962573 C7.10384144,11.4281839 7.60002001,12.4688308 7.87572001,13.5704054 C8.07504859,14.3671399 8.48697001,15.0335447 8.92319144,15.7392563 C9.20716287,16.1986408 9.50064859,16.6735646 9.7501843,17.2102435 L9.7501843,17.2102659 Z M7.1485843,10.3572855 C7.03595573,10.1775206 6.9183343,9.99540794 6.79130573,9.80848815 C6.58205573,9.50060711 6.4177843,9.07111641 6.2437843,8.61631552 C6.23787001,8.60084321 6.23167716,8.58485665 6.22572001,8.56931726 C6.47474144,8.54874714 6.76677001,8.63236916 7.03865573,8.8110609 C7.2985843,8.98203884 7.49266287,9.2191542 7.58525573,9.47898612 C7.66655573,9.70673313 7.6569343,9.92245109 7.55795573,10.0862295 C7.45559144,10.2557094 7.29016287,10.3273024 7.1485843,10.3572632 L7.1485843,10.3572855 Z M14.9196343,15.5850922 C13.9154914,16.0008322 12.4608772,15.6689378 11.7425914,14.8608228 C11.6437629,14.7496994 11.5382486,14.6605324 11.4283629,14.5841099 C11.5091914,14.5091184 11.5524557,14.3941046 11.53197,14.2747755 C11.5006843,14.0926853 11.3343129,13.9715004 11.15907,14.0038089 C11.1517843,14.0053293 10.40997,14.1378725 9.76726287,13.8840327 C9.22717716,13.6106513 8.64954859,13.1323737 8.04837001,12.0596419 C7.89466287,11.6949694 7.71076287,11.3264289 7.49844859,10.9481399 C7.75242001,10.8476146 7.96220573,10.6750715 8.1018343,10.4438813 C8.3100343,10.0993318 8.34059144,9.67332904 8.18772001,9.24493393 C8.04627001,8.84817655 7.75989859,8.49271593 7.38142716,8.24379511 C6.91814144,7.93897723 6.40959859,7.83263865 5.9715343,7.93470669 C5.7286843,7.37005689 5.41852716,6.80247807 4.93775573,6.3762294 C5.3605843,6.43210411 5.81769859,6.59125424 6.18162001,6.97672041 C6.67456287,7.49873193 7.11307716,7.94009517 7.60340573,8.29944623 C7.60872001,8.30364969 7.61311287,8.30865806 7.61874859,8.31257086 C8.21264144,8.72395091 8.29246287,9.08663343 8.29717716,9.11019964 C8.31757716,9.2785616 8.45517001,9.40323442 8.61556287,9.40323442 C8.6259343,9.40323442 8.6362843,9.40278724 8.64674144,9.40169166 C8.82346287,9.38402819 8.95289144,9.22002619 8.93594144,9.03574475 C8.93461314,9.02349845 8.93291228,9.01129929 8.93084144,8.99916571 C9.12897799,9.06862301 9.33032284,9.12768697 9.53412001,9.17613582 C10.9554557,9.51502855 11.4249343,10.0362128 11.9992629,11.1524325 C12.3536486,11.8413079 13.1012272,12.1535266 13.8242486,12.4552813 C14.0990057,12.5701386 14.3831914,12.6887075 14.6355343,12.8247386 C15.31032,13.1882931 16.0548772,14.4900687 16.3451272,15.2427339 C15.9589414,15.2949194 15.3703843,15.3986196 14.9196343,15.5850922 Z M6.8328343,14.8874745 C6.48202716,14.7990453 5.86835573,14.4040543 6.05701287,13.5420097 C6.09657001,13.3614398 5.98827001,13.1815184 5.81521287,13.1404676 C5.64245573,13.0983212 5.46980573,13.2120829 5.43027001,13.3926751 C5.18092716,14.5322151 5.8711843,15.3350758 6.68197716,15.5394579 C6.70730573,15.5457854 6.73272001,15.5488486 6.75762001,15.5488486 C6.90275573,15.5488486 7.03426287,15.4457744 7.0698343,15.292281 C7.11149144,15.1121583 7.00539859,14.9309177 6.8328343,14.8874745 Z M5.20625573,10.9257587 C5.01404144,10.8152838 4.77819859,10.58188 4.6929343,10.2580571 C4.62157716,9.9870681 4.66771287,9.70344638 4.83009859,9.41501752 C4.91997001,9.25519663 4.86871287,9.04971901 4.71562716,8.9558343 C4.56286287,8.86259799 4.36574144,8.91587908 4.27576287,9.07527515 C4.02569144,9.51961211 3.95557716,9.99015362 4.07309144,10.4358097 C4.1905843,10.8818683 4.49832001,11.2847297 4.89612001,11.5131251 C4.94529859,11.5415208 4.99844144,11.5548243 5.05087716,11.5548243 C5.16429859,11.5548243 5.27416287,11.4921525 5.33274859,11.3812304 C5.4183343,11.2190171 5.36174144,11.0150599 5.20625573,10.9257811 L5.20625573,10.9257587 Z M7.35402001,16.9720326 C7.4037343,18.0792864 8.20730573,18.640873 8.99926287,18.640873 C9.02279144,18.640873 9.04655573,18.6402023 9.0700843,18.6393526 C9.24744859,18.6317059 9.38534144,18.4755742 9.37812001,18.2906444 C9.37100573,18.1054909 9.22619144,17.959622 9.04392001,17.9690127 C8.69977716,17.9875705 8.03422716,17.7877944 7.99625573,16.9405961 C7.98809144,16.7556662 7.8412843,16.6141572 7.66006287,16.6213791 C7.48282716,16.6298755 7.34574859,16.7868791 7.35402001,16.9720326 Z M13.8849343,12.6594398 C12.9915772,12.2196864 12.06192,12.4524641 11.7224914,13.2018202 C11.5474629,13.5887397 11.5652486,14.0219419 11.7725057,14.4219413 C11.95782,14.7793919 12.2853129,15.0872506 12.6946414,15.2890166 C12.9831986,15.4311517 13.2833914,15.4986306 13.5676843,15.4986306 C14.1348986,15.4986306 14.63847,15.229408 14.8570414,14.7466362 C15.1851772,14.0219419 14.7491914,13.0856661 13.8849343,12.6594398 Z M14.2757272,14.4601749 C14.1020272,14.8440089 13.5037414,14.9455627 12.9691843,14.6824217 C12.6828129,14.5413822 12.4585843,14.3354798 12.3380486,14.102948 C12.26187,13.956207 12.1942843,13.7304499 12.3038272,13.4883038 C12.5141486,13.0232179 13.12017,13.0243135 13.61037,13.2660124 C14.14482,13.5295559 14.4495129,14.0762962 14.2757272,14.4601749 Z M11.0304772,10.4384034 C10.24512,9.73881805 9.24774859,9.70695672 8.70995573,10.3637249 L8.70995573,10.3639485 C8.17224859,11.0209626 8.35880573,12.0439236 9.14386287,12.743509 C9.53915573,13.0957052 10.0108414,13.2736591 10.4456914,13.2736591 C10.8459986,13.2736591 11.2150414,13.1227817 11.46447,12.8181874 C11.9842843,12.1827943 11.78967,11.1150709 11.0304772,10.4384034 Z M10.9755343,12.3825928 C10.69062,12.7312787 10.0429629,12.6623017 9.5613343,12.2334594 C9.11990573,11.8402124 8.85361287,11.2211859 9.1987843,10.7993419 L9.1987843,10.7995655 C9.54406287,10.3772743 10.1715557,10.5552282 10.6129843,10.9484753 C11.0943986,11.3775412 11.2604486,12.0345329 10.9755557,12.3825704 L10.9755343,12.3825928 Z M15.7968557,7.31800554 C15.4884986,7.27237117 15.24492,7.2363511 15.0272914,6.9642889 C14.8781486,6.77799516 14.8498629,6.61285287 14.8578343,6.42257925 C14.8586057,6.41325562 14.8583272,6.40390963 14.8592486,6.39463072 C14.8594629,6.39266314 14.85912,6.39082972 14.8592914,6.38890686 C14.8631486,6.32636922 14.8700486,6.26114852 14.8777843,6.19112068 C14.9132486,5.8679462 14.9573914,5.46575563 14.6386843,5.06750021 C14.4446057,4.82468335 14.1981986,4.63123479 13.9446772,4.52270504 C13.5834772,4.36811611 13.0197343,4.29846837 12.3884914,4.84824956 C11.2896343,5.80572159 11.4343414,7.43438323 12.7662986,9.09884135 L12.7662986,9.09906494 C13.54287,10.0694157 14.4282772,10.5759772 15.2505772,10.5759772 C15.7274914,10.5759772 16.1832557,10.40567 16.5842057,10.0563134 C17.3845414,9.35889687 17.47242,8.60822162 16.8456986,7.82501429 C16.5260486,7.42564093 16.1217343,7.3660323 15.7968557,7.31800554 Z M16.1721772,9.54143433 C15.3794914,10.2320761 14.2364914,9.88949418 13.2597557,8.66892584 L13.2597557,8.66914943 C12.1656129,7.30161652 11.9939272,6.0657771 12.8005414,5.36312861 C13.1139986,5.08997083 13.4085343,5.01748351 13.70067,5.14325191 C13.8589843,5.21095444 14.0167414,5.33672284 14.1451414,5.49741573 C14.2812772,5.66752168 14.2716343,5.81772828 14.2389986,6.11469821 C14.2318843,6.17967296 14.22507,6.25048336 14.22012,6.32390975 L14.2199486,6.32473703 C14.2196914,6.3274648 14.2197772,6.33014786 14.21952,6.33287564 C14.2179772,6.35666543 14.2164129,6.38005276 14.2155772,6.40460275 C14.1415843,7.52699349 14.86482,8.57305119 14.8964057,8.61803715 C14.9594057,8.70756189 15.0567986,8.75473901 15.1554772,8.75473901 C15.2236838,8.75480384 15.2901325,8.73216789 15.3451629,8.690122 C15.4883057,8.5809215 15.5194843,8.37110627 15.4150629,8.22152572 C15.41262,8.21808246 15.3211629,8.0854499 15.2125629,7.87398012 C15.38517,7.93242609 15.55407,7.95945791 15.7066629,7.98199561 C16.01607,8.02785356 16.1985343,8.06300164 16.3522414,8.2549298 C16.75047,8.75254785 16.7049557,9.07724273 16.1721772,9.54145668 L16.1721772,9.54143433 Z M19.4417057,4.59367196 C18.00627,3.27224295 16.4704843,3.13728507 15.5286986,4.25064284 C14.8390629,5.06618104 14.8610272,5.82211061 15.5940772,6.49745896 C15.9681343,6.84178489 16.3763057,6.83720133 16.7044414,6.83284136 C17.0153057,6.82868262 17.2617129,6.82629022 17.51637,7.0607896 C17.7575486,7.28285746 17.7654986,7.500543 17.7764914,7.80164931 C17.78832,8.12674665 17.8029557,8.53135198 18.1758772,8.87482827 C18.4031272,9.08399509 18.6747557,9.23641521 18.9408343,9.30344698 C19.0405414,9.32855594 19.15302,9.34579459 19.2747129,9.34579459 C19.6167557,9.34579459 20.03067,9.21021067 20.4318343,8.73573401 C21.37917,7.61582511 20.9997772,6.02866145 19.4417057,4.59367196 Z M19.9499057,8.29204546 C19.6795414,8.61128478 19.3991272,8.7293841 19.0920343,8.65146359 C18.9258772,8.60954079 18.7515557,8.51017817 18.60132,8.37175467 C18.4420629,8.22523728 18.4296986,8.07500833 18.4188343,7.77631676 C18.4146129,7.66040861 18.4085486,7.52925173 18.3864129,7.39120834 C18.4825414,7.484467 18.5349343,7.55521033 18.5420914,7.56516001 C18.60507,7.65448352 18.7024843,7.70186187 18.8013772,7.70186187 C18.8668629,7.70186187 18.9330986,7.68088929 18.99012,7.63766968 C19.13367,7.52871512 19.1653629,7.31887753 19.0609414,7.16909575 C19.0325057,7.12826853 18.3476272,6.16840411 17.0091986,6.16780042 C16.9435792,6.16348709 16.877848,6.16128743 16.8120986,6.16120457 C16.7728843,6.16120457 16.7344629,6.16165175 16.6971129,6.16207656 C16.3838272,6.16534095 16.1991772,6.1598854 16.01952,5.99460895 C15.5537914,5.56554307 15.5516057,5.23736021 16.0107343,4.69433139 C16.6940914,3.8866635 17.8735843,4.04474041 19.0162629,5.09674555 C20.2962343,6.2753911 20.6451772,7.46975489 19.9499057,8.29204546 Z" id="path-1"></path>
    </defs>
    <g id="product/beans" stroke="none" stroke-width="1" fill="none" fill-rule="evenodd" transform="translate(-3.000000, -3.000000)">
        <mask id="mask-2" fill="white">
            <use xlink:href="#path-1"></use>
        </mask>
        <use id="beans" fill="#000000" fill-rule="nonzero" xlink:href="#path-1"></use>
    </g>
</svg>