<?xml version="1.0" encoding="UTF-8"?>
<svg width="20px" height="19px" viewBox="0 0 20 19" version="1.1" xmlns="http://www.w3.org/2000/svg" xmlns:xlink="http://www.w3.org/1999/xlink">
    <!-- Generator: Sketch 48.2 (47327) - http://www.bohemiancoding.com/sketch -->
    <title>icon/book/white</title>
    <desc>Created with Sketch.</desc>
    <defs></defs>
    <g id="3--01-text-feed-modal" stroke="none" stroke-width="1" fill="none" fill-rule="evenodd" transform="translate(-40.000000, -239.000000)">
        <g id="modal" transform="translate(13.000000, 10.000000)" fill="#FFFFFF" fill-rule="nonzero">
            <g id="статьи" transform="translate(8.000000, 207.000000)">
                <g id="icon/book/white" transform="translate(19.000000, 22.000000)">
                    <path d="M17.8788889,0.00577777778 C19.0504444,0.00622222222 19.9995556,0.954888889 20,2.12688889 L20,14.4044444 L19.9957778,14.4244444 C19.9833333,15.5795556 19.0508889,16.5108889 17.8953333,16.5217778 L17.8788889,16.5251111 L12.4248889,16.5251111 C11.9797778,16.5253333 11.5973333,16.6904444 11.3288889,16.9411111 C11.0608889,17.1944444 10.9111111,17.5151111 10.9097778,17.8826667 L10.9097778,17.8828889 C10.9097778,18.3848889 10.5026667,18.792 10.0006667,18.792 C9.62244444,18.792 9.29911111,18.5606667 9.16222222,18.2322222 C9.116,18.1231111 9.09,18.0031111 9.09,17.8771111 L9.09,17.8746667 C9.08644444,17.5146667 8.93777778,17.1948889 8.66933333,16.942 C8.39844444,16.69 8.01355556,16.5251111 7.57688889,16.5251111 L2.12288889,16.5251111 L2.12288889,16.5253333 L2.104,16.5215556 C0.940222222,16.5115556 0.000444444444,15.5682222 0,14.4026667 L0.00177777778,14.394 L0.00177777778,2.12977778 L0,2.12088889 C0.000444444444,0.95 0.948,0.002 2.118,0.000444444444 L2.12111111,0 L6.36288889,0 C7.59755556,0 8.72822222,0.467111111 9.55422222,1.238 C9.71911111,1.39133333 9.862,1.56622222 10.0013333,1.74377778 C10.1395556,1.568 10.2808889,1.39422222 10.4442222,1.24244444 C11.2702222,0.471555556 12.4013333,0.00555555556 13.6368889,0.00577777778 L17.8773333,0.006 L17.8788889,0.00577777778 Z M7.57688889,14.7073333 C8.12044444,14.7073333 8.63111111,14.8442222 9.09044444,15.068 L9.09044444,4.30222222 C9.08955556,3.63244444 8.80422222,3.02733333 8.31422222,2.56711111 C7.824,2.11 7.13666667,1.81755556 6.36333333,1.81755556 L2.12133333,1.81755556 L2.12133333,1.81777778 L2.12088889,1.81777778 C1.95444444,1.81866667 1.81977778,1.95311111 1.81866667,2.12 L1.82,2.12688889 L1.82,14.4042222 L1.81955556,14.406 C1.822,14.5708889 1.95555556,14.7048889 2.12111111,14.7055556 L2.12111111,14.7057778 L2.12844444,14.7073333 L7.57688889,14.7073333 Z M10.9082222,15.0673333 C11.3677778,14.8435556 11.8795556,14.7071111 12.4253333,14.7075556 L17.8673333,14.7077778 L17.8775556,14.7057778 C18.0444444,14.7051111 18.1802222,14.5693333 18.1806667,14.4026667 L18.1824444,14.394 L18.1824444,2.12688889 C18.182,1.95933333 18.0464444,1.82422222 17.8793333,1.82355556 L17.8793333,1.82377778 L17.8777778,1.82355556 L13.6371111,1.82355556 C12.8604444,1.82377778 12.1737778,2.11533333 11.6846667,2.57155556 C11.196,3.03044444 10.9111111,3.63466667 10.91,4.30822222 L10.9082222,4.31711111 L10.9082222,15.0673333 Z M13.408,5.53044444 L15.6804444,5.53044444 C16.1824444,5.53044444 16.5895556,5.12333333 16.5895556,4.62133333 C16.5895556,4.11911111 16.1824444,3.71222222 15.6804444,3.71222222 L13.408,3.71222222 C12.906,3.71222222 12.4988889,4.11911111 12.4988889,4.62133333 C12.4988889,5.12311111 12.9057778,5.53044444 13.408,5.53044444 Z M15.6804444,7.35822222 L13.408,7.35822222 C12.906,7.35822222 12.4988889,7.76511111 12.4988889,8.26733333 C12.4988889,8.76911111 12.9057778,9.17644444 13.408,9.17644444 L15.6804444,9.17644444 C16.1824444,9.17644444 16.5895556,8.76933333 16.5895556,8.26733333 C16.5893333,7.76488889 16.1824444,7.35822222 15.6804444,7.35822222 Z M15.6804444,11.004 L13.408,11.004 C12.906,11.004 12.4988889,11.4108889 12.4988889,11.9131111 C12.4988889,12.4148889 12.9057778,12.8222222 13.408,12.8222222 L15.6804444,12.8222222 C16.1824444,12.8222222 16.5895556,12.4151111 16.5895556,11.9131111 C16.5893333,11.4108889 16.1824444,11.004 15.6804444,11.004 Z M6.59022222,3.71222222 L4.31777778,3.71222222 C3.81577778,3.71222222 3.40866667,4.11911111 3.40866667,4.62133333 C3.40866667,5.12311111 3.81555556,5.53044444 4.31777778,5.53044444 L6.59022222,5.53044444 C7.09222222,5.53044444 7.49933333,5.12333333 7.49933333,4.62133333 C7.49933333,4.11911111 7.09222222,3.71222222 6.59022222,3.71222222 Z M6.59022222,7.35822222 L4.31777778,7.35822222 C3.81577778,7.35822222 3.40866667,7.76511111 3.40866667,8.26733333 C3.40866667,8.76911111 3.81555556,9.17644444 4.31777778,9.17644444 L6.59022222,9.17644444 C7.09222222,9.17644444 7.49933333,8.76933333 7.49933333,8.26733333 C7.49933333,7.76488889 7.09222222,7.35822222 6.59022222,7.35822222 Z M6.59022222,11.004 L4.31777778,11.004 C3.81577778,11.004 3.40866667,11.4108889 3.40866667,11.9131111 C3.40866667,12.4148889 3.81555556,12.8222222 4.31777778,12.8222222 L6.59022222,12.8222222 C7.09222222,12.8222222 7.49933333,12.4151111 7.49933333,11.9131111 C7.49933333,11.4108889 7.09222222,11.004 6.59022222,11.004 Z"></path>
                </g>
            </g>
        </g>
    </g>
</svg>