<?xml version="1.0" encoding="UTF-8"?>
<svg width="24px" height="24px" viewBox="0 0 24 24" version="1.1" xmlns="http://www.w3.org/2000/svg" xmlns:xlink="http://www.w3.org/1999/xlink">
    <!-- Generator: Sketch 48.2 (47327) - http://www.bohemiancoding.com/sketch -->
    <title>product/bread</title>
    <desc>Created with Sketch.</desc>
    <defs>
        <path d="M16.5951,3.64813843 C16.5153857,3.63100422 16.41735,3.61539106 16.3115571,3.60161211 C15.8341286,3.53938316 15.3216429,3.52779632 14.7769286,3.56788053 L6.18349286,4.51610027 C4.43050714,4.52520422 3.20800714,5.48391474 3.20800714,6.85498711 C3.20800714,7.38657264 3.3909,8.24308185 3.73000714,8.78327922 C3.7434,8.8046858 3.76223571,8.8590858 3.76401429,8.87787527 L3.76401429,16.0403555 C3.76401429,16.2035332 3.8766,16.3431121 4.03062857,16.3710726 L7.23102857,16.948849 L6.4086,18.0002095 C6.40639286,18.0030055 6.40542857,18.0064503 6.40332857,18.0092911 C6.37043737,18.0539094 6.34896363,18.1065306 6.34092857,18.1622016 C6.33979286,18.1700305 6.3393,18.1777253 6.33867857,18.1856213 C6.33799286,18.1946582 6.33608571,18.2033147 6.33608571,18.2125305 L6.33608571,19.4629029 C6.33608571,19.8790226 6.66032143,20.2173897 7.05897857,20.2173897 L13.4434071,20.2173897 C13.5316929,20.2173897 13.5842357,20.2320187 13.5954214,20.2370516 C13.6247143,20.2510318 13.6513071,20.2643411 13.6768286,20.2772476 C13.8967714,20.388195 14.0650071,20.4555016 14.5463143,20.4555016 C16.1028214,20.4555016 18.0197786,19.70862 18.8194714,18.7905305 C18.9731786,18.6142674 19.0839857,18.4351187 19.1489571,18.2577595 C19.2022286,18.1122753 19.2251357,17.9674397 19.2174857,17.8481937 L19.2174857,16.3005226 C19.2174857,16.2911726 19.2155786,16.2824042 19.2148714,16.2732332 C19.2193714,16.1974042 19.2151286,16.1229397 19.2023357,16.0503766 C19.2888214,16.0370674 19.3763357,16.0231318 19.4621143,16.0102029 C19.8733286,15.9479516 20.1954,15.5451634 20.1954,15.0934108 L20.1954,9.07565685 C20.1954,9.04223843 20.2040571,9.01407659 20.2191429,8.99832922 C20.5456929,8.65866474 20.7919929,7.90688448 20.7919929,7.24972264 C20.7919929,5.39538053 18.6165,4.08295816 16.5951,3.6481608 L16.5951,3.64813843 Z M14.8332214,4.23620422 C15.3250929,4.20059369 15.7959429,4.2108608 16.2320357,4.26743053 C16.3192071,4.27879369 16.3998643,4.29136474 16.4654786,4.30545685 C18.5999571,4.76450159 20.1491357,6.00275027 20.1491357,7.24972264 C20.1491357,7.75005948 19.9465714,8.33459106 19.76535,8.52311211 C19.7516571,8.5373608 19.7414357,8.55433843 19.7290071,8.56961606 L11.1686357,10.055774 C11.3646643,9.67237922 11.4954643,9.14567001 11.4954643,8.67022922 C11.4954643,7.20223448 10.1512929,5.68104764 8.34503571,4.95232922 L14.8332,4.23620422 L14.8332214,4.23620422 Z M18.5363357,16.0851371 C18.5688857,16.1345042 18.5997643,16.2089911 18.5484857,16.3487937 C18.5128071,16.4460068 18.4420714,16.5569542 18.3439286,16.6696911 C17.6730214,17.4396792 15.8984786,18.1153174 14.5463143,18.1153174 C14.1777,18.1153174 14.0992286,18.0757924 13.9568143,18.0039226 C13.9245726,17.9874042 13.8920976,17.9713867 13.8594,17.9558753 C13.7204571,17.8907832 13.5565071,17.8770042 13.4433857,17.8770042 L7.335,17.8770042 L8.83688571,15.9571226 L15.9107143,15.9571226 C16.0217143,15.9571226 16.16925,15.9352687 16.25715,15.9136608 L16.3863643,15.8819871 C16.7834357,15.7843266 16.9827643,15.7351832 17.3644714,15.7351832 C18.0592286,15.7351832 18.4299214,15.9237042 18.5363357,16.0851371 Z M4.40687143,15.7578871 L4.40687143,8.87787527 C4.40687143,8.71163316 4.33699286,8.52584106 4.26771429,8.41543053 C4.01022857,8.00530553 3.85086429,7.28609369 3.85086429,6.85500948 C3.85086429,5.87254369 4.82016429,5.18632527 6.20811429,5.18632527 C6.53194286,5.18632527 6.8697,5.22368053 7.21204286,5.29749632 C9.15139286,5.7145108 10.8526071,7.29056738 10.8526071,8.67022922 C10.8526071,9.18018448 10.6518214,9.74901343 10.4717571,9.94057659 C10.3434214,10.0769792 10.269,10.2643147 10.2596786,10.4589871 C10.2584143,10.4700371 10.2567643,10.4809082 10.2565929,10.4921818 C10.2565929,10.4943068 10.2559929,10.4963647 10.2559929,10.4984897 L10.2559929,15.28607 L8.68435714,15.28607 C8.58788571,15.28607 8.49642857,15.331299 8.43542143,15.4092753 L7.69802143,16.3519253 L4.40689286,15.7579095 L4.40687143,15.7578871 Z M18.5484857,18.0181266 C18.5128071,18.1153174 18.4420714,18.2262871 18.3439286,18.3390016 C17.6731286,19.1090121 15.8985857,19.784449 14.5463143,19.784449 C14.1774857,19.784449 14.0990143,19.7449016 13.9565143,19.6730542 C13.924331,19.6566854 13.8919572,19.6407281 13.8594,19.6251858 C13.7204571,19.5600937 13.5565071,19.5463371 13.4433857,19.5463371 L7.05895714,19.5463371 C7.01479992,19.5463371 6.97899016,19.5089968 6.97894286,19.4629029 L6.97894286,18.5480568 L13.4433857,18.5480568 C13.5316929,18.5480568 13.5842357,18.5626858 13.5954214,18.5677187 C13.6248214,18.581699 13.6515,18.5952318 13.6770429,18.6081384 C13.8969643,18.7190858 14.0652214,18.78637 14.5463143,18.78637 C15.96285,18.78637 17.6752714,18.1668766 18.5750786,17.36347 L18.5752714,17.8687055 C18.5777786,17.9123911 18.5687786,17.9626529 18.5484857,18.0181266 Z M19.3701429,15.3461516 C19.1837143,15.3740674 18.9947143,15.4035042 18.8048357,15.4333661 C18.4814143,15.1932858 17.9857071,15.0641305 17.3644714,15.0641305 C16.9080643,15.0641305 16.6419,15.12967 16.2388286,15.2288292 L16.1105571,15.2603016 C16.0554214,15.2738345 15.9602143,15.28607 15.9107143,15.28607 L10.89885,15.28607 L10.89885,10.78277 L19.5525214,9.28043974 L19.5525214,15.0933884 C19.5525214,15.2200832 19.4542714,15.3332226 19.3701643,15.3461292 L19.3701429,15.3461516 Z M6.79279286,9.39382527 C6.77565,9.38049369 6.75636429,9.36924238 6.73712143,9.36259895 C6.71789545,9.35353349 6.69775494,9.34675063 6.67707857,9.3423779 C6.57422143,9.32009895 6.46279286,9.35579895 6.38787857,9.43413316 C6.32781429,9.49683185 6.29348571,9.58400159 6.29348571,9.67123843 C6.29348571,9.76071211 6.32781429,9.84566738 6.38787857,9.90836606 C6.44781429,9.9709529 6.53142857,10.0067871 6.61491429,10.0067871 C6.63579538,10.0068501 6.65662469,10.0046158 6.67705714,10.0001213 C6.69852857,9.99564764 6.71777143,9.98887001 6.73712143,9.98220422 C6.75633116,9.97306547 6.77493028,9.96258831 6.79279286,9.95084369 C6.81214286,9.93742264 6.82712143,9.92400159 6.84207857,9.90836606 C6.90241528,9.84553093 6.93633638,9.76022774 6.93636429,9.6712608 C6.93636429,9.58397922 6.90214286,9.49683185 6.84207857,9.43413316 C6.82712143,9.41852001 6.81214286,9.40507659 6.79279286,9.39382527 Z M8.41928571,8.4320279 C8.42777143,8.45211474 8.43634286,8.4723358 8.44922143,8.4902529 C8.46,8.5080358 8.47285714,8.5259529 8.48783571,8.54170027 C8.54777143,8.60426474 8.63138571,8.64009895 8.71497857,8.64009895 C8.73642857,8.64009895 8.75777143,8.63779501 8.77922143,8.63332132 C8.79859286,8.62884764 8.81993571,8.62218185 8.83928571,8.61323448 C8.85852857,8.60645685 8.87571429,8.59531738 8.89495714,8.58415553 C8.9121,8.57073448 8.92707857,8.55731343 8.94214286,8.5416779 C9.0021,8.47900159 9.03642857,8.39172001 9.03642857,8.30457264 C9.03642857,8.28218185 9.03422143,8.25979106 9.02991429,8.23970422 C9.02562857,8.21729106 9.02134286,8.19490027 9.01287857,8.17481343 C9.00430714,8.15472659 8.99350714,8.13678711 8.98283571,8.11889238 C8.97205714,8.09880553 8.9571,8.08305816 8.94212143,8.06744501 C8.82422143,7.94218185 8.60783571,7.94218185 8.48783571,8.06744501 C8.47285714,8.08305816 8.45997857,8.09880553 8.44922143,8.11889238 C8.43636429,8.13678711 8.42777143,8.15472659 8.41928571,8.17481343 C8.41058833,8.19563475 8.40409972,8.21738701 8.39993571,8.23968185 C8.39565,8.25979106 8.39355,8.28218185 8.39355,8.30455027 C8.39355,8.32685159 8.39565,8.34705027 8.39993571,8.36944106 C8.40422143,8.39172001 8.41071429,8.41194106 8.41928571,8.4320279 Z M5.83707857,7.7341108 C5.85424286,7.74536211 5.87350714,7.75647922 5.89285714,7.76544895 C5.9121,7.77439632 5.93136429,7.78106211 5.95281429,7.78336606 C5.97205714,7.78783974 5.99352857,7.79003185 6.01495714,7.79003185 C6.03640714,7.79003185 6.05785714,7.78783974 6.0771,7.78336606 C6.09857143,7.78106211 6.11781429,7.77441869 6.13705714,7.76547132 C6.15642857,7.75650159 6.17567143,7.74533974 6.19283571,7.7341108 C6.20997857,7.72297132 6.22716429,7.70735816 6.24212143,7.6916108 C6.25679211,7.67625823 6.27039788,7.65983564 6.28283571,7.64246738 C6.29348571,7.62226869 6.30426429,7.60435159 6.31283571,7.58426474 C6.31922143,7.56415553 6.32571429,7.54176474 6.33,7.5216779 C6.33428571,7.49928711 6.33638571,7.47689632 6.33638571,7.45450553 C6.33638571,7.43439632 6.33430714,7.41200553 6.33,7.38963711 C6.32571429,7.3673358 6.31922143,7.34713711 6.31285714,7.32705027 C6.30410268,7.30696185 6.29406581,7.28750976 6.28281429,7.26882527 C6.26995714,7.25102001 6.2571,7.2331029 6.2421,7.2173779 C6.1671,7.1391779 6.05785714,7.10336606 5.95281429,7.12575685 C5.93136429,7.13023053 5.9121,7.13689632 5.89285714,7.14584369 C5.87350714,7.15250948 5.85424286,7.16373843 5.83707857,7.17718185 C5.81783571,7.18832132 5.80277143,7.20176474 5.78779286,7.2173779 C5.77283571,7.2331029 5.75997857,7.25102001 5.7471,7.26882527 C5.7358558,7.28751038 5.72582611,7.30696246 5.71707857,7.32705027 C5.71069286,7.34713711 5.70422143,7.3673358 5.69993571,7.38961474 C5.69579266,7.41096995 5.69364687,7.43269479 5.69352857,7.45448316 C5.69352857,7.54395685 5.72785714,7.62904632 5.78781429,7.6916108 C5.80277143,7.70735816 5.81783571,7.72297132 5.8371,7.7341108 L5.83707857,7.7341108 Z M8.24350714,11.0289792 C8.12350714,10.9037161 7.90712143,10.9037161 7.7871,11.0289792 C7.77424286,11.0447042 7.75928571,11.0626213 7.74850714,11.0804266 C7.73565,11.0983213 7.72716429,11.1185424 7.71857143,11.1386292 C7.71,11.1587161 7.70350714,11.1788253 7.70142857,11.2012161 C7.69704031,11.222533 7.69486348,11.2442811 7.69493571,11.2660845 C7.69493571,11.3555582 7.72924286,11.4406253 7.7871,11.5031897 C7.84705714,11.5659108 7.93067143,11.6016108 8.01426429,11.6016108 C8.09995714,11.6016108 8.18355,11.5659108 8.24350714,11.5031897 C8.30357143,11.4406253 8.33779286,11.3555582 8.33779286,11.2660845 C8.33779286,11.1788253 8.30357143,11.0916555 8.24350714,11.0289792 Z M6.24212143,12.4247016 C6.30207857,12.3644187 6.33640714,12.277249 6.33640714,12.1876858 C6.33640714,12.100449 6.30207857,12.0132792 6.24212143,11.9505805 C6.12212143,11.827599 5.90783571,11.8253174 5.78781429,11.9505805 C5.72785714,12.0132792 5.69352857,12.100449 5.69352857,12.1876858 C5.69352857,12.277249 5.72785714,12.3643963 5.78781429,12.4247016 C5.84800326,12.4877049 5.92971881,12.5231445 6.01495714,12.5232121 C6.10067143,12.5232121 6.18205714,12.4874003 6.2421,12.4247016 L6.24212143,12.4247016 Z M8.80926429,13.8653174 C8.8692,13.8026411 8.90352857,13.7176634 8.90352857,13.628324 C8.90352857,13.6058213 8.90142857,13.5835424 8.89714286,13.5610397 C8.89285714,13.5409305 8.88636429,13.5186516 8.88,13.4985647 C8.87140714,13.4782542 8.86062857,13.4605384 8.84995714,13.4426437 C8.83812504,13.4240379 8.82448101,13.4067596 8.80924286,13.3910845 C8.73424286,13.3128845 8.62281429,13.2770726 8.51995714,13.2993516 C8.49850714,13.3039371 8.47924286,13.308299 8.46,13.3172463 C8.44070141,13.326313 8.42205946,13.3368314 8.40422143,13.3487187 C8.38707857,13.3620279 8.37002143,13.3753595 8.35493571,13.3910845 C8.33970504,13.4067607 8.32606822,13.424039 8.31424286,13.4426437 C8.30357143,13.4605384 8.29281429,13.4782542 8.28640714,13.4985647 C8.27803004,13.5186849 8.27154947,13.5396086 8.26705714,13.5610397 C8.26286091,13.5832013 8.26072244,13.6057337 8.26067143,13.628324 C8.26067143,13.6728818 8.26924286,13.7154713 8.28422143,13.7556674 C8.30136429,13.7960871 8.32493571,13.8340911 8.35493571,13.8653174 C8.41512642,13.9283344 8.49685116,13.9637827 8.5821,13.9638503 C8.66781429,13.9638503 8.7492,13.9280161 8.80924286,13.8653174 L8.80926429,13.8653174 Z M5.98714286,14.5296147 C5.92707857,14.5922911 5.89285714,14.6794608 5.89285714,14.7668318 C5.89285714,14.8113897 5.90142857,14.8540016 5.91848571,14.8965911 C5.93355,14.9367871 5.9571,14.972599 5.98712143,15.0038476 C6.04926429,15.0687161 6.12848571,15.1023582 6.21428571,15.1023582 C6.25707857,15.1023582 6.29997857,15.0934108 6.33848571,15.0776858 C6.3771,15.0597687 6.41140714,15.035074 6.44145,15.0038476 C6.47115459,14.972976 6.49509769,14.936605 6.51205714,14.8965911 C6.52922143,14.8540016 6.53571429,14.8113897 6.53571429,14.7668542 C6.53571429,14.6794608 6.50138571,14.5922911 6.44142857,14.5296147 C6.32352857,14.4044411 6.10714286,14.4044411 5.98714286,14.5296147 Z" id="path-1"></path>
    </defs>
    <g id="Symbols" stroke="none" stroke-width="1" fill="none" fill-rule="evenodd">
        <g id="product/bread">
            <mask id="mask-2" fill="white">
                <use xlink:href="#path-1"></use>
            </mask>
            <use id="bread" fill="#000000" fill-rule="nonzero" xlink:href="#path-1"></use>
            <rect id="🎨-color" fill="#EB690B" mask="url(#mask-2)" x="0" y="0" width="24" height="24"></rect>
        </g>
    </g>
</svg>