<?xml version="1.0" encoding="UTF-8"?>
<svg width="24px" height="24px" viewBox="0 0 24 24" version="1.1" xmlns="http://www.w3.org/2000/svg" xmlns:xlink="http://www.w3.org/1999/xlink">
    <!-- Generator: Sketch 48.2 (47327) - http://www.bohemiancoding.com/sketch -->
    <title>product/butter</title>
    <desc>Created with Sketch.</desc>
    <defs>
        <path d="M16.8779755,11.3237043 C17.0011989,11.2228656 17.0204436,11.0400979 16.9207925,10.9154527 C16.8209308,10.7908076 16.6404713,10.771414 16.5166734,10.872156 L16.4029862,10.9654463 C16.2801266,11.0668463 16.2619925,11.2497108 16.3621989,11.3738914 C16.4167747,11.4415284 16.4985887,11.4807212 16.5849393,11.4805947 C16.6488968,11.4805947 16.7130457,11.4591495 16.7665096,11.4150979 L16.8779564,11.3237043 L16.8779755,11.3237043 Z M5.53671168,15.8910979 L5.19243296,15.8910979 C5.03387977,15.8910979 4.90519892,16.0211431 4.90519892,16.1814205 C4.90519892,16.3416979 5.03387977,16.4717431 5.19243296,16.4717431 L5.53671168,16.4717431 C5.69528402,16.4717431 5.82394573,16.3416979 5.82394573,16.1814205 C5.82394573,16.0211431 5.69528402,15.8910979 5.53671168,15.8910979 Z M20.9707734,11.187156 C20.9713479,11.172756 20.9684755,11.1590914 20.9669436,11.1447689 C20.9646457,11.123556 20.9619649,11.1030785 20.9551479,11.0829302 C20.9505138,11.0689753 20.9435244,11.0565302 20.9366883,11.0432527 C20.9267308,11.0239172 20.9155287,11.0060527 20.9012627,10.9891753 C20.8963989,10.9833689 20.8945606,10.9761108 20.8891415,10.9706334 C20.8830138,10.9644205 20.8748947,10.962156 20.8683649,10.9566205 C20.8604947,10.9498463 20.8552479,10.9409818 20.8465159,10.9350011 C20.837133,10.9285947 20.8263521,10.926814 20.8165096,10.9216463 C20.8022819,10.914156 20.7885521,10.9074205 20.773501,10.902485 C20.75395,10.8960592 20.7345904,10.8928076 20.7144457,10.890756 C20.699567,10.8892076 20.6854351,10.8873882 20.6705181,10.8882011 C20.6494734,10.8893237 20.6296734,10.8943753 20.6093372,10.9001043 C20.5955308,10.9039753 20.5819925,10.9064527 20.5687606,10.9124721 C20.5470649,10.9223043 20.5281457,10.9370334 20.5090925,10.9524011 C20.5007627,10.9591172 20.4907096,10.9621172 20.4829734,10.9698785 L20.4675202,10.9854398 C19.9575457,11.538214 19.1064521,11.413414 18.7316117,11.3232205 C18.7600479,10.1120334 18.5153436,9.65256886 18.4208244,9.52316241 C18.2473925,9.25014305 17.7794117,9.12654305 16.9357479,9.12654305 L14.4196734,9.12654305 C14.1111074,9.12654305 13.81135,9.19014305 13.5295351,9.31507854 L12.9008755,9.59086564 L11.0020287,8.50043338 L11.0018372,8.50037531 L7.01981594,6.21358176 C6.58484785,5.96400112 6.03115636,6.11870434 5.78467126,6.55740112 C5.66144785,6.77665273 5.63320317,7.04042047 5.70706062,7.28121402 C5.78112871,7.52202693 5.95241594,7.72331725 6.16877977,7.82926564 L9.98041381,9.8513237 C9.94498828,10.1485753 10.0827266,10.4514398 10.3496053,10.6088527 L7.69774573,11.8647302 C7.20747551,12.0371818 6.84379892,12.4783366 6.78246488,13.0193818 L5.48284573,13.6704011 C5.39891507,13.7123266 5.34054468,13.793055 5.32651381,13.886614 C5.29468828,14.0970592 5.39027977,14.2890592 5.5049053,14.4570592 L5.24945849,14.4570592 C4.87155424,14.4570592 4.33934785,14.574814 4.05322445,14.8001237 C3.84097764,14.9670205 3.65959892,15.1170979 3.5141053,15.2461947 C3.41050956,15.3380527 3.30877126,15.4338785 3.215267,15.5251753 C3.05267339,15.6837302 3.02320317,15.8364979 3.03132232,15.9471882 C3.0308053,15.9543495 3.02921594,15.9611237 3.02921594,15.9684011 L3.02959892,17.3304205 C3.02416062,17.4504398 3.06847126,17.566685 3.15467977,17.6579818 C3.31009253,17.8224205 3.59638828,17.9057818 4.00535211,17.9057818 L10.4583904,17.9057818 C11.1061606,17.9057818 11.8674457,17.6886011 12.229667,17.4007366 C12.3499223,17.3047172 12.4701585,17.2056785 12.5705755,17.1166463 C12.5902606,17.0992076 12.6129713,17.0789624 12.6376351,17.0568979 C12.656267,17.0607302 12.67555,17.0627818 12.6953117,17.0627818 L15.0240138,17.0627818 C15.0374755,17.0627818 15.0571223,17.0637302 15.0818053,17.0648527 C15.13435,17.0669431 15.20635,17.0699624 15.2921755,17.0699624 C15.6770308,17.0699624 16.3386266,17.0089172 16.7558436,16.5380914 C16.7865202,16.5034463 16.8136734,16.4662269 16.8404436,16.4287366 C19.9948862,13.2668721 20.9075244,11.379756 20.9448649,11.3008656 C20.9462244,11.2980011 20.9459947,11.294885 20.9472585,11.2920011 C20.9531372,11.2784721 20.9547649,11.2643431 20.9585181,11.250214 C20.9641287,11.2291172 20.9699691,11.2085237 20.9707734,11.1871753 L20.9707734,11.187156 Z M17.0991457,15.1970914 L18.4173776,13.8695624 C18.0457351,14.3095947 17.6119542,14.7961753 17.1099457,15.3244076 C17.1075521,15.2827753 17.1035308,15.2400592 17.0991457,15.1970914 Z M13.7593415,9.84723983 C13.9689649,9.7543366 14.1911308,9.70718822 14.4196542,9.70718822 L16.9357479,9.70718822 C17.526684,9.70718822 17.783433,9.77438822 17.8855351,9.81586564 C17.8468159,9.86303338 17.7697798,9.93948499 17.6194223,10.0475043 L17.0458925,10.445285 C16.9149904,10.5360011 16.881901,10.7166979 16.9714606,10.8489108 C17.027184,10.930956 17.1171457,10.9749882 17.2085819,10.9749882 C17.2646883,10.9749882 17.3211585,10.9585366 17.3709074,10.9240463 L17.9481713,10.5236334 C17.9900117,10.4935753 18.0482627,10.4514979 18.1109564,10.4000527 C18.1632904,10.7436398 18.190233,11.2797302 18.1067436,12.0930785 C18.0992755,12.1662398 18.0699202,12.239014 18.0242883,12.2981624 C17.7673862,12.6310076 16.9807287,13.6086011 15.9868415,14.4685366 C16.0021032,14.2013818 16.0102798,13.9653495 16.0102798,13.7677366 C16.0102798,13.7046592 16.0092074,13.6364914 16.0076372,13.5660979 C16.4825308,13.4743753 17.1097925,13.2311818 17.3482734,12.8070011 C17.5033032,12.5308463 17.407367,12.1787043 17.1343415,12.0219302 L16.7104989,11.7786398 C16.7103457,11.7785431 16.7102308,11.7783882 16.7100393,11.7782914 L13.5257627,9.9497237 L13.7593415,9.84723983 Z M15.1829883,15.0974334 C15.1672862,15.1083302 15.1531542,15.1206592 15.1402862,15.1339172 C15.089484,15.1562527 15.0340096,15.1694527 14.9756053,15.1694527 L13.1716606,15.1694527 L13.1716032,14.9768527 C13.1716032,14.9607495 13.169401,14.9452656 13.1669308,14.9298785 C13.1688457,14.8752979 13.1634266,14.8208334 13.141501,14.7687495 C13.0545457,14.5619624 12.8192819,14.4570592 12.4419138,14.4570592 L7.35065211,14.4570592 C7.33891381,14.2035108 7.33269041,13.9712527 7.33269041,13.7677366 C7.33269041,13.5794721 7.33755424,13.3696656 7.34745424,13.1441818 C7.35907764,12.8732914 7.50060743,12.6391172 7.71002019,12.5002463 L7.89727764,12.4115624 C7.97871807,12.3839818 8.06460105,12.3660205 8.15530956,12.3660205 L13.3332776,12.3660205 C13.3337564,12.3660205 13.3342159,12.366214 13.3346755,12.366214 C13.3351734,12.366214 13.3356713,12.3660205 13.3361308,12.3660205 L14.6081564,12.3660205 C15.0373223,12.3660205 15.3920755,12.7047302 15.4156287,13.1371947 C15.4290904,13.3772334 15.4358308,13.5893237 15.4358308,13.7677366 C15.4358308,14.034814 15.420684,14.3757882 15.3909457,14.7810205 C15.3843585,14.8711753 15.3481287,14.9522527 15.2938032,15.0174979 C15.2568266,15.0440527 15.2203096,15.0715947 15.1830074,15.0974334 L15.1829883,15.0974334 Z M10.5739734,9.84933015 L10.9679819,9.14866564 L16.4261755,12.2832398 C16.4279564,12.2842463 16.4298713,12.2846914 16.431633,12.2856592 L16.8487925,12.5202398 C16.7401989,12.7133043 16.3452904,12.8945237 15.9763479,12.9789495 C15.8780755,12.3004269 15.2998925,11.7854721 14.6081564,11.7854721 L13.4141627,11.7854721 L10.645801,10.1121495 C10.5543457,10.0596011 10.5221755,9.94165273 10.5739925,9.8493108 L10.5739734,9.84933015 Z M12.2948883,11.7854721 L9.2192819,11.7854721 L10.9437776,10.9687753 L12.2948883,11.7854721 Z M6.25573509,7.1089366 C6.22823722,7.01951725 6.23834785,6.92558822 6.28396062,6.84431725 C6.37447764,6.68355596 6.57755211,6.62723338 6.73595211,6.71843338 L10.4684627,8.86190434 L10.2117904,9.31829144 L6.42757764,7.31100112 C6.34437551,7.27016241 6.28321381,7.1983366 6.25573509,7.1089366 Z M6.0881819,14.2775043 C6.05189466,14.2300656 5.99224573,14.1521818 5.9486819,14.0850785 L6.75929466,13.678956 C6.75908402,13.7079302 6.75820317,13.739614 6.75820317,13.7677366 C6.75820317,13.9729947 6.76425424,14.2049624 6.77551381,14.4570592 L6.217667,14.4570592 C6.17973296,14.3986463 6.13603509,14.3399624 6.0881819,14.2775043 Z M12.1919053,16.680214 C12.098401,16.763014 11.9863798,16.8552398 11.8741862,16.9444656 C11.6430585,17.1283753 11.019033,17.3251366 10.4583904,17.3251366 L4.00535211,17.3251366 C3.78917977,17.3251366 3.66316062,17.2954656 3.60368402,17.2722011 L3.60368402,16.4355689 C3.72148828,16.4586205 3.854267,16.4717431 4.00535211,16.4717431 L4.58994998,16.4717431 C4.74850317,16.4717431 4.87718402,16.3416979 4.87718402,16.1814205 C4.87718402,16.0211431 4.74850317,15.8910979 4.58994998,15.8910979 L4.00533296,15.8910979 C3.86751807,15.8910979 3.76654573,15.8790011 3.69584785,15.8642527 C3.76048685,15.8024679 3.82626215,15.7419089 3.89313934,15.6826076 C4.03001594,15.560885 4.20262445,15.4181818 4.4060819,15.2582914 C4.53866913,15.1539495 4.91753083,15.0377043 5.24945849,15.0377043 L12.41365,15.0377043 C12.3341819,15.115956 12.260133,15.1855172 12.1918862,15.2461947 C12.0983819,15.3289753 11.9863606,15.4212205 11.874167,15.5104269 C11.6430393,15.6943366 11.0190138,15.8910979 10.4583713,15.8910979 L6.29726913,15.8910979 C6.13867764,15.8910979 6.01003509,16.0211431 6.01003509,16.1814205 C6.01003509,16.3416979 6.13867764,16.4717431 6.29726913,16.4717431 L10.4584096,16.4717431 C11.1061798,16.4717431 11.8674649,16.2545818 12.2296862,15.9666979 C12.3499415,15.8706979 12.4701776,15.7716398 12.5705947,15.6826076 C12.57925,15.6749431 12.588633,15.6660592 12.5974223,15.6581431 L12.5977096,16.3144656 C12.4838308,16.4178785 12.2955202,16.5881818 12.1919244,16.680214 L12.1919053,16.680214 Z M15.1057606,16.4845947 C15.0707755,16.483085 15.0431053,16.4821366 15.024033,16.4821366 L13.1681372,16.4821366 C13.1698223,16.4694011 13.1721585,16.4567818 13.1721585,16.4437753 L13.1718713,15.7500979 L14.9756053,15.7500979 C15.2426181,15.7500979 15.4863074,15.6397753 15.6659627,15.4626785 C16.981801,14.5072463 18.0630649,13.1919689 18.4772181,12.6555882 C18.5897755,12.5096527 18.6593244,12.336156 18.6782244,12.1531947 C18.6868415,12.0690592 18.6929691,11.9910011 18.6994606,11.9118398 C18.9029564,11.9548463 19.1770351,11.9939624 19.4768883,11.9830463 L16.5954138,14.8848011 C16.5939968,14.8861947 16.593633,14.8881302 16.5922542,14.8895624 C16.5679318,14.9149039 16.5483979,14.9445264 16.5346159,14.9769689 C16.533084,14.9805882 16.5321074,14.9841495 16.5307479,14.9878076 C16.5188067,15.0190146 16.512371,15.052096 16.511733,15.0855495 C16.5116755,15.0896527 16.5122308,15.0935431 16.5123457,15.0976656 C16.5126521,15.1098592 16.512384,15.1219366 16.5142606,15.134285 C16.5832542,15.5913302 16.5205989,15.9332527 16.3279989,16.1506076 C15.9985032,16.522414 15.3262223,16.4938463 15.1057606,16.4845947 Z" id="path-1"></path>
    </defs>
    <g id="Symbols" stroke="none" stroke-width="1" fill="none" fill-rule="evenodd">
        <g id="product/butter">
            <mask id="mask-2" fill="white">
                <use xlink:href="#path-1"></use>
            </mask>
            <use id="butter" fill="#000000" fill-rule="nonzero" xlink:href="#path-1"></use>
            <rect id="🎨-color" fill="#EB690B" mask="url(#mask-2)" x="0" y="0" width="24" height="24"></rect>
        </g>
    </g>
</svg>