<?xml version="1.0" encoding="UTF-8"?>
<svg width="20px" height="20px" viewBox="0 0 20 20" version="1.1" xmlns="http://www.w3.org/2000/svg" xmlns:xlink="http://www.w3.org/1999/xlink">
    <!-- Generator: Sketch 48.2 (47327) - http://www.bohemiancoding.com/sketch -->
    <title>icon/calendar/white</title>
    <desc>Created with Sketch.</desc>
    <defs></defs>
    <g id="bottomnav/1" stroke="none" stroke-width="1" fill="none" fill-rule="evenodd" transform="translate(-43.000000, -10.000000)">
        <g id="дневник" fill="#FFFFFF" fill-rule="nonzero">
            <g id="icon/calendar/white" transform="translate(43.000000, 10.000000)">
                <path d="M16.6666667,2.42422222 L15.4537778,2.42422222 L15.4537778,0.909111111 C15.4537778,0.406888889 15.0466667,0 14.5446667,0 C14.0424444,0 13.6355556,0.406888889 13.6355556,0.909111111 L13.6355556,2.42422222 L6.36444444,2.42422222 L6.36444444,0.909111111 C6.36444444,0.406888889 5.95733333,1.97372982e-16 5.45533333,1.97372982e-16 C4.95311111,1.97372982e-16 4.54622222,0.406888889 4.54622222,0.909111111 L4.54622222,2.42422222 L3.33333333,2.42422222 C1.49222222,2.42444444 0.000444444444,3.916 0,5.75755556 L0,7.57244444 L0,16.6666667 C0.000666666667,18.508 1.492,19.9993333 3.33333333,20 L16.6666667,20 C18.508,19.9993333 19.9993333,18.508 20,16.6668889 L20,7.57266667 L20,5.75777778 C19.9993333,3.916 18.5077778,2.42466667 16.6666667,2.42422222 Z M3.33333333,4.24222222 L4.54622222,4.24222222 L4.54622222,4.54555556 C4.54622222,5.04755556 4.95311111,5.45466667 5.45533333,5.45466667 C5.95733333,5.45466667 6.36444444,5.04755556 6.36444444,4.54555556 L6.36444444,4.24222222 L13.6357778,4.24222222 L13.6357778,4.54555556 C13.6357778,5.04755556 14.0426667,5.45466667 14.5448889,5.45466667 C15.0468889,5.45466667 15.454,5.04755556 15.454,4.54555556 L15.454,4.24222222 L16.6666667,4.24222222 C17.5031111,4.244 18.1802222,4.92088889 18.1817778,5.75777778 L18.1817778,6.66355556 L1.81822222,6.66355556 L1.81822222,5.75777778 C1.81977778,4.92066667 2.49688889,4.244 3.33333333,4.24222222 Z M16.6666667,18.182 L3.33333333,18.182 C2.49688889,18.1802222 1.81955556,17.5031111 1.818,16.6668889 L1.818,8.48133333 L18.1817778,8.48133333 L18.1817778,16.6668889 C18.1802222,17.5031111 17.5031111,18.1802222 16.6666667,18.182 Z M12.864,10.2286667 L12.864,10.2284444 L8.98533333,14.3684444 L7.14177778,12.4008889 C6.79844444,12.0342222 6.22288889,12.0155556 5.85666667,12.3591111 C5.49022222,12.7024444 5.47155556,13.2777778 5.81511111,13.6444444 L8.32177778,16.32 C8.49466667,16.5046667 8.732,16.6073333 8.98533333,16.6073333 C9.23844444,16.6073333 9.47577778,16.5046667 9.64866667,16.32 L14.1908889,11.4713333 C14.534,11.1046667 14.5153333,10.5297778 14.1488889,10.1864444 C13.7824444,9.84333333 13.2071111,9.862 12.864,10.2286667 Z"></path>
            </g>
        </g>
    </g>
</svg>