<?xml version="1.0" encoding="UTF-8"?>
<svg width="24px" height="24px" viewBox="0 0 24 24" version="1.1" xmlns="http://www.w3.org/2000/svg" xmlns:xlink="http://www.w3.org/1999/xlink">
    <!-- Generator: Sketch 48.2 (47327) - http://www.bohemiancoding.com/sketch -->
    <title>product/carrot</title>
    <desc>Created with Sketch.</desc>
    <defs>
        <path d="M20.5302919,11.5970265 C20.2818519,10.8110479 19.9168119,10.114405 19.5025519,9.63584076 C19.2465519,9.33995504 18.9836119,9.14538362 18.7277319,9.05084076 C16.3204119,7.81711219 11.9624719,5.85952647 10.8748319,6.3369979 C10.2966319,6.59096933 9.84557194,7.0698979 9.50083194,7.59532647 L6.98947194,6.10115504 C6.76915194,5.98711219 6.50353194,6.03086933 6.32755194,6.20996933 C6.07855194,6.46319076 5.80627194,6.97505504 5.63401194,7.51411219 C5.61955194,7.55917647 5.60797194,7.60565504 5.59487194,7.65155504 L4.48419194,7.21526933 C4.25451194,7.1256979 3.99415194,7.1976979 3.83595194,7.39355504 C3.61175194,7.67148362 3.38869194,8.20906219 3.26739194,8.76320504 C3.14591194,9.31796933 3.12267194,9.90641933 3.20803194,10.2625622 C3.26819194,10.5147336 3.47229194,10.7034979 3.71543194,10.731955 C3.72363194,10.7327908 3.73165194,10.7334122 3.73985194,10.7336265 L4.90625194,10.7676122 C4.89193194,10.8488693 4.87829194,10.9303836 4.86837194,11.0119408 C4.79903194,11.5765408 4.83049194,12.1647979 4.94845194,12.5104836 C5.03185194,12.7546836 5.25217194,12.9206265 5.49669194,12.923155 L5.49963194,12.923155 C5.51663194,12.923155 5.53361194,12.9216765 5.55023194,12.9185479 L8.45693194,12.3853836 C8.47235194,12.492055 8.49173194,12.598705 8.51411194,12.705055 C8.04429194,13.0150836 7.54853194,13.5001193 7.12851194,14.0242622 C6.66679194,14.6003693 6.30117194,15.2109979 6.09921194,15.7435836 C5.78847194,16.563055 5.95761194,16.9506122 6.15409194,17.131405 C6.16825194,17.1444765 6.18549194,17.1561979 6.20165194,17.1684336 C6.21205194,17.181655 6.22271194,17.1947265 6.23535194,17.2063408 L6.88027194,17.7995908 C6.97617194,17.8878979 7.11641194,17.9617622 7.31719194,17.9617622 C7.52813194,17.9617622 7.80585194,17.8801622 8.16913194,17.6480908 C8.59899194,17.373505 9.06933194,16.9370265 9.50537194,16.412305 C9.63147194,16.4719622 9.77133194,16.5252765 9.92383194,16.5715193 L9.92383194,16.5793836 C9.92383194,17.4260479 11.3367119,17.8117408 12.6494119,17.8117408 C13.9621119,17.8117408 15.3750119,17.4260479 15.3750119,16.5793836 L15.3750119,15.6686693 C15.3750119,15.6478622 15.3728119,15.6276122 15.3692919,15.6079193 C15.3706519,15.5896836 15.3749919,15.572455 15.3749919,15.5537693 C15.3749919,15.5091979 15.3670119,15.4663193 15.3589919,15.4234836 C15.8205119,15.4507836 16.3035119,15.4697265 16.8047919,15.4728765 C16.8426319,15.4908765 16.8825319,15.5016765 16.9232319,15.5016765 C16.9641319,15.5016765 17.0043719,15.4909193 17.0425919,15.4729622 C17.9076719,15.4691693 18.8228519,15.410605 19.7665919,15.2613765 C19.7694719,15.2614193 19.7724919,15.2620622 19.7753919,15.2620622 C19.8720719,15.2620622 19.9667919,15.2457336 20.0583919,15.2124765 C20.0603319,15.2117693 20.0619919,15.2105479 20.0639119,15.2098193 C20.0719119,15.2067336 20.0793119,15.202555 20.0869519,15.1987836 C20.8876519,14.8728765 21.0801719,13.3372836 20.5302719,11.5970265 L20.5302919,11.5970265 Z M19.0625119,10.0727693 C19.4205119,10.486705 19.7400519,11.1012979 19.9619319,11.8033836 C20.4413319,13.3202908 20.2385919,14.4386693 19.8798719,14.5958908 C19.8366719,14.6033479 19.7941519,14.6082122 19.7510519,14.6152408 C19.5718119,14.6024265 19.3387319,14.4474765 19.1007919,14.1724408 C18.7427919,13.7585265 18.4234519,13.1441265 18.2015919,12.4418479 C17.9795119,11.7397622 17.8847919,11.043955 17.9345919,10.4820979 C17.9750119,10.0235908 18.1107519,9.70949076 18.2976719,9.64166933 C18.3257919,9.63142647 18.3560719,9.62641219 18.3882919,9.62641219 C18.4295319,9.62641219 18.4742919,9.63569076 18.5211519,9.65163362 C18.5261919,9.65317647 18.5311519,9.6548479 18.5362519,9.65609076 C18.6931719,9.71452647 18.8765719,9.85786219 19.0625119,10.0727693 Z M6.20157194,7.72252647 C6.35411194,7.24541933 6.58263194,6.84196219 6.73341194,6.68354076 L9.18449194,8.14256933 C9.04493194,8.41544076 8.93089194,8.68432647 8.84025194,8.92636219 L6.15865194,7.87301933 C6.17263194,7.82266219 6.18579194,7.77200504 6.20157194,7.72252647 Z M3.85137194,8.9100979 C3.96037194,8.41226933 4.15451194,7.98181219 4.27815194,7.8189979 L8.63927194,9.53210504 C8.58317194,9.72620504 8.55421194,9.85424076 8.54923194,9.87710504 C8.54531194,9.89506219 8.51787194,10.0250693 8.48717194,10.2290693 L3.78673194,10.0920336 C3.73773194,9.87166219 3.74415194,9.40019076 3.85139194,8.9100979 L3.85137194,8.9100979 Z M5.50685194,12.2742122 C5.43869194,12.0578479 5.40235194,11.5911979 5.46329194,11.0956408 C5.47365194,11.0119408 5.48673194,10.9276193 5.50217194,10.8445408 C5.50565864,10.8249593 5.5074529,10.8050752 5.50753194,10.7851408 L8.41603194,10.8699122 C8.39679194,11.1321336 8.38805194,11.4299693 8.40033194,11.7435979 L5.50685194,12.2742336 L5.50685194,12.2742122 Z M9.13321194,10.0239979 C9.13869194,9.99931219 9.68889194,7.55281219 11.1023519,6.93172647 C11.2406519,6.87108362 11.5362519,6.88844076 11.9624119,6.9798979 C11.6912119,7.22489076 11.3780519,7.5969979 11.1486519,8.14023362 C11.0804919,8.30197647 11.1474719,8.49241219 11.2984519,8.56565504 C11.3384919,8.58491933 11.3804919,8.59411219 11.4218919,8.59411219 C11.5361519,8.59411219 11.6453319,8.52380504 11.6955319,8.40515504 C12.0471119,7.57203362 12.6284919,7.24531219 12.7441119,7.18698362 C13.3764919,7.37883362 14.1600519,7.6641979 15.0585719,8.03861933 C14.8004119,8.31963362 14.4735119,8.8611979 14.2611519,9.8936479 C14.2254119,10.0671122 14.3277519,10.2385193 14.4894719,10.2767908 C14.5113519,10.2820408 14.5330319,10.2843336 14.5543119,10.2843336 C14.6922119,10.2843336 14.8162319,10.1822265 14.8470919,10.0321836 C15.1343919,8.63493362 15.6123319,8.37209076 15.6406519,8.35786219 C15.6663719,8.34787647 15.6892319,8.33343362 15.7106119,8.31723362 C16.0042919,8.44578362 16.3082119,8.5829479 16.6210319,8.72812647 C16.4656319,8.95064076 16.2701919,9.27592647 16.0654319,9.96290504 C16.0150519,10.1319765 16.1021719,10.3127908 16.2599719,10.3667908 C16.2902519,10.3772479 16.3211119,10.3820693 16.3511719,10.3820693 C16.4783319,10.3820693 16.5963119,10.295005 16.6369319,10.158355 C16.8416119,9.47156933 17.0215119,9.22274076 17.1660319,9.02268362 C17.1728319,9.01327647 17.1791719,9.00401933 17.1858919,8.9946979 C17.3737719,9.08480504 17.5638319,9.17701219 17.7571919,9.27262647 C17.5294519,9.51824076 17.3824919,9.90888362 17.3371319,10.4214122 C17.2797119,11.0713836 17.3847919,11.8621836 17.6332119,12.6481836 C17.8816519,13.4341836 18.2465119,14.1306122 18.6609519,14.6093908 C18.7013919,14.656105 18.7420519,14.6993479 18.7827719,14.7411765 C18.1939719,14.7996122 17.6188919,14.8268908 17.0640319,14.8299336 C16.9548519,14.6196765 16.7722319,14.1309336 16.7843919,13.2219765 C16.7867319,13.0445265 16.6543119,12.8984479 16.4886919,12.8959408 L16.4843919,12.8959408 C16.3207119,12.8959408 16.1867319,13.0367693 16.1843919,13.2127622 C16.1744319,13.9588408 16.2819919,14.4770479 16.4032919,14.8239122 C15.8252919,14.810305 15.2725319,14.7779908 14.7543719,14.7394193 C14.6097719,14.6629193 14.4411719,14.5952265 14.2492319,14.5371122 C14.2492919,14.5339622 14.2502319,14.5311336 14.2502319,14.5279836 C14.2502319,13.8221265 13.2680319,13.4377408 12.1808319,13.329055 C12.2013919,13.0200765 12.2395719,12.6849979 12.2972919,12.3273765 C12.3254119,12.1524336 12.2158319,11.9862765 12.0525519,11.9559336 C11.8906519,11.9264265 11.7341919,12.0431908 11.7058719,12.2181336 C11.6442119,12.6018122 11.6033919,12.9625622 11.5816319,13.2966765 C11.5627119,13.2965265 11.5436919,13.2956479 11.5248319,13.2956479 C11.2398119,13.2956479 10.9640319,13.3167765 10.6980319,13.3514265 C10.6614719,13.2861765 10.6189719,13.2325836 10.5742319,13.1914193 L9.92931194,12.597955 C9.91657194,12.586255 9.90283194,12.5768265 9.88895194,12.567805 C9.87531194,12.5525908 9.86197194,12.5360265 9.84787194,12.5230193 C9.64777194,12.3388408 9.37697194,12.3236479 9.07295194,12.4227336 C8.87067194,11.2657622 9.13039194,10.0371765 9.13321194,10.0240193 L9.13321194,10.0239979 Z M9.90525194,15.8918265 C9.97513194,15.7927193 10.0414719,15.6935265 10.1046519,15.5944836 C10.5271119,15.7016265 11.0139919,15.7601265 11.5248319,15.7601265 C12.3044119,15.7601265 13.1169319,15.6228336 13.6502319,15.3350479 L13.6502319,15.5537908 C13.6502319,15.7052908 12.9193519,16.1430765 11.5248319,16.1430765 C10.9072719,16.1430765 10.3234119,16.0503765 9.90523194,15.8918265 L9.90525194,15.8918265 Z M10.6291119,14.5792622 C10.7166719,14.3483265 10.7630719,14.1549336 10.7845719,13.9875765 C11.0223319,13.9573622 11.2688719,13.938505 11.5248319,13.938505 C12.9193519,13.938505 13.6502319,14.3764836 13.6502319,14.528005 C13.6502319,14.679505 12.9193519,15.1172908 11.5248319,15.1172908 C11.1375719,15.1172908 10.7675319,15.0813336 10.4361519,15.0143479 C10.5107919,14.8653336 10.5759519,14.7194908 10.6291119,14.5792622 Z M14.2502119,15.5537908 L14.2502119,15.207355 C14.6694119,15.3610622 14.7750119,15.5244979 14.7750119,15.5537908 C14.7750119,15.6361408 14.5573719,15.8028122 14.1362919,15.9380693 C14.2078919,15.8221622 14.2502119,15.6949836 14.2502119,15.5537908 Z M7.58361194,14.4432336 C8.41661194,13.4040336 9.16135194,12.9972336 9.39923194,12.9972336 C9.42363194,12.9972336 9.44279194,13.0014122 9.45607194,13.0097908 C9.56233194,13.1485193 9.33713194,14.0648908 8.41837194,15.2112336 C7.49983194,16.3571693 6.68907194,16.7344622 6.54591194,16.6446979 C6.43967194,16.5059479 6.66485194,15.5895765 7.58361194,14.4432336 Z M9.14475194,15.8794193 C8.22541194,17.0268122 7.41447194,17.403055 7.27131194,17.3120265 L7.10891194,17.1626693 C7.21149194,17.116255 7.32199194,17.0570908 7.44279194,16.9799265 C7.90373194,16.6854979 8.41173194,16.2060765 8.87345194,15.6301836 C9.33517194,15.0540765 9.70079194,14.4434479 9.90275194,13.9108622 C9.95649194,13.769155 9.99147194,13.6447193 10.0188319,13.527655 L10.1824319,13.6781693 C10.2886919,13.8171122 10.0634919,14.7332693 9.14475194,15.8794193 Z M12.6494319,17.1688836 C11.5881119,17.1688836 10.9123919,16.9154693 10.6494319,16.727455 C10.9261119,16.7655979 11.2209319,16.785955 11.5248319,16.785955 C11.7169519,16.785955 11.9108919,16.7766336 12.1025519,16.7598765 C12.1146319,16.7624479 12.1264919,16.7657265 12.1390719,16.7666908 C12.3052919,16.7794622 12.4769719,16.7859336 12.6494319,16.7859336 C13.4290719,16.7859336 14.2416719,16.6486408 14.7750319,16.3608336 L14.7750319,16.579405 C14.7750319,16.730905 14.0441519,17.168905 12.6494319,17.168905 L12.6494319,17.1688836 Z" id="path-1"></path>
    </defs>
    <g id="Symbols" stroke="none" stroke-width="1" fill="none" fill-rule="evenodd">
        <g id="product/carrot">
            <mask id="mask-2" fill="white">
                <use xlink:href="#path-1"></use>
            </mask>
            <use id="carrot" fill="#000000" fill-rule="nonzero" xlink:href="#path-1"></use>
            <rect id="🎨-color" fill="#EB690B" mask="url(#mask-2)" x="0" y="0" width="24" height="24"></rect>
        </g>
    </g>
</svg>