<?xml version="1.0" encoding="UTF-8"?>
<svg width="24px" height="24px" viewBox="0 0 24 24" version="1.1" xmlns="http://www.w3.org/2000/svg" xmlns:xlink="http://www.w3.org/1999/xlink">
    <!-- Generator: Sketch 48.2 (47327) - http://www.bohemiancoding.com/sketch -->
    <title>product/cheese</title>
    <desc>Created with Sketch.</desc>
    <defs>
        <path d="M19.4916,11.0020734 C19.1838,10.5242925 18.65722,10.2324794 18.08828,10.2324794 C17.8004192,10.2325278 17.517476,10.3080033 17.267,10.4515568 C16.9293,9.99709012 16.37676,9.7329425 15.7998,9.77783059 C15.6172695,9.53980433 15.3857932,9.3447676 15.1214,9.20622583 L18.77186,5.99541154 C19.05818,5.75773535 19.2328,5.40674607 19.25116,5.03250321 C19.26932,4.6581794 19.12948,4.29158654 18.86756,4.0266294 C18.60586,3.76173297 18.2455,3.6222925 17.87344,3.63858416 C17.50352,3.65708178 17.15684,3.83376035 16.92734,4.11707345 L12.5049,9.27424607 C12.18392,9.1438925 11.82746,9.11590321 11.4875,9.20051869 C11.17382,8.8746044 10.74864,8.69138892 10.29238,8.69138892 C9.78964,8.69138892 9.32638,8.91384607 9.01054,9.2970544 C8.80846511,9.23019202 8.59718349,9.19620776 8.38458,9.19636988 C7.77128,9.19636988 7.19708,9.47393535 6.81152,9.94797226 C6.1414,9.84935202 5.492,10.1751651 5.1498,10.738027 C5.12326149,10.736658 5.09669297,10.7359697 5.07012,10.7359627 C4.07472,10.7359627 3.2601,11.5246615 3.1991,12.5165306 C3.19519464,12.5361322 3.19320506,12.5560751 3.19316,12.5760711 C3.19316,12.5784389 3.1935,12.5938604 3.19416,12.614908 C3.1941,12.6217282 3.19316,12.6283056 3.19316,12.6351461 C3.19316,12.646277 3.19526,12.6568008 3.1964,12.667608 C3.20846,12.9159496 3.2698,13.6551461 3.56518,14.5808163 C3.55375889,14.6727332 3.58470742,14.7648635 3.64912,14.8306961 C4.27892,16.6092806 5.77916,18.9340711 9.35782,19.831327 C9.3795,19.8477401 9.41836,19.8868806 9.44512,19.913858 C9.54042,20.0095032 9.65918,20.1285842 9.82442,20.161208 C10.50118,20.2949008 11.23322,20.3626984 12,20.3626984 C12.8338,20.3626984 13.6258,20.2824544 14.3539,20.124233 C14.51874,20.0884723 14.64042,19.9681973 14.7381,19.8715604 C14.76894,19.8409199 14.81446,19.7959711 14.8379,19.7798615 C20.7381,18.1573532 20.80684,12.6317056 20.80684,12.5760711 C20.80684,11.8273223 20.34102,11.2719484 19.4916,11.0020734 Z M19.89186,14.3753592 C18.86252,15.0555615 15.84346,15.4777687 12,15.4777687 C7.95872,15.4777687 5.1064,15.0987092 4.1248,14.4352437 C4.03749179,14.1603764 3.96613676,13.8805798 3.9111,13.5972854 C5.11198,14.3152318 7.8177,14.6783639 12,14.6783639 C14.39004,14.6783639 16.54668,14.5126342 18.07266,14.2117342 C18.97154,14.0344484 19.64314,13.8157354 20.0966,13.5527211 C20.0440413,13.8306958 19.9756811,14.1053714 19.89186,14.3753794 L19.89186,14.3753592 Z M17.38594,4.50847821 C17.51542,4.34879964 17.69902,4.25521869 17.90294,4.24503892 C18.1045,4.23536512 18.29882,4.30957821 18.44336,4.45591988 C18.5879,4.6020794 18.66192,4.79626392 18.65176,5.0026925 C18.6418,5.20912107 18.54922,5.39490678 18.38476,5.53157464 L12.63652,10.587233 C12.3711,10.8209223 12.26972,11.1984234 12.38458,11.526483 C12.48768,11.8217568 12.45756,12.1040782 12.39748,12.321152 C12.35816,12.3268187 12.31888,12.3329711 12.27968,12.3423413 C11.93398,12.022377 11.46738,11.8673127 10.99608,11.9238377 C10.8438104,11.9418331 10.6948914,11.9819035 10.5539,12.0428175 C10.26972,11.7892342 9.89454,11.6679068 9.50938,11.7139484 C9.42091806,11.7245239 9.33369832,11.743877 9.24898,11.7717282 C9.39291645,11.5544634 9.55737591,11.3518658 9.74004,11.1667913 C10.07598,10.8269532 10.7418,10.2974842 11.43282,10.5650723 C11.77402,10.6972068 12.1623,10.5999627 12.39962,10.3233687 L17.38592,4.50851869 L17.38594,4.50847821 Z M5.07012,11.3430854 C5.13066,11.3430854 5.19688,11.3490354 5.27246,11.3612996 C5.40526,11.3834199 5.53846,11.3107044 5.59394,11.184702 C5.8041,10.7058282 6.32794,10.4308127 6.85918,10.5772556 C6.98375609,10.6116569 7.11610628,10.5614979 7.1877,10.4527508 C7.45566,10.046208 7.90292,9.80351273 8.38458,9.80351273 C8.59376,9.80351273 8.79786,9.84975678 8.99082,9.94096988 C9.12988,10.0062782 9.29472,9.95568297 9.37422,9.8234675 C9.57148,9.49480083 9.91484,9.29853178 10.29238,9.29853178 C10.63144,9.29853178 10.94376,9.45675321 11.1496,9.73243654 C11.2303301,9.84058754 11.3721073,9.88151973 11.49708,9.83275678 C11.68434,9.75963654 11.88256,9.74536869 12.07178,9.77932821 L11.94648,9.92544726 C11.87422,10.0102449 11.75352,10.0391854 11.64746,9.99818297 C10.90156,9.70853535 10.07326,9.97100321 9.31582,10.7374401 C8.90098,11.1572187 8.56914,11.6533961 8.35606,12.1723818 C8.35162,12.1832294 8.34936,12.1943199 8.34624,12.2053294 C7.97764,12.2495901 7.65158,12.4400306 7.42812,12.7417806 C7.32872,12.8759794 7.35566,13.0661973 7.48828,13.1666996 C7.6207,13.2674044 7.80878,13.2401234 7.9082,13.1058234 C8.03242,12.938252 8.21308,12.8326092 8.4172,12.8081818 C8.50742,12.7974151 8.59902,12.804033 8.68984,12.8275496 C8.81934,12.8610639 8.95586,12.8038508 9.02344,12.686733 C9.14316,12.4796163 9.3459,12.3448306 9.57968,12.3169627 C9.8375,12.2853306 10.09238,12.3928556 10.25508,12.6036354 C10.34922,12.7258734 10.51914,12.7563115 10.64922,12.6749746 C10.77812,12.5942449 10.91856,12.5444389 11.06622,12.526852 C11.40528,12.4865377 11.742,12.6200484 11.96504,12.8848639 C12.04864,12.9844758 12.18632,13.0187794 12.30546,12.9695604 C12.36954,12.9434734 12.43438,12.9263723 12.49786,12.9187627 C12.78906,12.8839937 13.07636,13.0273604 13.22696,13.2845056 C13.283,13.3801508 13.38282,13.4332151 13.48516,13.4332151 C13.5373,13.4332151 13.59004,13.4195746 13.6379,13.3907151 C13.78046,13.3052496 13.82754,13.1190794 13.74296,12.974802 C13.57316,12.6847496 13.30704,12.4751234 13.00244,12.3741961 C13.08238,12.0140794 13.06614,11.656027 12.9502,11.3240413 C12.917,11.2288615 12.94902,11.1168032 13.03028,11.0454639 L14.62022,9.64701154 C14.63064,9.65203059 14.64056,9.65773773 14.65176,9.66158297 C14.96152,9.76831869 15.2293,9.98276154 15.40566,10.2653865 C15.47186,10.3716163 15.59492,10.4252675 15.71758,10.4011639 C16.21192,10.3018556 16.7,10.5651937 16.9041,11.0147223 C16.9438694,11.1021227 17.0221817,11.1653112 17.11524,11.1850865 C17.2082385,11.2046227 17.304893,11.1785828 17.37598,11.1148401 C17.57344,10.937352 17.82638,10.839602 18.08828,10.839602 C18.48124,10.839602 18.84258,11.0565342 19.03164,11.4057627 C19.0707278,11.4780917 19.1372212,11.5312096 19.21582,11.5528937 C19.87342,11.734227 20.20682,12.0783758 20.20682,12.5760104 L20.20682,12.5761115 C20.20674,13.1969354 17.66064,14.0712211 12,14.0712211 C6.0429,14.0712211 3.85688,13.282583 3.79456,12.6071973 C3.80948,11.907708 4.37536,11.3431258 5.07012,11.3431258 L5.07012,11.3430854 Z M14.66738,19.1975306 C14.5205,19.2377639 14.41328,19.3437913 14.31876,19.4372711 C14.28614,19.4695913 14.23808,19.5171104 14.2129,19.5339282 C13.53028,19.6810592 12.78594,19.7555758 12,19.7555758 C11.2795,19.7555758 10.59336,19.6929187 9.95996,19.5693854 C9.93692,19.552183 9.8961,19.5111806 9.86776,19.4829282 C9.7748,19.3895496 9.66954,19.2836032 9.52032,19.2465473 C6.56972,18.5124306 5.14074,16.7834496 4.44718,15.2686282 C6.16424,15.931952 9.39224,16.0849115 12,16.0849115 C15.40814,16.0849115 18.1357,15.7608996 19.57868,15.2018627 C18.90948,16.6943615 17.52736,18.4152675 14.66738,19.1974901 L14.66738,19.1975306 Z M15.7924,12.6583996 C15.88828,12.5466246 16.02636,12.4825913 16.17148,12.4825913 C16.34454,12.4825913 16.50312,12.5715175 16.59608,12.7205306 C16.65312,12.8121484 16.7504,12.8622377 16.85,12.8622377 C16.90468,12.8622377 16.96016,12.8471199 17.00976,12.8154877 C17.15,12.7260758 17.192,12.5386306 17.10352,12.396802 C16.9002,12.0703008 16.55176,11.8754484 16.17148,11.8754484 C15.85234,11.8754484 15.54902,12.0157592 15.33926,12.2605389 C15.23066,12.3872294 15.24414,12.5789246 15.36914,12.6887163 C15.49454,12.7988115 15.68418,12.7846651 15.79238,12.6583794 L15.7924,12.6583996 Z M5.76406,12.6141187 C5.8041,12.6324949 5.8461,12.641177 5.8875,12.641177 C6.00176,12.641177 6.11094,12.5747961 6.16094,12.4626163 C6.18856578,12.4005266 6.24142713,12.3535986 6.30586,12.3339627 C6.38282,12.3111342 6.46406,12.3292068 6.525,12.382777 C6.6498,12.4931556 6.83906,12.4799199 6.94824,12.3537151 C7.05724,12.2274294 7.04434,12.0357139 6.91954,11.9254365 C6.70234,11.7336401 6.40782,11.6693032 6.13418,11.7521984 C5.90317721,11.8220675 5.71353852,11.9899933 5.61446,12.2124127 C5.5461,12.3650889 5.61308,12.5449246 5.76406,12.6141187 Z" id="path-1"></path>
    </defs>
    <g id="Symbols" stroke="none" stroke-width="1" fill="none" fill-rule="evenodd">
        <g id="product/cheese">
            <mask id="mask-2" fill="white">
                <use xlink:href="#path-1"></use>
            </mask>
            <use id="cheese" fill="#000000" fill-rule="nonzero" xlink:href="#path-1"></use>
            <rect id="🎨-color" fill="#EB690B" mask="url(#mask-2)" x="0" y="0" width="24" height="24"></rect>
        </g>
    </g>
</svg>