<?xml version="1.0" encoding="UTF-8"?>
<svg width="24px" height="24px" viewBox="0 0 24 24" version="1.1" xmlns="http://www.w3.org/2000/svg" xmlns:xlink="http://www.w3.org/1999/xlink">
    <!-- Generator: Sketch 48.2 (47327) - http://www.bohemiancoding.com/sketch -->
    <title>product/cookie</title>
    <desc>Created with Sketch.</desc>
    <defs>
        <path d="M5.88196324,6.68146624 C5.87823108,6.66195233 5.87232879,6.6429506 5.86437411,6.62484005 C5.85846541,6.60656505 5.84872193,6.58839124 5.83897846,6.57218053 C5.82731759,6.55599005 5.81546106,6.53986029 5.80170672,6.52563291 C5.78814802,6.51150672 5.77247628,6.49934362 5.75680454,6.48718053 C5.74115237,6.4771222 5.72356324,6.46694243 5.70599367,6.46091148 C5.68842979,6.45274107 5.67003394,6.4466381 5.65115237,6.44271743 C5.61373164,6.43461655 5.57509483,6.43461655 5.53767411,6.44271743 C5.5187999,6.44666735 5.50040714,6.4527693 5.4828328,6.46091148 C5.46332628,6.46694243 5.44767411,6.47710196 5.43200237,6.48720077 C5.41578912,6.49837672 5.4007411,6.51126322 5.38710019,6.52565315 C5.37334585,6.53986029 5.36148932,6.55596981 5.34984802,6.57218053 C5.34010454,6.58837101 5.33036106,6.60658529 5.32251541,6.62484005 C5.31658715,6.6430341 5.31067846,6.66120791 5.30686324,6.68146624 C5.30290844,6.70076147 5.30092148,6.72043262 5.30093498,6.74015672 C5.30093498,6.8211091 5.33225889,6.89807458 5.38710019,6.95470077 C5.40065889,6.96882696 5.41441324,6.98101029 5.43200237,6.99315315 C5.44765454,7.00333291 5.46332628,7.01339124 5.4828328,7.02150672 C5.50059802,7.02960196 5.51816759,7.03364958 5.53765454,7.0376972 C5.55524367,7.04176505 5.57492628,7.04374839 5.59439367,7.04374839 C5.61390019,7.04374839 5.6335828,7.04176505 5.65115237,7.03771743 C5.67063932,7.03366981 5.68840454,7.0296222 5.70599367,7.02150672 C5.72354448,7.01328305 5.74052224,7.00380909 5.75680454,6.99315315 C5.77247628,6.98101029 5.78814802,6.96882696 5.80170672,6.95470077 C5.85683811,6.89787033 5.88784656,6.82068675 5.8878915,6.74017696 C5.8878915,6.71991862 5.88597411,6.70172458 5.88196324,6.68148648 L5.88196324,6.68146624 Z M6.37702193,8.98858886 C6.38484802,8.96843172 6.39077628,8.95013648 6.3945915,8.92989839 C6.39864632,8.91064701 6.40063445,8.89099149 6.40051976,8.87128886 C6.40051976,8.85105077 6.39860237,8.83275553 6.3945915,8.81259839 C6.39085164,8.79305644 6.38495657,8.77402285 6.37702193,8.75587101 C6.36919585,8.7376972 6.36135019,8.71950315 6.34968932,8.70331267 C6.33975019,8.68710196 6.32810889,8.67089124 6.31435454,8.65676505 C6.24593498,8.58591148 6.14409802,8.55349005 6.0502828,8.57374839 C6.03079585,8.57779601 6.01303063,8.58382696 5.99354367,8.59194243 C5.97597411,8.59805434 5.9602828,8.60813291 5.94463063,8.62029601 C5.92706106,8.63037458 5.91328715,8.64253767 5.8995328,8.65676505 C5.84488715,8.71339124 5.81356324,8.79234005 5.81356324,8.87128886 C5.81356324,8.95224124 5.84488715,9.02910553 5.8995328,9.08573172 C5.95451914,9.14276075 6.02917536,9.17482689 6.1070415,9.17486029 C6.18326759,9.17486029 6.25970889,9.1424591 6.31435454,9.08573172 C6.32810889,9.07160553 6.33975019,9.05747934 6.34968932,9.0391841 C6.36135019,9.02307458 6.36917628,9.0068841 6.37702193,8.98858886 Z M6.88965019,10.8870031 C6.88182411,10.8687281 6.87397846,10.8505341 6.86231759,10.8343234 C6.85239802,10.8181329 6.84073715,10.8019222 6.8269828,10.7877758 C6.81340454,10.7736496 6.79775237,10.7615067 6.78208063,10.751327 C6.76640889,10.7392651 6.74881976,10.7311698 6.73105454,10.7230543 C6.71356082,10.7148587 6.69522994,10.7087283 6.67640889,10.7047793 C6.58050019,10.6846222 6.47885889,10.7190067 6.41218063,10.787796 C6.39860237,10.8019222 6.38674585,10.8181329 6.37510454,10.8343436 C6.36536106,10.8505341 6.35542193,10.8687281 6.34759585,10.8870031 C6.33976976,10.905177 6.33593498,10.923371 6.33211976,10.9436293 C6.32826614,10.9629409 6.32628027,10.9826013 6.3261915,11.0023198 C6.3261915,11.0832722 6.35753498,11.1601365 6.41218063,11.2168436 C6.42593498,11.2310103 6.43968932,11.2452174 6.45536106,11.255296 C6.47293063,11.2653746 6.48860237,11.2755543 6.50617193,11.2836698 C6.52376106,11.2917651 6.54324802,11.2958127 6.56101324,11.2998603 C6.58050019,11.3039079 6.59998715,11.3058912 6.61966976,11.3058912 C6.63723932,11.3058912 6.65674585,11.3039281 6.67640889,11.2998603 C6.69589585,11.2958127 6.71348498,11.2917651 6.73105454,11.2836698 C6.74883932,11.2755746 6.76640889,11.2653746 6.78208063,11.255296 C6.7977328,11.2452174 6.81340454,11.2310103 6.8269828,11.2168436 C6.8820906,11.1599985 6.91308888,11.0828227 6.91314802,11.0023198 C6.91314802,10.984146 6.91123063,10.9638674 6.90721976,10.9436293 C6.90349998,10.9241172 6.89761085,10.9051155 6.88966976,10.8870031 L6.88965019,10.8870031 Z M7.05988715,6.54795553 C7.06773533,6.5297764 7.07362726,6.51075975 7.07745672,6.49124839 C7.0812915,6.47305434 7.08338498,6.45279601 7.08338498,6.43255791 C7.08338498,6.35358886 7.05206106,6.27474124 6.99721976,6.21801386 C6.8877328,6.10468053 6.69208063,6.10468053 6.58241759,6.21801386 C6.52777193,6.27474124 6.49642846,6.3536091 6.49642846,6.43253767 C6.49642846,6.45279601 6.49834585,6.47305434 6.50216106,6.49122815 C6.50617193,6.51150672 6.51210019,6.52968053 6.51781324,6.54797577 C6.52565889,6.56813291 6.53542193,6.58432339 6.5453415,6.6005341 C6.55700237,6.61872815 6.56883932,6.63295553 6.58241759,6.64708172 C6.63723932,6.70370791 6.71348498,6.73612934 6.78990672,6.73612934 C6.86615237,6.73612934 6.94237846,6.70370791 6.99721976,6.64708172 C7.0111346,6.6329161 7.02361657,6.61731954 7.03447193,6.6005341 C7.04421541,6.58434362 7.05395889,6.56813291 7.05988715,6.54797577 L7.05988715,6.54795553 Z M7.59010454,8.50497934 C7.58627018,8.48546027 7.58037166,8.46643673 7.57251541,8.44825196 C7.56658715,8.43007815 7.55686324,8.4118841 7.54710019,8.39567339 C7.53526324,8.37948291 7.52362193,8.3632722 7.50984802,8.34912577 C7.49609367,8.33489839 7.48042193,8.32275553 7.46475019,8.31069362 C7.44929367,8.30051386 7.43150889,8.29045553 7.41393932,8.28430315 C7.39644218,8.27614045 7.37811122,8.27004402 7.35929367,8.26612934 C7.32186664,8.25802563 7.28322288,8.25802563 7.24579585,8.26612934 C7.2269077,8.27001412 7.20850872,8.27611134 7.19095454,8.28430315 C7.17127193,8.29043529 7.15579585,8.30051386 7.14014367,8.31069362 C7.12382567,8.32180702 7.10870665,8.33469815 7.09504585,8.34914601 C7.04020454,8.40575196 7.00905672,8.48472101 7.00905672,8.56366981 C7.00905672,8.58382696 7.01097411,8.60408529 7.01478932,8.62236029 C7.01880019,8.64253767 7.0245328,8.66081267 7.03046106,8.68096981 C7.03828715,8.69924481 7.04805019,8.71545553 7.05796976,8.73156505 C7.06963063,8.74984005 7.0812915,8.76398648 7.09504585,8.77811267 C7.14988715,8.83484005 7.2261328,8.86724124 7.30253498,8.86724124 C7.37878063,8.86724124 7.45500672,8.83484005 7.50984802,8.77811267 C7.56468932,8.72357101 7.59601324,8.64460196 7.59601324,8.56366981 C7.59601324,8.54343172 7.59391976,8.52513648 7.59010454,8.50497934 Z M8.08514367,10.5793841 C8.07923498,10.5610889 8.0694915,10.5429151 8.05763498,10.5267043 C8.04766324,10.5098571 8.03586754,10.4942404 8.02247628,10.4801567 C8.00880707,10.4663405 7.99368702,10.4541489 7.97739802,10.4438091 C7.96172628,10.431646 7.94413715,10.4235508 7.92656759,10.4154353 C7.90901699,10.4072102 7.89061804,10.4010791 7.87172628,10.3971603 C7.77601324,10.3770031 7.67415672,10.4093031 7.60767411,10.4801567 C7.59391976,10.4944043 7.58225889,10.5105139 7.57042193,10.5267043 C7.56067846,10.5429151 7.55093498,10.5611091 7.54308932,10.5793841 C7.53718063,10.5975579 7.53144802,10.615752 7.52743715,10.6360103 C7.52367763,10.6553369 7.52169271,10.6749878 7.52150889,10.6947008 C7.52150889,10.7149591 7.52360237,10.7352174 7.52741759,10.7553746 C7.53144802,10.7736496 7.53718063,10.7939079 7.54308932,10.812102 C7.55091541,10.8302758 7.56067846,10.8464865 7.57042193,10.8646603 C7.58225889,10.880871 7.59390019,10.8950984 7.60767411,10.9092448 C7.66251541,10.9658508 7.73684367,10.9982722 7.81498715,10.9982722 C7.83466976,10.9982722 7.85223932,10.9962889 7.87172628,10.9922412 C7.89140889,10.990177 7.90897846,10.984146 7.92656759,10.9760508 C7.94410691,10.9677824 7.96108871,10.958303 7.97739802,10.947677 C7.99305019,10.9375984 8.00872193,10.923371 8.02247628,10.9092246 C8.07753774,10.8523622 8.10847448,10.7751819 8.10846541,10.6947008 C8.10846541,10.676527 8.10654802,10.6562484 8.1027328,10.6360103 C8.09891239,10.6165201 8.09301326,10.5975285 8.08514367,10.5793841 Z M8.19271324,5.91039481 C8.12623063,5.83964243 8.02249585,5.80722101 7.92848498,5.82747934 C7.90966743,5.83139402 7.89133647,5.83749045 7.87383932,5.84565315 C7.85605454,5.8516841 7.83848498,5.86186386 7.82281324,5.87196267 C7.80716106,5.88410553 7.79166541,5.89624839 7.77791106,5.91039481 C7.72306976,5.96710196 7.69174585,6.04596981 7.69174585,6.12491862 C7.69174585,6.14517696 7.69383932,6.16543529 7.69767411,6.1836091 C7.70168498,6.20388767 7.70741759,6.22206148 7.71524367,6.24033648 C7.72117193,6.26049362 7.73089585,6.27670434 7.74065889,6.29291505 C7.75249585,6.31108886 7.76415672,6.32533648 7.77791106,6.33946267 C7.79166541,6.35358886 7.8071415,6.36575196 7.82281324,6.37791505 C7.83846541,6.38807458 7.85607411,6.39815315 7.87383932,6.40624839 C7.89140889,6.41227934 7.90897846,6.41841148 7.92848498,6.4224591 C7.94814802,6.42650672 7.96573715,6.42849005 7.98522411,6.42849005 C8.06356324,6.42849005 8.13978932,6.39619005 8.19271324,6.33944243 C8.24735889,6.28283648 8.27870237,6.20388767 8.27870237,6.12491862 C8.27870237,6.04596981 8.24735889,5.96710196 8.19271324,5.91039481 Z M8.76992628,8.14063291 C8.76190617,8.12248886 8.75271588,8.10492307 8.74241759,8.08805434 C8.73075672,8.07186386 8.71891976,8.05565315 8.70536106,8.04150672 C8.63676541,7.97067339 8.53510454,7.93825196 8.44111324,7.95851029 C8.42229569,7.96242498 8.40396473,7.9685214 8.38646759,7.9766841 C8.36870237,7.98281624 8.35111324,7.99289481 8.3354415,8.00307458 C8.31978932,8.01521743 8.30411759,8.02727934 8.29053932,8.04152696 C8.27678498,8.05565315 8.26514367,8.07184362 8.25328715,8.08807458 C8.24354367,8.10426505 8.23380019,8.12243886 8.22787193,8.14063291 C8.21993746,8.15878482 8.2140424,8.17781839 8.21030237,8.19736029 C8.20634757,8.21665552 8.20436061,8.23632666 8.20437411,8.25605077 C8.20437411,8.33698291 8.23571759,8.41386743 8.29053932,8.47057458 C8.30411759,8.48472101 8.31978932,8.4968841 8.3354415,8.50902696 C8.35111324,8.51910553 8.36870237,8.5291841 8.38646759,8.53727934 C8.40403715,8.54341148 8.42162628,8.54944243 8.44111324,8.55349005 C8.4586828,8.55753767 8.47836541,8.5596222 8.49785237,8.5596222 C8.65985995,8.55943259 8.79114733,8.42363004 8.79133063,8.25605077 C8.79133063,8.23579243 8.78941324,8.21759839 8.78540237,8.19736029 C8.78158715,8.17710196 8.77565889,8.15890791 8.76994585,8.14063291 L8.76992628,8.14063291 Z M13.2663067,14.1859746 C13.3216786,14.2569249 13.4051306,14.2981252 13.4932828,14.2980329 C13.5576719,14.2980329 13.622648,14.2760948 13.6769024,14.2312472 C13.8030002,14.1268793 13.8232502,13.9361758 13.7233306,13.8051139 C13.6994611,13.7738865 13.1455502,13.0284162 13.7644176,12.163946 C13.8023545,12.1110031 13.8482741,12.0640912 13.8977937,12.0198103 C14.3220263,11.7022341 14.9923698,11.8472805 15.2429024,12.1045472 C15.365185,12.2301448 15.3162719,12.2985293 15.2803306,12.3485377 C15.2570285,12.3813234 15.2247263,12.406621 15.1962589,12.4147365 C15.1828958,12.4179139 15.1706676,12.4202817 15.1467785,12.4019055 C15.1414372,12.3977365 15.1374263,12.3939924 15.1343545,12.3912198 C15.1752458,12.2465579 15.1066502,12.0896317 14.9694785,12.0280674 C14.8210176,11.9607758 14.6481002,12.0317103 14.5833198,12.1854793 C14.500598,12.3823353 14.5323132,12.686696 14.7975198,12.8896639 C14.9132872,12.9786103 15.0455089,13.0242472 15.180998,13.0242472 C15.2371502,13.0242472 15.294085,13.0163543 15.350648,13.000346 C15.506935,12.9562674 15.6496632,12.8530936 15.7520872,12.7098079 C15.9909198,12.3764055 15.954235,11.9793543 15.6563545,11.6736174 C15.5394719,11.5537067 15.3887415,11.4539329 15.2182306,11.3796591 C15.998785,11.0074805 16.7162219,10.3547615 16.3541285,8.38361148 C16.3239393,8.21889362 16.1705089,8.1103972 16.0109741,8.14211029 C15.8518111,8.17343886 15.7472937,8.33234839 15.7774828,8.49708648 C16.1250393,10.3881746 15.3773937,10.6821531 14.5120632,11.022477 C14.1674219,11.1580722 13.8143285,11.2979174 13.5329806,11.541746 C13.5324915,11.5421103 13.5319828,11.5423936 13.5314937,11.5427579 C13.5154267,11.5552962 13.5006431,11.5695032 13.4873741,11.5851567 C13.4175654,11.6505662 13.3512589,11.7210151 13.2928567,11.8025543 C12.5775132,12.8017091 12.9626937,13.7983948 13.2663067,14.1859746 Z M10.1882285,15.255396 C9.84067193,13.3641865 10.5883176,13.0702889 11.453648,12.7297829 C11.7982698,12.5943901 12.1511089,12.4545853 12.4323589,12.2109793 C12.4329458,12.2105139 12.4336306,12.2102508 12.434198,12.2097853 C12.4508285,12.1968329 12.4656198,12.1823424 12.4787872,12.1667591 C12.5484002,12.1014508 12.6145698,12.0311639 12.6728545,11.9498067 C13.3883937,10.9507329 13.0030176,9.95394601 12.6994045,9.56648767 C12.5973719,9.43615434 12.4122263,9.41607815 12.2866958,9.5218222 C12.1607937,9.62736386 12.1415024,9.8184722 12.2435154,9.94872458 C12.2675806,9.9795472 12.8276154,10.7135829 12.2012937,11.5884151 C12.1632785,11.6414591 12.1172806,11.6884317 12.0676437,11.7327936 C11.6692567,12.0294031 11.0420741,11.8935651 10.8074676,11.6528531 C10.699898,11.5424746 10.7388719,11.4881151 10.7730719,11.4401912 C10.7791958,11.4315901 10.8332545,11.3567901 10.8804458,11.3922674 C10.8818411,11.3933191 10.8831862,11.3944403 10.8844763,11.395627 C10.8491219,11.5375365 10.9175219,11.6890186 11.0514654,11.7494901 C11.200298,11.8164781 11.3732154,11.746252 11.4378002,11.5925639 C11.5189958,11.4000793 11.488435,11.1026198 11.2297241,10.9043877 C10.9343285,10.6780043 10.5350024,10.7527031 10.3015306,11.0788198 C10.0697611,11.402346 10.1052915,11.7874365 10.3939958,12.0838031 C10.5002154,12.1928865 10.6366045,12.2833508 10.7896437,12.3533746 C9.99308498,12.7223151 9.24299367,13.3623043 9.6115828,15.3688508 C9.63832846,15.514302 9.76137411,15.6156746 9.89952411,15.6156746 C9.91766106,15.6156746 9.93620889,15.6138936 9.95473715,15.610352 C10.1139002,15.5791246 10.2184176,15.4202151 10.1882285,15.2553758 L10.1882285,15.255396 Z M13.6683132,5.80653291 C13.7512306,5.80653291 13.8339524,5.77046862 13.8920415,5.70048529 C13.8926285,5.69971624 13.9549045,5.62540196 14.0617111,5.54574481 C14.1544111,5.47663172 14.1953024,5.36198291 14.1788676,5.25261624 C14.2444111,5.33688767 14.3503958,5.3833341 14.4591393,5.36303529 C14.6933741,5.31964481 14.9243806,5.38507458 15.1647393,5.5642222 C15.2167045,5.60287696 15.2767111,5.62143529 15.3361306,5.62143529 C15.4272654,5.62143529 15.5170698,5.57766029 15.5743958,5.49525077 C15.6691502,5.35916981 15.6393524,5.16953886 15.5078937,5.07150553 C15.1364676,4.79491148 14.7484111,4.69165672 14.3548176,4.76556624 C14.1981785,4.79487101 14.0940524,4.9477091 14.1174132,5.10933053 C14.0201741,4.98516981 13.8455154,4.95865791 13.7185567,5.05323053 C13.5517632,5.17755315 13.4539372,5.29592577 13.4434306,5.30908053 C13.3396763,5.43694481 13.3559154,5.62667696 13.4789611,5.73468767 C13.5339785,5.78301624 13.6012437,5.80653291 13.6683132,5.80653291 Z M20.9175589,8.8350222 C20.9026698,8.03114481 20.0228024,7.35689243 19.3158524,6.81526029 L18.9548154,6.53852458 C18.4672893,6.12374481 17.9521176,5.7078722 17.4227611,5.30226029 C16.892348,4.89591981 16.3546958,4.50518291 15.8248698,4.14093767 C14.8577024,3.47589362 13.5806024,3.67789005 12.8547524,4.61210077 C12.2610067,5.3763722 11.4165915,6.48141267 10.4482893,7.8011591 C10.4250263,7.77385791 10.4010002,7.74809481 10.3756632,7.72510434 C10.4394654,7.55621743 10.458385,7.3249972 10.3825306,7.00885791 C10.3066763,6.69342696 10.185548,6.49845315 10.0527589,6.38026267 C10.0587652,6.36409107 10.0642466,6.34771603 10.0691937,6.33116505 C10.1246024,6.14657339 10.1215306,5.92342815 10.0601937,5.66788172 C9.99868063,5.41243648 9.90028715,5.21381981 9.76788932,5.07763767 C9.75598765,5.0654087 9.74368028,5.05360957 9.73098932,5.04226148 C9.79481106,4.87347577 9.81355454,4.64243767 9.73768063,4.32690553 C9.67653932,4.07295791 9.52866541,3.85634958 9.32115672,3.71711148 C9.10734802,3.57372458 8.8564828,3.52885672 8.61516541,3.59102815 C8.36658932,3.65494005 8.17573063,3.77035791 8.05207846,3.92293291 C7.87364367,3.84805196 7.65275237,3.83854005 7.40400019,3.90259362 C7.15542411,3.96652577 6.96454585,4.08194362 6.84091324,4.23451862 C6.66247846,4.15961743 6.44158715,4.15022696 6.19283498,4.2141591 C5.94425889,4.27811148 5.75338063,4.39352934 5.62974802,4.54610434 C5.45131324,4.4712841 5.23061759,4.46181267 4.98184585,4.52574481 C4.73326976,4.58967696 4.54221541,4.70509481 4.4185828,4.85766981 C4.24012846,4.78297101 4.01945237,4.77327696 3.77068063,4.83731029 C3.52916759,4.89948172 3.32797846,5.06053648 3.20397411,5.29088648 C3.08378498,5.51441624 3.05130672,5.77749124 3.11225237,6.03154005 C3.17378498,6.28698529 3.27217846,6.4856222 3.40459585,6.6217841 C3.41662846,6.63412934 3.42885672,6.64588767 3.44147628,6.65716029 C3.37765454,6.82594601 3.35891106,7.0569841 3.43478498,7.37251624 C3.49629802,7.62796148 3.59471106,7.82657815 3.72710889,7.96276029 C3.7391415,7.97510553 3.75136976,7.98686386 3.76379367,7.99803529 C3.70016759,8.1669222 3.68124802,8.3978591 3.75710237,8.71349243 C3.83315237,9.02900434 3.95430019,9.22397815 4.08708932,9.34226981 C4.08106799,9.35837429 4.07558646,9.37468918 4.07065454,9.39118529 C4.01524585,9.57577696 4.01829802,9.79890196 4.07963498,10.0544484 C4.14114802,10.3098936 4.23956106,10.5085305 4.37195889,10.6446924 C4.3839915,10.6570377 4.39621976,10.6688162 4.40864367,10.6799877 C4.34501759,10.8488543 4.32609802,11.0798924 4.40214802,11.3955258 C4.47800237,11.7108555 4.59915019,11.9057281 4.73193932,12.0240198 C4.72593297,12.0401914 4.72045164,12.0565665 4.71550454,12.0731174 C4.66009585,12.2576281 4.66314802,12.4807531 4.72448498,12.7362996 C4.83414802,13.1916567 5.21858498,13.499377 5.63510889,13.499377 C5.70523063,13.499377 5.77631106,13.4906746 5.84700019,13.4722984 C6.09557628,13.4084674 6.28643498,13.2930496 6.41008715,13.1404746 C6.48956106,13.1736651 6.57868063,13.1918186 6.67374802,13.1985377 C6.54082314,13.3979293 6.4084118,13.5976868 6.27651541,13.7978079 C5.62632411,14.7848198 5.8055415,16.1026639 6.69343063,16.8635555 C7.21942193,17.3139746 7.74065889,17.7373151 8.24260454,18.1219198 C8.74519585,18.5070912 9.28652628,18.8979091 9.85164802,19.2836877 L10.2105719,19.5585615 C10.8311611,20.0342579 11.6590437,20.4362674 12.3228328,20.4362674 C12.4831306,20.4362674 12.6340567,20.4127508 12.7700937,20.3611639 C12.9861915,20.2791389 13.1512828,20.1330805 13.2575219,19.9326829 C13.5192654,19.9218151 13.806248,19.7502567 14.019685,19.4520281 C14.1730958,19.2377877 14.2569915,18.9992412 14.2634676,18.7816412 C14.4627589,18.7118805 14.6591741,18.5593055 14.8122132,18.3452472 C14.964685,18.1326055 15.049735,17.8940389 15.0573654,17.6762567 C15.2566372,17.6050996 15.4526806,17.4511484 15.6047611,17.2386889 C15.7572328,17.0258246 15.8424589,16.7874805 15.8491306,16.5684841 C16.0497524,16.4979341 16.2452285,16.3443674 16.3973089,16.1317055 C16.5488219,15.9202377 16.6342437,15.6806996 16.6409154,15.4613186 C16.8419285,15.3905662 17.0387154,15.2362103 17.1902285,15.0249448 C17.3413698,14.8134567 17.4267719,14.574121 17.4336589,14.3545579 C17.6346524,14.2838055 17.8312632,14.129652 17.9825806,13.9181639 C18.1348763,13.7055222 18.2201024,13.4673603 18.2265785,13.2483841 C18.4272002,13.1780162 18.6224806,13.0244496 18.7751285,12.8112008 C18.9274241,12.5987412 19.0126306,12.3599924 19.0204763,12.1420079 C19.219748,12.0710531 19.4154002,11.9173853 19.5676763,11.7046222 C19.7211067,11.4905841 19.8049828,11.2519365 19.8114785,11.0344377 C20.0105741,10.964677 20.2067937,10.8122031 20.3602241,10.5977603 C20.4974154,10.4063484 20.5835806,10.1877567 20.6025002,9.9825222 C20.6130067,9.8700591 20.6028915,9.76441624 20.5744045,9.67024839 C20.8078958,9.41589601 20.9230958,9.13574005 20.9175785,8.8350222 L20.9175589,8.8350222 Z M7.16802411,12.4447901 C7.14280454,12.4744389 7.07688932,12.5301543 6.91639585,12.5714805 C6.59501759,12.6548615 6.5659828,12.5303567 6.54630019,12.4487365 C6.50713063,12.2858805 6.34835889,12.1866531 6.19052628,12.2273722 C6.05716976,12.261777 5.9679328,12.3856948 5.9679328,12.5218567 C5.9679328,12.5459805 5.97061324,12.570671 5.9765415,12.5953817 C5.99622411,12.677002 6.0260415,12.8005353 5.70523063,12.8831472 C5.52982846,12.9281972 5.34411541,12.7971758 5.29424367,12.5896543 C5.24801106,12.3979389 5.26290019,12.296546 5.27608715,12.2530746 C5.28659367,12.2176984 5.30034802,12.1890412 5.37066541,12.1709484 C5.5040415,12.1366651 5.59325889,12.0128484 5.59325889,11.8766865 C5.59325889,11.8523603 5.59057846,11.8277508 5.58465019,11.8031615 C5.54550019,11.6403055 5.3865328,11.5414829 5.22889585,11.5817972 C5.18323063,11.5935555 5.06210237,11.6248841 4.97171106,11.2487793 C4.88133932,10.8729579 5.00248715,10.8417508 5.04815237,10.8299924 C5.18170454,10.7955877 5.27074585,10.671771 5.27074585,10.5357103 C5.27074585,10.5113841 5.26806541,10.4866936 5.26213715,10.4620841 C5.22296759,10.2993293 5.06362846,10.2002031 4.9063828,10.240821 C4.83626106,10.2587115 4.81121759,10.2403353 4.78582193,10.214046 C4.75467411,10.1820293 4.69543063,10.0997008 4.64939367,9.90780315 C4.60316106,9.71600672 4.61805019,9.61461386 4.63123715,9.57124362 C4.64174367,9.53566505 4.65549802,9.50708886 4.72581541,9.48901624 C4.8591915,9.45473291 4.94840889,9.33089601 4.94840889,9.1947341 C4.94840889,9.17042815 4.94572846,9.14581862 4.93980019,9.1212091 C4.90065019,8.95835315 4.7412915,8.85894362 4.58404585,8.89986505 C4.53838063,8.91190672 4.41705672,8.94216267 4.32686106,8.56682696 C4.23648932,8.19102577 4.35763715,8.15979839 4.40330237,8.14804005 C4.53685454,8.11363529 4.62589585,7.98983886 4.62589585,7.85377815 C4.62589585,7.82945196 4.62321541,7.80474124 4.61728715,7.78013172 C4.57811759,7.61747815 4.41915019,7.5183722 4.2615328,7.55888886 C4.19141106,7.57686029 4.16636759,7.55828172 4.14097193,7.53211386 C4.10982411,7.50007696 4.05058063,7.41776862 4.00454367,7.22587101 C3.91397628,6.84994839 4.03510454,6.8188222 4.08076976,6.80706386 C4.2143415,6.77267934 4.30336324,6.64886267 4.30336324,6.51280196 C4.30336324,6.48847577 4.30070237,6.46376505 4.29475454,6.43917577 C4.25560454,6.27642101 4.0968328,6.17709243 3.93900019,6.21791267 C3.86907411,6.23590434 3.84385454,6.21722458 3.81843932,6.19113767 C3.7872915,6.15912101 3.72806759,6.07679243 3.68203063,5.88489481 C3.6567915,5.78072934 3.66941106,5.67462101 3.71699367,5.5860591 C3.76093715,5.50423648 3.83027628,5.44763053 3.91245019,5.42648172 C4.23267411,5.34386981 4.26266759,5.46756505 4.28235019,5.54940791 C4.32151976,5.71206148 4.47952846,5.81167339 4.63812411,5.77075196 C4.77148063,5.73646862 4.86071759,5.61265196 4.86071759,5.47649005 C4.86071759,5.45226505 4.85803715,5.42755434 4.85210889,5.40294481 C4.83242628,5.3211222 4.80260889,5.19752815 5.12361541,5.11489601 C5.44383932,5.03248648 5.4738328,5.15610077 5.49351541,5.2378222 C5.53268498,5.40047577 5.69108498,5.49929839 5.84928932,5.45908529 C5.98264585,5.42480196 6.0718828,5.30096505 6.0718828,5.16480315 C6.0718828,5.1404972 6.06920237,5.11588767 6.06327411,5.09117696 C6.04361106,5.00945553 6.01379367,4.88594243 6.33460454,4.80333053 C6.65596324,4.72100196 6.68501759,4.84433291 6.70470019,4.92625672 C6.74386976,5.08891029 6.9026415,5.18813767 7.06045454,5.14749958 C7.19383063,5.11321624 7.28304802,4.98939958 7.28304802,4.85323767 C7.28304802,4.82891148 7.28038715,4.80430196 7.27443932,4.77961148 C7.25477628,4.69789005 7.22497846,4.57435672 7.54576976,4.49174481 C7.86714802,4.4092341 7.8961828,4.53284839 7.91586541,4.61467101 C7.95503498,4.77732458 8.11361106,4.87624839 8.27163932,4.8359341 C8.40499585,4.80165077 8.4942328,4.67781386 8.4942328,4.54165196 C8.4942328,4.51734601 8.49155237,4.49273648 8.48562411,4.46802577 C8.4659415,4.38630434 8.43612411,4.26279124 8.75693498,4.18017934 C8.83910889,4.15882815 8.9258415,4.17552458 9.00169585,4.22642339 C9.08386976,4.28167339 9.14289802,4.36940553 9.16792193,4.47357101 C9.25848932,4.84947339 9.13736106,4.88059958 9.09169585,4.89235791 C8.95812411,4.92676267 8.86910237,5.0505591 8.86910237,5.18664005 C8.86890131,5.28015845 8.91042282,5.36854238 8.98162899,5.42616759 C9.05283517,5.4837928 9.14576099,5.50421342 9.23346541,5.4815091 C9.3033915,5.46353767 9.32861106,5.48211624 9.35402628,5.50830434 C9.38517411,5.54032101 9.44439802,5.62262934 9.49045454,5.81452696 C9.53668715,6.00634362 9.52177846,6.10773648 9.5085915,6.15110672 C9.49808498,6.18668529 9.48433063,6.21526148 9.41401324,6.2333341 C9.28065672,6.26761743 9.19141976,6.3914341 9.19141976,6.52759601 C9.19141976,6.5519222 9.19410019,6.57653172 9.20002846,6.60114124 C9.23919802,6.76389601 9.3983415,6.86269839 9.5557828,6.82248529 C9.60127193,6.81072696 9.72240019,6.7792972 9.81277193,7.15550315 C9.90333932,7.53140553 9.78221106,7.56253172 9.73654585,7.57429005 C9.57930019,7.61480672 9.48356759,7.77944362 9.5225415,7.94221862 C9.56171106,8.10485196 9.7204828,8.20397815 9.87831541,8.16346148 C9.92666106,8.15111624 9.99711541,8.13593767 10.0745545,8.31298053 C9.8743614,8.58823262 9.67513401,8.86423484 9.47687628,9.14098172 C8.60505019,10.3584853 7.83122628,11.4807079 7.20150019,12.4123281 C7.18987846,12.4224067 7.17829585,12.4325865 7.16804367,12.4447901 L7.16802411,12.4447901 Z M7.06790889,16.3959543 C6.41464585,15.8362496 6.28281541,14.8662377 6.76143932,14.1397305 C7.46398715,13.0734662 8.58706976,11.4035401 9.94841759,9.50235315 C11.311898,7.59851505 12.5303219,5.99903767 13.3121872,4.99235434 C13.6348958,4.57712934 14.1058698,4.35843648 14.5854524,4.35843648 C14.899748,4.35843648 15.2176828,4.4524222 15.5000872,4.64650553 C16.0215002,5.00512458 16.550935,5.38991148 17.0735219,5.79011981 C17.5978111,6.19202815 18.1083263,6.60399481 18.5907654,7.01468648 C19.2522654,7.57764958 19.3892415,8.55191148 18.9092872,9.2810091 C18.2298458,10.3132531 17.124548,11.9564246 15.716948,13.9221305 C14.3057089,15.8925722 13.1119372,17.4604377 12.3589502,18.4288508 C11.8269915,19.1129591 10.8931632,19.2653924 10.1851372,18.783827 L10.1190654,18.7332317 C10.1019666,18.720224 10.083552,18.7091767 10.0641458,18.7002841 C9.54821106,18.3453686 9.05291759,17.9871948 8.59186324,17.6341412 C8.09854585,17.2560734 7.58572193,16.839452 7.06792846,16.3959543 L7.06790889,16.3959543 Z M15.1332198,16.8772162 C15.004735,17.0566067 14.8582502,17.1138603 14.8167328,17.113152 L14.6110241,16.955477 C14.4813067,16.8554603 14.2971002,16.8841174 14.2006241,17.0185186 C14.1041285,17.1533043 14.1314611,17.343421 14.2617654,17.4432353 L14.4656154,17.5994936 L14.4656154,17.5995746 C14.4851219,17.657071 14.4587676,17.8191579 14.3404763,17.983977 C14.2019545,18.1778579 14.0534937,18.2203579 14.0198611,18.2171805 C14.0188632,18.2170186 14.0178654,18.2172412 14.016848,18.2170793 L13.8171458,18.0640186 C13.6874285,17.964002 13.5032219,17.992477 13.4067458,18.1272627 C13.3102502,18.261846 13.3375632,18.4519829 13.4678872,18.551777 L13.6706806,18.707246 C13.6882502,18.7470543 13.677998,18.9090805 13.5479285,19.0907579 C13.4307915,19.254727 13.3016219,19.3179508 13.2542741,19.3294865 L13.0765828,19.0990353 C12.9753132,18.9682162 12.790735,18.9468651 12.6640698,19.0510103 C12.537385,19.1555603 12.516548,19.3466889 12.6176415,19.4777103 L12.7412154,19.637996 C12.7024372,19.7104889 12.6474002,19.7609424 12.5677698,19.7911781 C12.336235,19.8791734 11.9418589,19.8090686 11.5100741,19.6269055 C12.0075785,19.5259174 12.4736611,19.2501329 12.8163458,18.8093067 C13.3421024,18.1331317 14.082235,17.1652853 14.9604785,15.9736055 C14.9092763,16.0995067 14.9447089,16.2497139 15.0556437,16.3346936 L15.2568915,16.4889484 C15.2575763,16.4922472 15.2573806,16.495627 15.2581632,16.4989258 C15.2730719,16.5599841 15.2520589,16.7111829 15.1332198,16.877196 L15.1332198,16.8772162 Z M15.9255719,15.7704353 C15.8074958,15.9356591 15.6741198,16.0006841 15.6131741,16.0040436 C15.6122741,16.0040841 15.6114132,16.0044484 15.6105132,16.0045091 L15.4049024,15.8469151 C15.2962372,15.7631496 15.1498502,15.7705972 15.048385,15.8540793 C15.2802498,15.5388192 15.5109319,15.2226303 15.7404263,14.9055198 C15.7110785,15.0219293 15.7501306,15.1501579 15.8493263,15.2261317 L16.0496741,15.3796984 C16.0504958,15.3853651 16.0501632,15.391052 16.051298,15.3966984 C16.0663828,15.4712151 16.0335132,15.6200258 15.9255719,15.7704353 Z M16.7184915,14.6634722 C16.6109219,14.813477 16.4827306,14.889552 16.4091654,14.8968781 C16.408148,14.8969793 16.4072089,14.8973841 16.4061915,14.8974853 L16.1986045,14.7383734 C16.1006611,14.663027 15.9717654,14.6609627 15.8729219,14.7222436 C15.9783598,14.5761592 16.0835426,14.4298781 16.1884698,14.2834008 C16.3038115,14.1222599 16.4188422,13.960881 16.5335611,13.7992651 C16.5052893,13.9149865 16.5446545,14.042102 16.6432045,14.1175901 L16.8421437,14.2700639 C16.8430241,14.2766817 16.8427111,14.2833401 16.8440219,14.2899377 C16.858735,14.3646162 16.8258654,14.5134472 16.7184915,14.6634722 Z M17.5110393,13.5568936 C17.4032741,13.7071008 17.2752785,13.7829936 17.2017132,13.7899151 C17.2015958,13.7899151 17.2015176,13.7899555 17.2014198,13.7899758 L16.9924828,13.6298115 C16.8933458,13.5535543 16.7627089,13.5525829 16.6634154,13.616252 C16.8903279,13.2957469 17.1160339,12.9743297 17.3405285,12.6520079 C17.2917524,12.7771805 17.3273611,12.9249996 17.4371024,13.0090484 L17.6334589,13.1595591 C17.6345741,13.166096 17.6344372,13.1727139 17.6360024,13.1791901 C17.6507154,13.240471 17.6295067,13.3914674 17.5110393,13.5568936 Z M19.8884872,10.2364698 C19.7742654,10.3960877 19.6450763,10.4588055 19.588435,10.4684996 L19.3739415,10.3041662 C19.2436372,10.2045543 19.0598219,10.2327258 18.9635219,10.3675115 C18.8670458,10.502196 18.8943589,10.6923329 19.0246632,10.792127 L19.2105328,10.9345222 C19.2135067,10.9422127 19.2146024,10.9503686 19.2182219,10.9578567 C19.2365545,10.9956008 19.227398,11.1599341 19.0959393,11.3432508 C18.9860806,11.4970603 18.8516676,11.5665377 18.7922676,11.5751591 L18.5802393,11.4127281 C18.4501306,11.3131162 18.2663154,11.3410853 18.1698393,11.4760734 C18.0733437,11.6107579 18.1006763,11.8008948 18.2309806,11.9006686 L18.4256545,12.0498234 C18.4270828,12.0550448 18.4272198,12.0604484 18.4289219,12.0656091 C18.444398,12.1123591 18.4340872,12.2677067 18.3035872,12.4499305 C18.1877611,12.6115722 18.0596676,12.6761115 17.9966676,12.6824662 L17.7863611,12.5212698 C17.6753676,12.4358651 17.5247741,12.4450531 17.4231524,12.5334531 C18.2551437,11.3364912 18.9257806,10.3348674 19.3945632,9.6227091 C19.7308306,9.11171743 19.8426067,8.51256862 19.7503958,7.94705553 C20.0693872,8.24579005 20.3254958,8.5647222 20.3306024,8.84659839 C20.3334002,8.99221148 20.2612437,9.13486981 20.1191415,9.27961267 L19.9660437,9.22970553 C19.8103241,9.17890791 19.6465828,9.2682591 19.5978654,9.42803886 C19.549148,9.58791981 19.6349415,9.75838529 19.7895067,9.80879839 L20.0178719,9.88321386 C20.0227241,9.94757101 19.9990893,10.0822555 19.8884872,10.2364698 Z" id="path-1"></path>
    </defs>
    <g id="Symbols" stroke="none" stroke-width="1" fill="none" fill-rule="evenodd">
        <g id="product/cookie">
            <mask id="mask-2" fill="white">
                <use xlink:href="#path-1"></use>
            </mask>
            <use id="cookie" fill="#000000" fill-rule="nonzero" xlink:href="#path-1"></use>
            <rect id="🎨-color" fill="#EB690B" mask="url(#mask-2)" x="0" y="0" width="24" height="24"></rect>
        </g>
    </g>
</svg>