<?xml version="1.0" encoding="UTF-8"?>
<svg width="24px" height="24px" viewBox="0 0 24 24" version="1.1" xmlns="http://www.w3.org/2000/svg" xmlns:xlink="http://www.w3.org/1999/xlink">
    <!-- Generator: Sketch 48.2 (47327) - http://www.bohemiancoding.com/sketch -->
    <title>product/cracker</title>
    <desc>Created with Sketch.</desc>
    <defs>
        <path d="M20.888705,10.5556161 C20.942392,9.86565094 20.6419485,9.18569185 19.9955529,8.53427367 C19.8738572,8.39290852 18.6838029,7.06192518 16.3727594,6.2467267 C12.4061072,4.84784791 8.30171591,6.09600549 5.55704852,7.38968276 C5.53049852,7.40219034 5.50774417,7.41916912 5.48692678,7.43786155 C4.33252025,8.07090246 3.52578765,9.29640852 3.15725721,11.0509358 C2.88479199,12.3485525 3.70885938,13.6378964 4.9920833,13.9248812 L11.3186529,15.3918919 C11.3071094,15.4450343 11.3024137,15.4953009 11.3024137,15.5416085 C11.3024137,15.5559085 11.304292,15.5697555 11.3051137,15.5838585 C11.304292,15.5928797 11.3024137,15.6016055 11.3024137,15.6108434 L11.3024137,16.8509646 C11.3024137,17.8473555 13.3351811,18.3686161 15.3431985,18.3686161 C17.3512159,18.3686161 19.3840616,17.8473555 19.3840616,16.8509646 C19.3840616,16.8360343 19.3818311,16.8217146 19.3796985,16.8073949 C19.3818311,16.7930555 19.3840616,16.7787358 19.3840616,16.7638252 L19.3840616,15.8153176 C19.8413007,15.5784615 20.1232942,15.2735131 20.1232942,14.9026191 C20.1232942,14.8876888 20.1210637,14.8733691 20.1189311,14.8590494 C20.1210637,14.84471 20.1232942,14.8303903 20.1232942,14.8154797 L20.1232942,13.6623206 C20.1232942,13.6531025 20.1214159,13.6443964 20.1205942,13.6353949 C20.1214159,13.6213312 20.1232942,13.6075237 20.1232942,13.5932631 C20.1232942,13.2614873 19.905592,12.9699919 19.4849398,12.7301025 C20.3578029,12.033657 20.8304985,11.3032146 20.888705,10.5556161 Z M3.73159417,11.1731752 C3.9858833,9.96230397 4.55186591,8.58721912 5.80110504,7.92652367 C5.80272895,7.92581458 5.80441156,7.92553882 5.80599634,7.92481003 C5.91575721,7.87308579 6.02407025,7.82423731 6.13244199,7.77529034 C6.55244852,7.61129337 7.03964199,7.52143579 7.60529199,7.53173731 C9.73302895,7.56762518 11.7855963,8.90985549 12.8028898,10.8976343 C11.5373529,11.1167631 10.5631811,11.578657 10.5631811,12.2683464 C10.5631811,12.2825873 10.5650594,12.2964146 10.5658811,12.3104585 C10.5650594,12.3194797 10.5631811,12.3281858 10.5631811,12.3373843 L10.5631811,13.5777025 C10.5631811,14.0843479 11.0893876,14.4678676 11.8701376,14.7227661 C11.7937355,14.770354 11.7275072,14.8184934 11.6694963,14.8667706 L5.12160504,13.3485873 C4.14888112,13.1310343 3.52533765,12.1551479 3.73159417,11.1731752 Z M15.3432181,16.4683706 C13.108479,16.4683706 11.8893898,15.85611 11.8893898,15.5416282 C11.8893898,15.4781252 11.9571246,15.37316 12.1332507,15.2545449 C12.5504594,16.0213873 14.3259246,16.4202706 16.0824507,16.4202706 C16.1949116,16.4202706 16.3074116,16.4183994 16.4196572,16.4151494 C16.0874398,16.4488706 15.7275376,16.4683706 15.3432181,16.4683706 Z M11.1501376,13.5776828 L11.1501376,13.0949691 C11.5677572,13.3494737 12.1753942,13.5350979 12.8658116,13.6494191 C12.8656159,13.6538509 12.8644811,13.6578494 12.8644811,13.6623206 C12.8644811,13.7409903 12.8957268,13.8158191 12.9505681,13.8710297 C13.0055122,13.9265252 13.0801292,13.9577352 13.1579594,13.9577752 C13.2362203,13.9577752 13.310529,13.9262206 13.3653507,13.8710297 C13.40449,13.8313711 13.4316657,13.781359 13.443729,13.7267888 C13.8213768,13.7659858 14.213092,13.7859979 14.6040442,13.7859979 C15.9519507,13.7859979 17.3100507,13.5507767 18.0579703,13.0949691 L18.0579703,13.4905434 C18.0579703,13.5054737 18.0602007,13.5197934 18.0623137,13.5341131 C18.0602007,13.5484525 18.0579703,13.5627722 18.0579703,13.5776828 C18.0579703,13.7826888 17.536792,14.1133812 16.5570442,14.3193919 C16.5547355,14.3116509 16.5529942,14.3038312 16.5505485,14.296504 C16.5427224,14.2788161 16.5329594,14.2630388 16.5231181,14.2453509 C16.5118203,14.2299481 16.4993943,14.2154172 16.4859442,14.2018797 C16.4723072,14.18821 16.4586311,14.1743631 16.4409637,14.164554 C16.4253116,14.1547449 16.4097181,14.1447388 16.3920507,14.13686 C16.3724855,14.1289812 16.3548768,14.1251206 16.3373072,14.1212797 C16.2981376,14.1134009 16.2590659,14.1134009 16.2218137,14.1212797 C16.2023268,14.1251206 16.1846398,14.1289615 16.1670703,14.1368403 C16.1495187,14.1449002 16.1325356,14.1541598 16.1162398,14.164554 C16.1005876,14.1743631 16.0849159,14.18821 16.0712398,14.2018797 C16.0577915,14.2154413 16.0453412,14.22997 16.0339876,14.2453509 C16.0242442,14.2630388 16.0145007,14.2788161 16.0085724,14.296504 C16.0007463,14.3142115 15.9949159,14.3338297 15.9910029,14.3517146 C15.9870835,14.3711513 15.9850976,14.3909329 15.9850746,14.4107661 C15.9850746,14.4127358 15.9856224,14.414607 15.9856616,14.416557 C15.5801724,14.4707237 15.1205463,14.5044449 14.6040442,14.5044449 C12.3692463,14.5044449 11.1501376,13.8921843 11.1501376,13.5777025 L11.1501376,13.5776828 Z M14.6040442,13.1950888 C12.3692463,13.1950888 11.1501376,12.5828282 11.1501376,12.2683464 C11.1501376,11.9537464 12.3692463,11.3414858 14.6040442,11.3414858 C16.8388616,11.3414858 18.0579703,11.9537464 18.0579703,12.2683267 C18.0579703,12.5828282 16.8388616,13.1950888 14.6040442,13.1950888 Z M15.3431985,17.7777267 C14.8248376,17.7777267 14.3636463,17.7437888 13.9571203,17.6892676 C13.9581963,17.6791237 13.9601529,17.6691964 13.9601529,17.6588358 C13.9601529,17.5799691 13.928829,17.50516 13.8739876,17.4499494 C13.8603311,17.4361025 13.8446398,17.4243631 13.8289876,17.4126237 C13.8127339,17.4021633 13.7957455,17.3929075 13.7781572,17.3849297 C13.7605876,17.3789615 13.7429203,17.3731903 13.7234333,17.3691722 C13.627505,17.3495343 13.5257659,17.3810888 13.4592833,17.4499297 C13.4205637,17.48891 13.394405,17.5378964 13.3819029,17.5909206 C12.407555,17.3848115 11.8893703,17.0553994 11.8893703,16.8509646 L11.8893703,16.3682509 C12.6372507,16.8240388 13.995292,17.0592797 15.3431985,17.0592797 C15.432455,17.0592797 15.5226116,17.0574085 15.6127876,17.0552812 C15.6164072,17.0724373 15.6209268,17.089357 15.6271094,17.1052525 C15.6426833,17.1406479 15.6642833,17.1721828 15.6915963,17.201807 C15.7190268,17.2293237 15.7503507,17.2510494 15.7875246,17.2648964 C15.8227616,17.2804767 15.8599159,17.2864449 15.8990072,17.2864449 C15.9772485,17.2864449 16.0516746,17.2570176 16.1063985,17.201807 C16.133829,17.1721828 16.1553116,17.1406479 16.1709833,17.1052525 C16.1805116,17.0806115 16.1858724,17.053804 16.1890616,17.0265828 C17.2068833,16.9508085 18.1952007,16.7363676 18.797105,16.368704 L18.797105,16.7638252 C18.797105,16.7787358 18.7993355,16.7930555 18.8014681,16.8073949 C18.7993355,16.8217146 18.797105,16.8360343 18.797105,16.8509646 C18.797105,17.1654661 17.5779963,17.777707 15.3431985,17.777707 L15.3431985,17.7777267 Z M18.0930703,15.6323722 C18.0784746,15.5922888 18.0561898,15.55516 18.0257659,15.525654 C18.0121094,15.5117873 17.998355,15.4979403 17.9826833,15.4881312 C17.9650942,15.4764115 17.9494224,15.4685131 17.9318529,15.4606343 C17.914235,15.4529147 17.8958965,15.4469828 17.8771094,15.4429267 C17.8379398,15.4350479 17.7987703,15.4350479 17.7616159,15.4429267 C17.7427508,15.446684 17.7243808,15.452626 17.7068724,15.4606343 C17.689205,15.4685131 17.6716159,15.4763919 17.6559637,15.4881312 C17.640292,15.4979403 17.6247181,15.5117873 17.6109637,15.525654 C17.5562203,15.5787373 17.5248768,15.6554767 17.5248768,15.7324328 C17.5248768,15.7328858 17.5250333,15.7333388 17.5250333,15.7338115 C17.1054181,15.7928631 16.6244463,15.8293615 16.0824311,15.8293615 C13.8796029,15.8293615 12.6661485,15.2350843 12.6317724,14.9168797 C13.238529,15.0351403 13.9226072,15.0953343 14.6040442,15.0953343 C14.8322529,15.0953343 15.0606181,15.0882631 15.2864398,15.0748691 L15.3809398,15.0805419 C15.6034159,15.0941919 15.8803811,15.1109343 16.0824311,15.1109343 C17.4303376,15.1109343 18.7884376,14.8756934 19.5363376,14.4198858 L19.5363376,14.8154797 C19.5363376,14.8303903 19.5385681,14.84471 19.5407007,14.8590494 C19.5385681,14.8733691 19.5363376,14.8876888 19.5363376,14.9026191 C19.5363376,15.1036267 19.036055,15.4256919 18.0930703,15.6323919 L18.0930703,15.6323722 Z M18.2226116,14.293254 C18.4893246,14.091557 18.6449268,13.8528297 18.6449268,13.5776828 C18.6449268,13.5627722 18.6426768,13.5484525 18.6405637,13.5341131 C18.6426768,13.5197934 18.6449268,13.5054737 18.6449268,13.4905434 L18.6449268,13.011257 C19.2927507,13.22296 19.5363376,13.4673206 19.5363376,13.5932631 C19.5363376,13.7848555 19.0814855,14.0863964 18.2226116,14.293254 Z M18.6449268,12.3939343 L18.6449268,12.337404 C18.6449268,12.3281661 18.6430485,12.3194797 18.6422268,12.3104585 C18.6430485,12.2964146 18.6449268,12.2825873 18.6449268,12.2683267 C18.6449268,11.2719555 16.6120616,10.7505767 14.6040442,10.7505767 C14.2037398,10.7505767 13.8027311,10.7716525 13.4167681,10.8127206 C12.4219746,8.71184185 10.3753355,7.23126003 8.1762833,6.98071458 C11.7480898,5.82253276 14.4261376,6.19322973 16.1456659,6.79290397 C18.3984442,7.57837973 19.5451224,8.91312518 19.5561181,8.92608579 C19.5615078,8.93256062 19.5671808,8.93879102 19.5731203,8.94475852 C20.0976833,9.4707464 20.3434029,9.99712822 20.3035681,10.5094661 C20.2540681,11.1447919 19.779279,11.7949494 18.8923485,12.4418373 C18.8836224,12.4481994 18.8765594,12.4559009 18.8687529,12.4629919 C18.7973398,12.4390403 18.7222094,12.4161722 18.6449268,12.3939343 Z M8.85161591,12.6616949 C8.84378982,12.644007 8.83402678,12.6282297 8.8242833,12.6103449 C8.81287983,12.59506 8.80043229,12.5805937 8.78703112,12.5670509 C8.67946156,12.4568464 8.48189199,12.4568464 8.37232678,12.5670509 C8.3589239,12.5805696 8.34650077,12.5950379 8.33515286,12.6103449 C8.32531156,12.6282297 8.31558765,12.644007 8.30963982,12.6616949 C8.30181373,12.6794025 8.2959833,12.6990206 8.29207025,12.7167085 C8.28819186,12.7362163 8.28623888,12.7560623 8.28623982,12.775957 C8.28623982,12.8151934 8.29406591,12.8526964 8.30774199,12.8880919 C8.32339417,12.9236843 8.34491591,12.9571494 8.37230721,12.9846661 C8.39963982,13.0121631 8.4309833,13.0339085 8.46813765,13.0477555 C8.50339417,13.0635131 8.54054852,13.0714115 8.57971808,13.0714115 C8.65797895,13.0714115 8.73228765,13.039857 8.78703112,12.9846661 C8.84377025,12.9275449 8.87319634,12.8546267 8.87319634,12.775957 C8.87316417,12.7560591 8.87117843,12.7362131 8.86726808,12.7167085 C8.86298096,12.6981152 8.85775681,12.6797536 8.85161591,12.6616949 Z M9.05118112,11.369554 C8.99835504,11.4246661 8.96710938,11.5015237 8.96710938,11.5782631 C8.96710938,11.6551206 8.99835504,11.7319585 9.05118112,11.7870509 C9.10602243,11.8422812 9.18226808,11.8737176 9.26058765,11.8737176 C9.33681373,11.8737176 9.41315721,11.8422812 9.46797895,11.7870509 C9.52272243,11.7319585 9.55406591,11.6571297 9.55406591,11.5782631 C9.55406591,11.5015237 9.52272243,11.4246661 9.46797895,11.3695737 C9.35841373,11.2592509 9.16074634,11.2592509 9.05118112,11.3695737 L9.05118112,11.369554 Z M9.04535069,10.3629797 C9.06100286,10.3511615 9.07669417,10.3393237 9.09035069,10.3255555 C9.14509417,10.2704631 9.17643765,10.1936055 9.17643765,10.1167676 C9.17643765,10.0400282 9.14509417,9.96317064 9.09035069,9.90797973 C9.07669417,9.89421155 9.06100286,9.88237367 9.04535069,9.87055549 C9.02969852,9.8607464 9.01208982,9.85085852 8.99442243,9.84496912 C8.97685286,9.83709034 8.95726808,9.83122064 8.93969852,9.82728125 C8.84377025,9.80756458 8.74203112,9.83909943 8.67363112,9.90796003 C8.61878982,9.96317064 8.58754417,10.0400282 8.58754417,10.1167676 C8.58754417,10.1936055 8.61878982,10.2704631 8.67363112,10.3255555 C8.7283746,10.3807661 8.80471808,10.4122222 8.88102243,10.4122222 C8.90052895,10.4122222 8.92011373,10.4102919 8.93969852,10.4063525 C8.95726808,10.4024131 8.97685286,10.3964449 8.99442243,10.3885661 C9.01210938,10.3826964 9.02967895,10.3728873 9.04535069,10.3629797 Z M9.96293982,9.90998882 C9.97076591,9.9276767 9.97861156,9.94347367 9.99037025,9.96116155 C10.0001137,9.97691912 10.0137703,9.9926964 10.0275442,10.0064646 C10.0803703,10.0596464 10.1565963,10.0911812 10.2349355,10.0911812 C10.3111616,10.0911812 10.387505,10.0596464 10.4423268,10.0064449 C10.4557118,9.99273224 10.4675069,9.97753388 10.4774855,9.96114185 C10.4892246,9.94345397 10.4970703,9.9276767 10.5049159,9.90998882 C10.512742,9.89230094 10.5185724,9.87256458 10.5224855,9.85477822 C10.5263985,9.83516003 10.5284137,9.81544337 10.5284137,9.7957267 C10.5284137,9.71888882 10.4970703,9.64212973 10.4423268,9.58693882 C10.3327616,9.47663579 10.1350942,9.47864488 10.0275442,9.58693882 C9.9726833,9.64212973 9.94145721,9.71888882 9.94145721,9.7957267 C9.94145721,9.81544337 9.94335504,9.83516003 9.94537025,9.85477822 C9.9492833,9.87258428 9.95511373,9.89230094 9.96293982,9.90998882 Z M8.89861156,9.1418267 C8.91426373,9.15163579 8.92995504,9.16144488 8.94944199,9.16932367 C8.96710938,9.17529185 8.98467895,9.18116155 9.00426373,9.18510094 C9.02185286,9.18904034 9.04143765,9.19106912 9.06100286,9.19106912 C9.13724852,9.19106912 9.21359199,9.15951458 9.26841373,9.10440246 C9.32315721,9.04921155 9.35450069,8.97235397 9.35450069,8.89561458 C9.35450069,8.8187767 9.32315721,8.74191912 9.26841373,8.6868267 C9.19993547,8.61784791 9.09819634,8.58631306 9.0042833,8.60602973 C8.98467895,8.60996912 8.96710938,8.61583882 8.94944199,8.62178731 C8.92995504,8.62968579 8.9142833,8.63951458 8.89861156,8.64940246 C8.88236414,8.66027394 8.86728312,8.67281607 8.85361156,8.6868267 C8.83967211,8.70056949 8.82721184,8.71575455 8.81643765,8.73212973 C8.80661591,8.74788731 8.79687243,8.76356609 8.78904634,8.78328276 C8.78321591,8.80106912 8.77728765,8.8187767 8.7733746,8.83849337 C8.76946156,8.85618125 8.76754417,8.87589791 8.76754417,8.89561458 C8.76754417,8.97235397 8.79877025,9.04921155 8.85363112,9.10440246 C8.86726808,9.11817064 8.88102243,9.13000852 8.89861156,9.1418267 Z M7.54080504,10.9794752 C7.48596373,11.0346858 7.45471808,11.1115237 7.45471808,11.1882631 C7.45471808,11.2671297 7.48596373,11.3419585 7.54080504,11.3970706 C7.59552895,11.4522812 7.67187243,11.4837373 7.74819634,11.4837373 C7.82645721,11.4837373 7.90076591,11.4522812 7.95550938,11.3970706 C8.01064822,11.3417664 8.0416521,11.2666405 8.0416746,11.1882828 C8.0416746,11.1115237 8.01035069,11.0346858 7.95550938,10.9794752 C7.84602243,10.8692509 7.65037025,10.8692509 7.54080504,10.9794752 Z M7.6542833,9.96116155 C7.66402678,9.94345397 7.67377025,9.9276767 7.68161591,9.90998882 C7.68754417,9.89230094 7.69335504,9.87256458 7.69726808,9.85477822 C7.70118112,9.83516003 7.70319634,9.81544337 7.70319634,9.7957267 C7.70319634,9.71888882 7.67187243,9.64212973 7.61703112,9.58693882 C7.54863112,9.51998882 7.44878982,9.48652367 7.35297895,9.50614185 C7.33339417,9.51008125 7.31580504,9.51604943 7.29813765,9.52392822 C7.28056808,9.531807 7.26297895,9.53970549 7.24732678,9.55144488 C7.23106385,9.56155684 7.21597073,9.5734616 7.20232678,9.58693882 C7.18857243,9.60068731 7.17681373,9.61646458 7.16515286,9.63224185 C7.15531156,9.64799943 7.14558765,9.665707 7.13965938,9.68349337 C7.1318333,9.70118125 7.1259833,9.72091761 7.12207025,9.73860549 C7.11829404,9.7574109 7.11634139,9.77654115 7.11623982,9.7957267 C7.11623982,9.81544337 7.11815721,9.83516003 7.12207025,9.85477822 C7.1259833,9.87258428 7.13181373,9.89230094 7.13965938,9.90998882 C7.14556808,9.9276767 7.15531156,9.94347367 7.16515286,9.96116155 C7.17681373,9.97691912 7.18857243,9.9926964 7.20232678,10.0064646 C7.2159833,10.0182828 7.23165504,10.0321297 7.24732678,10.0419388 C7.26297895,10.053757 7.28056808,10.0616555 7.29813765,10.069554 C7.3158246,10.0774328 7.33339417,10.0833025 7.35297895,10.0872419 C7.37246591,10.0892706 7.39205069,10.0911812 7.40971808,10.0911812 C7.48797895,10.0911812 7.56228765,10.0596464 7.61703112,10.0064449 C7.63078547,9.9926964 7.64254417,9.97691912 7.6542833,9.96114185 L7.6542833,9.96116155 Z M6.42754417,10.8239479 C6.42161591,10.8061615 6.41189199,10.7903843 6.40203112,10.7726964 C6.39073363,10.7573606 6.37831432,10.7428957 6.36487678,10.7294222 C6.25531156,10.6190994 6.05965938,10.6190994 5.9500746,10.7294222 C5.93665673,10.7429197 5.9242326,10.7573827 5.91290069,10.7726964 C5.90315721,10.7903843 5.89341373,10.8061812 5.88558765,10.8239479 C5.87965938,10.8416555 5.87384852,10.8613722 5.86993547,10.87906 C5.85025598,10.9762338 5.88036955,11.0768617 5.95009417,11.1469191 C6.00505482,11.2023801 6.07966783,11.2335601 6.15748547,11.2335858 C6.23378982,11.2335858 6.3101333,11.2021297 6.36487678,11.1469191 C6.41971808,11.091807 6.45096373,11.0149494 6.45096373,10.9381312 C6.45096373,10.9184934 6.44904634,10.8987767 6.4451333,10.87906 C6.44122025,10.8613722 6.43538982,10.8416358 6.42754417,10.8239479 Z M7.16315721,12.2460297 C7.15732678,12.2283222 7.14750504,12.2106343 7.13774199,12.194857 C7.12600286,12.1790994 7.11424417,12.1633025 7.10056808,12.149554 C6.99292025,12.0411615 6.79535069,12.0411615 6.68578547,12.149554 C6.67210938,12.1633025 6.66035069,12.1790994 6.64861156,12.194857 C6.63830911,12.2112553 6.62915013,12.228354 6.62120069,12.2460297 C6.61537025,12.2637176 6.60946156,12.2835328 6.60552895,12.3012206 C6.60165097,12.320662 6.59969793,12.3404427 6.59969852,12.3602722 C6.59969852,12.4370312 6.63104199,12.51186 6.68578547,12.5689812 C6.74050938,12.6241919 6.81493547,12.6538161 6.89317678,12.6538161 C6.93224852,12.6538161 6.96950069,12.6478479 7.00465938,12.6320706 C7.04061508,12.617926 7.07327553,12.5964461 7.10058765,12.5689812 C7.15531156,12.51186 7.18665504,12.4370115 7.18665504,12.3602722 C7.18665504,12.340654 7.18463982,12.3208388 7.18072678,12.3012206 C7.17681373,12.2835328 7.1709833,12.2637176 7.16315721,12.2460297 Z M5.49819634,11.8344025 C5.48254417,11.8225646 5.46485721,11.8127358 5.44728765,11.8067873 C5.42975757,11.7988357 5.41139414,11.7928957 5.39254417,11.7890797 C5.29863112,11.7693828 5.19689199,11.8009176 5.12839417,11.8697782 C5.07355286,11.9249888 5.04230721,12.0018267 5.04230721,12.0785661 C5.04230721,12.0983025 5.0442246,12.1180191 5.04813765,12.135707 C5.05205069,12.1554237 5.05797895,12.1731312 5.06380938,12.1909176 C5.07163547,12.2106146 5.08137895,12.2264115 5.09122025,12.2421691 C5.10297895,12.2598767 5.11473765,12.2735267 5.12839417,12.2873737 C5.1833351,12.3428763 5.25795248,12.3740936 5.33578547,12.3741388 C5.35537025,12.3741388 5.37485721,12.3720115 5.3925246,12.3681706 C5.41203112,12.3641328 5.42969852,12.3583615 5.44728765,12.3523934 C5.46485721,12.3445146 5.4825246,12.3347055 5.49819634,12.3248964 C5.51377025,12.31296 5.52944199,12.3012206 5.54319634,12.2873737 C5.55706278,12.2735993 5.56951685,12.2584548 5.58037025,12.2421691 C5.59009417,12.2264115 5.59993547,12.2106343 5.60576591,12.1909176 C5.61359199,12.1731115 5.61942243,12.1554237 5.62335504,12.135707 C5.62726808,12.1180191 5.62926373,12.0982828 5.62926373,12.0785858 C5.62926373,12.0018267 5.59793982,11.9249888 5.54319634,11.8697979 C5.52953767,11.8563605 5.51444612,11.8444834 5.49819634,11.8343828 L5.49819634,11.8344025 Z M5.09515286,10.723454 C5.10297895,10.7057464 5.10880938,10.68796 5.11272243,10.6683419 C5.11663547,10.6486252 5.11855286,10.6309176 5.11855286,10.6112206 C5.11855286,10.5324328 5.08730721,10.4575252 5.03246591,10.4024131 C4.92290069,10.29211 4.72724852,10.29211 4.61776156,10.4024131 C4.56263734,10.4577272 4.5316361,10.5328467 4.53159634,10.6112009 C4.53159634,10.6309373 4.53359199,10.6486252 4.5375246,10.6683419 C4.54143765,10.68796 4.54726808,10.7057661 4.55317678,10.723454 C4.56100286,10.7411419 4.57076591,10.7589479 4.58050938,10.7747055 C4.59224852,10.7903843 4.60400721,10.8061615 4.61776156,10.8200085 C4.67250504,10.8751206 4.74884852,10.9066752 4.8250746,10.9066752 C4.90139852,10.9066752 4.97774199,10.8751206 5.03246591,10.8200085 C5.04623982,10.8061615 5.05797895,10.7903843 5.06963982,10.7747055 C5.07948112,10.7589479 5.08920504,10.7411419 5.09515286,10.723454 Z M6.07531156,9.60665549 C6.09489634,9.60271609 6.11248547,9.5968464 6.13015286,9.58894791 C6.14772243,9.58106912 6.16531156,9.57319034 6.1809833,9.56135246 C6.19663547,9.55144488 6.21230721,9.5376964 6.2259833,9.52392822 C6.28106616,9.46859423 6.31203039,9.39347917 6.31205069,9.31514034 C6.31205069,9.29743276 6.3101333,9.27771609 6.30622025,9.25801912 C6.30210947,9.23913003 6.29622655,9.22067652 6.28865069,9.202907 C6.28272243,9.18510094 6.27297895,9.16741306 6.26313765,9.15163579 C6.25139852,9.13587822 6.23973765,9.12008125 6.22596373,9.10633276 C6.15748547,9.03739337 6.05574634,9.00784791 5.95991591,9.02555549 C5.94111056,9.02969762 5.9227453,9.03565392 5.9050746,9.04334185 C5.88750504,9.05122064 5.87181373,9.05902064 5.85424417,9.07083882 C5.83859199,9.0807464 5.82491591,9.09258428 5.81116156,9.10633276 C5.75641808,9.16144488 5.7250746,9.23830246 5.7250746,9.31512064 C5.7250746,9.334857 5.72708982,9.35447518 5.73102243,9.37419185 C5.73493547,9.39197822 5.73884852,9.41161609 5.7466746,9.42940246 C5.75442243,9.44709034 5.76426373,9.46477822 5.77400721,9.48055549 C5.78384852,9.49633276 5.79750504,9.51211003 5.81118112,9.52392822 C5.86400721,9.57904034 5.94031156,9.61250549 6.01857243,9.61250549 C6.03623982,9.61250549 6.05574634,9.61059488 6.07531156,9.60665549 Z M7.24732678,8.82068731 C7.26297895,8.83059488 7.28056808,8.84040397 7.29813765,8.84830246 C7.3158246,8.85618125 7.33339417,8.86205094 7.35297895,8.86406003 C7.37246591,8.86799943 7.39205069,8.86992973 7.40971808,8.86992973 C7.48797895,8.86992973 7.56228765,8.83849337 7.61703112,8.78326306 C7.67216996,8.72795879 7.70317384,8.65283294 7.70319634,8.57447518 C7.70319634,8.55678731 7.70120069,8.53705094 7.69728765,8.51735397 C7.6933746,8.49773579 7.68754417,8.47992973 7.68161591,8.46224185 C7.67367572,8.4445763 7.6645435,8.42747875 7.6542833,8.41106912 C7.64254417,8.39531155 7.63080504,8.37953428 7.61703112,8.36576609 C7.50754417,8.25546306 7.31189199,8.25739337 7.20232678,8.36576609 C7.18888302,8.37945175 7.17705262,8.39465328 7.16707025,8.41106912 C7.15533112,8.42674791 7.14750504,8.44455397 7.13965938,8.46224185 C7.13176093,8.47988998 7.12586074,8.49837706 7.12207025,8.51735397 C7.11829404,8.53615938 7.11634139,8.55528963 7.11623982,8.57447518 C7.11623982,8.65334185 7.14748547,8.72817064 7.20232678,8.78326306 C7.2159833,8.79712973 7.23165504,8.81087822 7.24732678,8.82068731 Z M10.4129007,12.5670509 C10.4070898,12.5493631 10.3973463,12.5335858 10.387505,12.5158979 C10.3761975,12.5005645 10.3637719,12.4860998 10.3503311,12.4726237 C10.2427616,12.3622025 10.0451137,12.3622025 9.93554852,12.4726237 C9.92210774,12.4860998 9.9096821,12.5005645 9.8983746,12.5158979 C9.88863112,12.5335858 9.87878982,12.5493631 9.87094417,12.5670509 C9.86487165,12.5851909 9.85967427,12.603616 9.85537025,12.6222615 C9.85146689,12.6417004 9.84948764,12.661481 9.84946156,12.6813131 C9.84946156,12.7601797 9.88078547,12.8330782 9.93554852,12.8902191 C9.99057343,12.945569 10.0651549,12.9766933 10.1429398,12.9767676 C10.1821094,12.9767676 10.2192637,12.9688888 10.2544224,12.9531312 C10.2903629,12.9390503 10.3230179,12.91763 10.3503311,12.8902191 C10.4050746,12.8330979 10.4364181,12.7601797 10.4364181,12.6813131 C10.4364181,12.6616949 10.4345007,12.6418797 10.4305876,12.6222615 C10.4264808,12.6033251 10.4205574,12.5848348 10.4129007,12.5670509 Z M10.2055094,10.7294025 C10.1920908,10.7429063 10.1796666,10.7573759 10.1683355,10.7726964 C10.158592,10.7903843 10.1488485,10.8061812 10.1429398,10.8239479 C10.1351137,10.8416555 10.1292637,10.8613722 10.1253507,10.87906 C10.1214456,10.898499 10.1194598,10.9182791 10.1194224,10.9381115 C10.1194224,11.0149691 10.1507659,11.091807 10.2055094,11.1468994 C10.2603507,11.2021297 10.3366746,11.2335661 10.4129007,11.2335661 C10.4912398,11.2335661 10.5655681,11.2021297 10.6203116,11.1468994 C10.6751529,11.091807 10.7063985,11.0149691 10.7063985,10.9381115 C10.7063985,10.8593434 10.6751529,10.7845146 10.6203116,10.7294222 C10.512742,10.6190994 10.3150942,10.6190994 10.2055094,10.7294222 L10.2055094,10.7294025 Z M11.4303311,11.0740994 C11.5066746,11.0740994 11.5829007,11.0425646 11.637742,10.987354 C11.6924855,10.9322419 11.723829,10.855404 11.723829,10.7766358 C11.723829,10.6997979 11.6924855,10.6230388 11.637742,10.5678479 C11.5281768,10.4575252 11.3305094,10.4595343 11.2210224,10.5678479 C11.1681963,10.6230388 11.1348572,10.6997979 11.1348572,10.7766358 C11.1348572,10.8554237 11.1681963,10.9322419 11.2210224,10.987354 C11.2757659,11.0425646 11.3521094,11.0741191 11.4303311,11.0741191 L11.4303311,11.0740994 Z M16.4097181,11.9840403 C16.3548963,12.0392509 16.3235529,12.11601 16.3235529,12.1928282 C16.3235529,12.2716161 16.352979,12.3464252 16.4097181,12.4016358 C16.4644616,12.458757 16.5387898,12.4883812 16.6170311,12.4883812 C16.6562007,12.4883812 16.693355,12.4805025 16.7286116,12.4666555 C16.7637703,12.4508782 16.7951137,12.4291525 16.824442,12.4016358 C16.879532,12.346305 16.9105035,12.2711896 16.910529,12.1928479 C16.910529,12.1159903 16.8792637,12.0392509 16.824442,11.9840403 C16.7148768,11.8737373 16.5192246,11.8737373 16.4097181,11.9840403 Z M15.206379,12.3090994 C15.1535529,12.3662403 15.1223268,12.4410691 15.1223268,12.5197388 C15.1223268,12.5572419 15.1281376,12.5966752 15.1438094,12.6320706 C15.1594811,12.6674661 15.1790659,12.6990206 15.206379,12.7286449 C15.2631181,12.7838358 15.3375637,12.8151934 15.415805,12.8151934 C15.4940463,12.8151934 15.5664572,12.7838358 15.6231963,12.7286449 C15.650529,12.6990206 15.6721094,12.6674661 15.6857659,12.6320706 C15.7014376,12.5966752 15.7092833,12.5572419 15.7092833,12.5197388 C15.7092833,12.4410691 15.6779398,12.3662403 15.6231963,12.3091191 C15.5136311,12.1986979 15.317979,12.1986979 15.206379,12.3091191 L15.206379,12.3090994 Z M13.8995007,11.7201206 C13.8857268,11.7338888 13.8720703,11.7496661 13.8623268,11.7654237 C13.8505876,11.7812009 13.8427616,11.7989085 13.8349159,11.8165964 C13.8270898,11.8343828 13.8231768,11.8540994 13.8192442,11.871807 C13.8153709,11.8912491 13.8134179,11.9110293 13.8134137,11.9308585 C13.8134137,11.9682828 13.8212398,12.0076964 13.8349159,12.0431903 C13.8505681,12.0785858 13.8701724,12.1101206 13.8994811,12.1377358 C13.9542246,12.194857 14.0285529,12.2242843 14.106892,12.2242843 C14.1851529,12.2242843 14.2575442,12.194857 14.314205,12.1377358 C14.3416159,12.1101206 14.3631181,12.0785858 14.3768724,12.0431903 C14.3925246,12.0076964 14.4003703,11.9682631 14.4003703,11.9308585 C14.4003703,11.8520706 14.3690463,11.7752525 14.314205,11.7201206 C14.2047181,11.6118267 14.0070703,11.6118267 13.8995007,11.7201206 Z M12.5279203,12.0589479 C12.4731768,12.11406 12.4418333,12.1909176 12.4418333,12.2677555 C12.4418333,12.3464252 12.4731768,12.421254 12.5279203,12.4764646 C12.5827616,12.5335858 12.6570898,12.56321 12.7353116,12.56321 C12.8135724,12.56321 12.887979,12.5335858 12.9427224,12.4764646 C12.9974659,12.421254 13.0288094,12.3464252 13.0288094,12.2677555 C13.0288094,12.1909176 12.9974659,12.11406 12.9427224,12.0589676 C12.8331572,11.9486449 12.637505,11.9486449 12.5279398,12.0589676 L12.5279203,12.0589479 Z" id="path-1"></path>
    </defs>
    <g id="Symbols" stroke="none" stroke-width="1" fill="none" fill-rule="evenodd">
        <g id="product/cracker">
            <mask id="mask-2" fill="white">
                <use xlink:href="#path-1"></use>
            </mask>
            <use id="cracker" fill="#000000" fill-rule="nonzero" xlink:href="#path-1"></use>
            <rect id="🎨-color" fill="#EB690B" mask="url(#mask-2)" x="0" y="0" width="24" height="24"></rect>
        </g>
    </g>
</svg>