<?xml version="1.0" encoding="UTF-8"?>
<svg width="24px" height="24px" viewBox="0 0 24 24" version="1.1" xmlns="http://www.w3.org/2000/svg" xmlns:xlink="http://www.w3.org/1999/xlink">
    <!-- Generator: Sketch 48.2 (47327) - http://www.bohemiancoding.com/sketch -->
    <title>product/cucumber</title>
    <desc>Created with Sketch.</desc>
    <defs>
        <path d="M15.5190396,15.9477966 C15.4868967,15.7464407 15.4547539,15.5389831 15.422611,15.3162712 C15.6186824,15.1759322 15.7504681,14.9715254 15.7922539,14.7427119 C15.8372539,14.5016949 15.7793967,14.260678 15.6315396,14.059322 C15.535111,13.9281356 15.4065396,13.8274576 15.2586824,13.760339 C15.242611,13.5681356 15.2329681,13.3728814 15.2233253,13.1776271 C15.2297539,13.1715254 15.2393967,13.1684746 15.2458253,13.1623729 C15.4579681,13.0220339 15.5961824,12.8115254 15.6411824,12.5705085 C15.6861824,12.3294915 15.6283253,12.0884746 15.4804681,11.8871186 C15.4033253,11.7864407 15.310111,11.7010169 15.197611,11.6369492 L15.2072539,11.1183051 C15.242611,11.1 15.2747539,11.0816949 15.3068967,11.060339 C15.5190396,10.92 15.6572539,10.7094915 15.7022539,10.4684746 C15.7472539,10.2274576 15.6893967,9.98644068 15.5415396,9.78508475 C15.4804681,9.69966102 15.4033253,9.62644068 15.3165396,9.56847458 C15.3358253,9.37932203 15.355111,9.19016949 15.377611,9.0040678 C15.6990396,8.85152542 15.9143967,8.53728814 15.9143967,8.18338983 C15.9143967,7.92711864 15.8018967,7.68610169 15.6058253,7.51525424 C15.6347539,7.36271186 15.6636824,7.21016949 15.6958253,7.05762712 C16.0847539,6.93864407 16.3579681,6.59389831 16.3579681,6.19118644 C16.3579681,5.88915254 16.2036824,5.61457627 15.9497539,5.44372881 C15.917611,4.80305085 15.6572539,4.21423729 15.2040396,3.7779661 C14.6833253,3.27762712 13.9440396,3 13.1179681,3 C12.4043967,3 11.687611,3.28677966 10.9836824,3.84813559 C10.877611,3.80847458 10.7618967,3.79016949 10.6461824,3.79016949 C10.1158253,3.79016949 9.68189672,4.2020339 9.68189672,4.70542373 C9.68189672,4.84881356 9.71725386,4.98610169 9.78475386,5.11423729 C9.69475386,5.23627119 9.61439672,5.34915254 9.54689672,5.44677966 C8.98761101,5.38881356 8.47975386,5.81898305 8.47975386,6.3559322 C8.47975386,6.58169492 8.56653958,6.79525424 8.72082529,6.96 C8.67903958,7.06677966 8.63725386,7.17661017 8.60189672,7.28949153 C8.16796815,7.3779661 7.83689672,7.74711864 7.83689672,8.18644068 C7.83689672,8.47932203 7.98153958,8.74474576 8.21939672,8.91559322 C8.19046815,9.10779661 8.16796815,9.30610169 8.14868243,9.51050847 C8.11332529,9.52881356 8.08118243,9.54711864 8.04903958,9.56847458 C7.61511101,9.85830508 7.51225386,10.4318644 7.81761101,10.8437288 C7.88832529,10.9413559 7.97832529,11.020678 8.08118243,11.0847458 C8.08118243,11.2708475 8.08439672,11.4569492 8.09082529,11.6461017 C8.07475386,11.6552542 8.06189672,11.6644068 8.04903958,11.6735593 C7.61511101,11.9633898 7.51225386,12.5369492 7.81761101,12.9488136 C7.91725386,13.0830508 8.05225386,13.1867797 8.20653958,13.2538983 C8.22903958,13.4552542 8.25153958,13.6535593 8.27725386,13.8457627 C8.06832529,13.9861017 7.93011101,14.1966102 7.88832529,14.4345763 C7.84332529,14.6755932 7.90118243,14.9166102 8.04903958,15.1179661 C8.16796815,15.279661 8.33511101,15.3955932 8.52796815,15.4566102 C8.55689672,15.6183051 8.58903958,15.7738983 8.61796815,15.9233898 C8.59546815,15.9416949 8.57296815,15.96 8.55368243,15.9813559 C8.18403958,16.3444068 8.19689672,16.9240678 8.57939672,17.2749153 C8.69189672,17.3786441 8.82689672,17.4518644 8.97475386,17.4915254 C9.06796815,17.8484746 9.13546815,18.0864407 9.15153958,18.1291525 L9.15153958,18.1322034 C8.89118243,18.4952542 8.93618243,18.9925424 9.28011101,19.3067797 C9.43118243,19.4471186 9.62725386,19.5325424 9.83618243,19.5538983 C10.4854681,20.5271186 11.3597539,21 12.497611,21 C14.1304681,21 15.5640396,19.8467797 15.827611,18.3152542 C15.8661824,18.0864407 15.8661824,17.839322 15.827611,17.5708475 C15.872611,17.540339 15.9143967,17.5037288 15.9561824,17.4671186 C16.1361824,17.2901695 16.2293967,17.0583051 16.2261824,16.8142373 C16.2197539,16.5701695 16.1168967,16.3413559 15.9304681,16.1735593 C15.8147539,16.0637288 15.6733253,15.9905085 15.5190396,15.9477966 Z M15.4933253,17.0430508 C15.4611824,17.0766102 15.4193967,17.1010169 15.3679681,17.1162712 L15.1043967,17.2047458 L15.1686824,17.5128814 C15.2233253,17.7783051 15.2329681,18.0101695 15.197611,18.2145763 C14.9822539,19.4562712 13.8218967,20.3898305 12.497611,20.3898305 C11.5365396,20.3898305 10.8358253,19.9779661 10.2958253,19.099322 L10.1897539,18.9284746 L9.98403958,18.9498305 C9.88761101,18.9589831 9.79439672,18.9315254 9.72689672,18.8705085 C9.59832529,18.7545763 9.59511101,18.559322 9.70439672,18.4525424 L9.89082529,18.2877966 L9.80403958,18.0528814 C9.78796815,18.0162712 9.77511101,17.9766102 9.76225386,17.94 C9.75261101,17.9155932 9.67225386,17.6349153 9.55011101,17.1528814 L9.49225386,16.9210169 L9.24153958,16.9179661 C9.15796815,16.9179661 9.08082529,16.8874576 9.02296815,16.8355932 C8.89439672,16.719661 8.89118243,16.5244068 9.01332529,16.4054237 C9.03903958,16.3810169 9.07118243,16.359661 9.10975386,16.3413559 L9.33475386,16.240678 L9.28653958,16.0088136 C9.23189672,15.740339 9.17403958,15.4535593 9.11939672,15.1484746 L9.07761101,14.9044068 L8.81725386,14.8922034 C8.71439672,14.8891525 8.62439672,14.840339 8.56975386,14.7671186 C8.52153958,14.7 8.50225386,14.620678 8.51511101,14.5383051 C8.53118243,14.4589831 8.57618243,14.3888136 8.64689672,14.34 C8.66618243,14.3277966 8.69189672,14.3155932 8.72403958,14.3033898 L8.96832529,14.2210169 L8.93618243,13.9769492 C8.89118243,13.6566102 8.85261101,13.3271186 8.82046815,12.9915254 L8.79796815,12.7535593 L8.55046815,12.7169492 C8.46368243,12.7047458 8.38653958,12.6589831 8.33832529,12.5918644 C8.23868243,12.4576271 8.27403958,12.2654237 8.41868243,12.1677966 C8.44118243,12.1525424 8.47332529,12.1372881 8.51189672,12.1281356 L8.75296815,12.0610169 L8.74332529,11.8230508 C8.73046815,11.5118644 8.72403958,11.1976271 8.72403958,10.8925424 L8.72403958,10.6698305 L8.50225386,10.599661 C8.45403958,10.5844068 8.38975386,10.5538983 8.34153958,10.4867797 C8.23868243,10.3494915 8.27403958,10.1572881 8.41868243,10.0627119 C8.45082529,10.0413559 8.48618243,10.0261017 8.52796815,10.0169492 L8.75296815,9.96508475 L8.77225386,9.74542373 C8.80118243,9.4159322 8.83975386,9.09559322 8.88796815,8.79966102 L8.92653958,8.55864407 L8.68546815,8.47016949 C8.56332529,8.42440678 8.47975386,8.31152542 8.47975386,8.18644068 C8.47975386,8.01864407 8.62439672,7.88135593 8.78189672,7.88135593 L9.08082529,7.90271186 L9.15475386,7.66779661 C9.22868243,7.42677966 9.31225386,7.1979661 9.40225386,6.99050847 L9.50511101,6.75254237 L9.27689672,6.61525424 C9.18046815,6.55728814 9.12582529,6.46271186 9.12582529,6.35898305 C9.12582529,6.14847458 9.37011101,5.99898305 9.57261101,6.07830508 L9.82653958,6.17898305 L9.97118243,5.95627119 C10.067611,5.80677966 10.225111,5.57491525 10.4404681,5.30644068 L10.5979681,5.09898305 L10.4147539,4.91288136 C10.3729681,4.87016949 10.3247539,4.80305085 10.3247539,4.70542373 C10.3247539,4.53762712 10.4693967,4.40033898 10.6461824,4.40033898 C10.7329681,4.40033898 10.7972539,4.43389831 10.8358253,4.46135593 L11.0479681,4.61389831 L11.2440396,4.44305085 C11.8804681,3.89084746 12.5104681,3.61016949 13.1179681,3.61016949 C13.7672539,3.61016949 14.3458253,3.82067797 14.7443967,4.20813559 C15.1204681,4.57118644 15.3197539,5.07152542 15.3068967,5.62372881 L15.3036824,5.83423729 L15.5093967,5.91355932 C15.6315396,5.95932203 15.7118967,6.07220339 15.7118967,6.19423729 C15.7118967,6.3559322 15.5768967,6.49016949 15.4033253,6.49627119 L15.152611,6.50542373 L15.1011824,6.74033898 C15.040111,7.02711864 14.9822539,7.31389831 14.9340396,7.60372881 L14.8954681,7.81728814 L15.0979681,7.92101695 C15.2040396,7.9759322 15.2683253,8.07661017 15.2683253,8.18644068 C15.2683253,8.32983051 15.1622539,8.45491525 15.0111824,8.48542373 L14.7861824,8.52813559 L14.7572539,8.74474576 C14.7154681,9.06813559 14.680111,9.39152542 14.6511824,9.71491525 L14.6286824,9.94677966 L14.8568967,10.0261017 C14.9179681,10.0474576 14.9693967,10.0871186 15.0079681,10.1359322 C15.0561824,10.2030508 15.0754681,10.2823729 15.062611,10.3647458 C15.0465396,10.4440678 15.0015396,10.5142373 14.9308253,10.5630508 C14.8954681,10.5844068 14.860111,10.6027119 14.8183253,10.6118644 L14.5804681,10.6637288 L14.5708253,10.8955932 C14.5579681,11.2067797 14.5515396,11.5210169 14.5515396,11.8322034 L14.5515396,12.0610169 L14.7829681,12.1250847 C14.8343967,12.140339 14.9018967,12.1708475 14.9533253,12.2379661 C15.0015396,12.3050847 15.0208253,12.3844068 15.0079681,12.4667797 C14.9918967,12.5461017 14.9468967,12.6162712 14.8761824,12.6650847 C14.8536824,12.680339 14.8279681,12.6925424 14.792611,12.7016949 L14.5643967,12.7749153 L14.5740396,13.0037288 C14.5868967,13.339322 14.6093967,13.6749153 14.6383253,14.0074576 L14.657611,14.2423729 L14.8986824,14.2881356 C14.9822539,14.3033898 15.0561824,14.3461017 15.1043967,14.4132203 C15.152611,14.480339 15.1718967,14.559661 15.1590396,14.6420339 C15.1429681,14.7213559 15.0979681,14.7915254 15.0272539,14.840339 C15.0111824,14.8525424 14.9886824,14.8616949 14.9597539,14.8738983 L14.7283253,14.9623729 L14.7604681,15.1972881 C14.8118967,15.5877966 14.8665396,15.9416949 14.9243967,16.2772881 L14.9918967,16.5305085 L15.265111,16.5305085 C15.3486824,16.5305085 15.4290396,16.5610169 15.4868967,16.6159322 C15.5479681,16.6708475 15.5833253,16.7471186 15.5865396,16.8294915 C15.5833253,16.9057627 15.5511824,16.9820339 15.4933253,17.0430508 Z M12.6133253,6.05084746 C12.790111,6.05084746 12.9347539,5.91355932 12.9347539,5.74576271 C12.9347539,5.34610169 12.5908253,5.01966102 12.1729681,5.01966102 C11.755111,5.01966102 11.4079681,5.34610169 11.4079681,5.74576271 C11.4079681,5.91355932 11.552611,6.05084746 11.7293967,6.05084746 C11.9061824,6.05084746 12.0508253,5.91355932 12.0508253,5.74576271 C12.0508253,5.68169492 12.1054681,5.62983051 12.1729681,5.62983051 C12.2404681,5.62983051 12.2918967,5.68169492 12.2918967,5.74576271 C12.2918967,5.91355932 12.4365396,6.05084746 12.6133253,6.05084746 Z M13.4233253,6.96610169 C13.0022539,6.96610169 12.6615396,7.29254237 12.6615396,7.69220339 C12.6615396,7.86 12.8061824,7.99728814 12.9829681,7.99728814 C13.1597539,7.99728814 13.3043967,7.86 13.3043967,7.69220339 C13.3043967,7.62813559 13.3590396,7.57627119 13.4265396,7.57627119 C13.4940396,7.57627119 13.5486824,7.62813559 13.5486824,7.69220339 C13.5486824,7.86 13.6933253,7.99728814 13.870111,7.99728814 C14.0468967,7.99728814 14.1915396,7.86 14.1915396,7.69220339 C14.185111,7.29254237 13.8443967,6.96610169 13.4233253,6.96610169 Z M10.5079681,12.8633898 C10.5079681,13.0311864 10.652611,13.1684746 10.8293967,13.1684746 C11.0061824,13.1684746 11.1508253,13.0311864 11.1508253,12.8633898 C11.1508253,12.4637288 10.8068967,12.1372881 10.3858253,12.1372881 C9.96475386,12.1372881 9.62082529,12.4637288 9.62082529,12.8633898 C9.62082529,13.0311864 9.76546815,13.1684746 9.94225386,13.1684746 C10.1190396,13.1684746 10.2636824,13.0311864 10.2636824,12.8633898 C10.2636824,12.799322 10.3183253,12.7474576 10.3858253,12.7474576 C10.4533253,12.7474576 10.5079681,12.799322 10.5079681,12.8633898 Z M13.1822539,17.6440678 C12.7611824,17.6440678 12.4204681,17.9705085 12.4204681,18.3701695 C12.4204681,18.5379661 12.565111,18.6752542 12.7418967,18.6752542 C12.9186824,18.6752542 13.0633253,18.5379661 13.0633253,18.3701695 C13.0633253,18.3061017 13.1179681,18.2542373 13.1854681,18.2542373 C13.2529681,18.2542373 13.307611,18.3061017 13.307611,18.3701695 C13.307611,18.5379661 13.4522539,18.6752542 13.6290396,18.6752542 C13.8058253,18.6752542 13.9504681,18.5379661 13.9504681,18.3701695 C13.9440396,17.9705085 13.6033253,17.6440678 13.1822539,17.6440678 Z M12.6583253,11.2372881 C12.835111,11.2372881 12.9797539,11.1 12.9797539,10.9322034 C12.9797539,10.8681356 13.0343967,10.8162712 13.1018967,10.8162712 C13.1693967,10.8162712 13.2240396,10.8681356 13.2240396,10.9322034 C13.2240396,11.1 13.3686824,11.2372881 13.5454681,11.2372881 C13.7222539,11.2372881 13.8668967,11.1 13.8668967,10.9322034 C13.8668967,10.5325424 13.5229681,10.2061017 13.1018967,10.2061017 C12.6808253,10.2061017 12.340111,10.5325424 12.340111,10.9322034 C12.3368967,11.1 12.4815396,11.2372881 12.6583253,11.2372881 Z M11.1508253,15.700678 C10.7297539,15.700678 10.3858253,16.0271186 10.3858253,16.4267797 C10.3858253,16.5945763 10.5304681,16.7318644 10.7072539,16.7318644 C10.8840396,16.7318644 11.0286824,16.5945763 11.0286824,16.4267797 C11.0286824,16.3627119 11.0833253,16.3108475 11.1508253,16.3108475 C11.2183253,16.3108475 11.2729681,16.359661 11.2729681,16.4237288 C11.2729681,16.5915254 11.417611,16.7288136 11.5943967,16.7288136 C11.7711824,16.7288136 11.9158253,16.5915254 11.9158253,16.4237288 C11.9158253,16.0240678 11.5718967,15.700678 11.1508253,15.700678 Z M11.1733253,8.49152542 C10.7522539,8.49152542 10.4083253,8.8179661 10.4083253,9.21762712 C10.4083253,9.38542373 10.5529681,9.52271186 10.7297539,9.52271186 C10.9065396,9.52271186 11.0511824,9.38542373 11.0511824,9.21762712 C11.0511824,9.15355932 11.1058253,9.10169492 11.1733253,9.10169492 C11.2408253,9.10169492 11.2954681,9.15355932 11.2954681,9.21762712 C11.2954681,9.38542373 11.440111,9.52271186 11.6168967,9.52271186 C11.7936824,9.52271186 11.9383253,9.38542373 11.9383253,9.21762712 C11.935111,8.8179661 11.5943967,8.49152542 11.1733253,8.49152542 Z M13.1822539,13.2569492 C12.7611824,13.2569492 12.4204681,13.5833898 12.4204681,13.9830508 C12.4204681,14.1508475 12.565111,14.2881356 12.7418967,14.2881356 C12.9186824,14.2881356 13.0633253,14.1508475 13.0633253,13.9830508 C13.0633253,13.9189831 13.1179681,13.8671186 13.1854681,13.8671186 C13.2529681,13.8671186 13.307611,13.9189831 13.307611,13.9830508 C13.307611,14.1508475 13.4522539,14.2881356 13.6290396,14.2881356 C13.8058253,14.2881356 13.9504681,14.1508475 13.9504681,13.9830508 C13.9440396,13.5833898 13.6033253,13.2569492 13.1822539,13.2569492 Z" id="path-1"></path>
    </defs>
    <g id="Symbols" stroke="none" stroke-width="1" fill="none" fill-rule="evenodd">
        <g id="product/cucumber">
            <mask id="mask-2" fill="white">
                <use xlink:href="#path-1"></use>
            </mask>
            <use id="cucumber" fill="#000000" fill-rule="nonzero" xlink:href="#path-1"></use>
            <rect id="🎨-color" fill="#EB690B" mask="url(#mask-2)" x="0" y="0" width="24" height="24"></rect>
        </g>
    </g>
</svg>