<?xml version="1.0" encoding="UTF-8"?>
<svg width="16px" height="16px" viewBox="0 0 16 16" version="1.1" xmlns="http://www.w3.org/2000/svg" xmlns:xlink="http://www.w3.org/1999/xlink">
    <!-- Generator: Sketch 47.1 (45422) - http://www.bohemiancoding.com/sketch -->
    <title>delete</title>
    <desc>Created with Sketch.</desc>
    <defs></defs>
    <g id="Page-1" stroke="none" stroke-width="1" fill="none" fill-rule="evenodd">
        <g id="menu-2" transform="translate(-272.000000, -377.000000)" fill-rule="nonzero" fill="#D0021B">
            <g id="продукт" transform="translate(-80.000000, 341.000000)">
                <path d="M352,44 C352,39.5878712 355.578076,36.0096175 360,36 C364.412129,36.0096175 368,39.5878712 368,44 C368,48.4219244 364.412129,52 360,52 C355.578076,52 352,48.4219244 352,44 Z M364.625495,39.3745047 C363.442362,38.191549 361.803642,37.4545616 360,37.4545616 C358.18674,37.4545616 356.557638,38.191549 355.364887,39.3745047 C354.181753,40.5672559 353.454562,42.1963578 353.454562,44 C353.454562,45.8132597 354.181753,47.4423616 355.364887,48.6351129 C356.557638,49.8182466 358.18674,50.5454384 360,50.5454384 C361.803642,50.5454384 363.442362,49.8182466 364.625495,48.6351129 C365.808451,47.4423616 366.545438,45.8132597 366.545438,44 C366.545438,42.1963578 365.808451,40.5672559 364.625495,39.3745047 Z M360,42.981789 L361.81326,41.1685293 C362.094483,40.8776882 362.550247,40.8776882 362.841088,41.1685293 C363.122312,41.4497529 363.122312,41.9055167 362.841088,42.1963578 L361.037624,44.0096175 L362.841266,45.8132597 C363.12249,46.1041008 363.12249,46.5598646 362.841266,46.8410882 C362.550425,47.1319293 362.094661,47.1319293 361.813438,46.8410882 L360,45.0376241 L358.18674,46.8412663 C357.905517,47.1321074 357.440135,47.1321074 357.158912,46.8412663 C356.868071,46.5600427 356.868071,46.1042789 357.158912,45.8134378 L358.972172,44.0097956 L357.158734,42.1963578 C356.867893,41.9055167 356.867893,41.4497529 357.158734,41.1685293 C357.439957,40.8776882 357.905339,40.8776882 358.186562,41.1685293 L360,42.981789 Z" id="delete"></path>
            </g>
        </g>
    </g>
</svg>