<?xml version="1.0" encoding="UTF-8"?>
<svg width="8px" height="8px" viewBox="0 0 8 8" version="1.1" xmlns="http://www.w3.org/2000/svg" xmlns:xlink="http://www.w3.org/1999/xlink">
    <!-- Generator: Sketch 48.2 (47327) - http://www.bohemiancoding.com/sketch -->
    <title>mood_bad - material</title>
    <desc>Created with Sketch.</desc>
    <defs></defs>
    <g id="icon/dislike-it" stroke="none" stroke-width="1" fill="none" fill-rule="evenodd" transform="translate(-6.000000, -6.000000)">
        <path d="M10,10.8076923 C10.4679511,10.8076923 10.8862161,10.9342936 11.2548077,11.1875 C11.6233993,11.4407064 11.8878197,11.7756389 12.0480769,12.1923077 L7.95192308,12.1923077 C8.11218029,11.7756389 8.37660072,11.4407064 8.74519231,11.1875 C9.11378389,10.9342936 9.53204894,10.8076923 10,10.8076923 Z M8.59615385,9.60576923 C8.42307606,9.60576923 8.27884673,9.5480775 8.16346154,9.43269231 C8.04807635,9.31730712 7.99038462,9.17307779 7.99038462,9 C7.99038462,8.82692221 8.04807635,8.68429543 8.16346154,8.57211538 C8.27884673,8.45993534 8.42307606,8.40384615 8.59615385,8.40384615 C8.76923163,8.40384615 8.91185841,8.46153788 9.02403846,8.57692308 C9.13621851,8.69230827 9.19230769,8.8333325 9.19230769,9 C9.19230769,9.1666675 9.13461596,9.30929428 9.01923077,9.42788462 C8.90384558,9.54647495 8.76282135,9.60576923 8.59615385,9.60576923 Z M11.4134615,9.60576923 C11.2403837,9.60576923 11.0961544,9.5480775 10.9807692,9.43269231 C10.865384,9.31730712 10.8076923,9.17307779 10.8076923,9 C10.8076923,8.82692221 10.865384,8.68429543 10.9807692,8.57211538 C11.0961544,8.45993534 11.2403837,8.40384615 11.4134615,8.40384615 C11.5865393,8.40384615 11.7291661,8.46153788 11.8413462,8.57692308 C11.9535262,8.69230827 12.0096154,8.8333325 12.0096154,9 C12.0096154,9.1666675 11.9519237,9.30929428 11.8365385,9.42788462 C11.7211533,9.54647495 11.580129,9.60576923 11.4134615,9.60576923 Z M10,13.2115385 C10.576926,13.2115385 11.1153821,13.064104 11.6153846,12.7692308 C12.1025665,12.4871781 12.4871781,12.1025665 12.7692308,11.6153846 C13.064104,11.1153821 13.2115385,10.576926 13.2115385,10 C13.2115385,9.42307404 13.064104,8.88461788 12.7692308,8.38461538 C12.4871781,7.89743346 12.1025665,7.51282192 11.6153846,7.23076923 C11.1153821,6.93589596 10.576926,6.78846154 10,6.78846154 C9.42307404,6.78846154 8.88461788,6.93589596 8.38461538,7.23076923 C7.89743346,7.51282192 7.51282192,7.89743346 7.23076923,8.38461538 C6.93589596,8.88461788 6.78846154,9.42307404 6.78846154,10 C6.78846154,10.576926 6.93589596,11.1153821 7.23076923,11.6153846 C7.51282192,12.1025665 7.89743346,12.4871781 8.38461538,12.7692308 C8.88461788,13.064104 9.42307404,13.2115385 10,13.2115385 Z M10,6 C10.7307729,6 11.4070482,6.18269048 12.0288462,6.54807692 C12.6314133,6.8942325 13.1057675,7.36858673 13.4519231,7.97115385 C13.8173095,8.59295183 14,9.26922712 14,10 C14,10.7307729 13.8173095,11.4070482 13.4519231,12.0288462 C13.1057675,12.6314133 12.6314133,13.1057675 12.0288462,13.4519231 C11.4070482,13.8173095 10.7307729,14 10,14 C9.26922712,14 8.59295183,13.8173095 7.97115385,13.4519231 C7.36858673,13.0993572 6.8942325,12.6217979 6.54807692,12.0192308 C6.18269048,11.3974328 6,10.7243626 6,10 C6,9.2756374 6.18269048,8.60256721 6.54807692,7.98076923 C6.90064279,7.37820212 7.37820212,6.90064279 7.98076923,6.54807692 C8.60256721,6.18269048 9.2756374,6 10,6 Z" id="mood_bad---material" fill="#FFFFFF"></path>
    </g>
</svg>