<?xml version="1.0" encoding="UTF-8"?>
<svg width="16px" height="16px" viewBox="0 0 16 16" version="1.1" xmlns="http://www.w3.org/2000/svg" xmlns:xlink="http://www.w3.org/1999/xlink">
    <!-- Generator: Sketch 48.2 (47327) - http://www.bohemiancoding.com/sketch -->
    <title>icon/edit</title>
    <desc>Created with Sketch.</desc>
    <defs></defs>
    <g id="4--01-today" stroke="none" stroke-width="1" fill="none" fill-rule="evenodd" transform="translate(-288.000000, -161.000000)">
        <g id="меню-на-день" transform="translate(0.000000, 161.000000)" fill="#EB690B" fill-rule="nonzero">
            <g id="icon/edit" transform="translate(288.000000, 0.000000)">
                <path d="M8.2909269,8.28551111 L7.68966016,7.69511111 L7.2339014,8.74044444 L8.2909269,8.28551111 Z M12.7806583,4.288 L11.7042199,3.21351111 L8.48487817,6.42702222 L9.56131661,7.50151111 L12.7806583,4.288 Z M14.3224729,4.80088889 L12.0340617,7.09493333 L10.0753142,9.04053333 L9.85233256,9.19537778 C9.83291962,9.20497778 9.8233022,9.20497778 9.80388927,9.21475556 L9.79427185,9.21475556 L6.24526643,10.7633778 L6.03190222,10.9763556 C5.74106437,11.2570667 5.28530561,11.2570667 5.00408518,10.9763556 C4.71324733,10.6956444 4.71324733,10.2311111 5.00408518,9.9504 L5.21744938,9.73742222 L6.73023365,6.29155556 C6.73985106,6.27217778 6.73985106,6.2528 6.74964658,6.23342222 C6.759264,6.19466667 6.76905952,6.16568889 6.78847246,6.13671111 L6.93398043,5.91413333 L8.89272794,3.96853333 L11.1909347,1.67448889 L12.2091343,0.648533333 C12.6449458,0.222577778 13.2170041,0 13.779445,0 C14.3418859,0 14.9139441,0.222577778 15.35029,0.648533333 C15.7770184,1.08408889 16,1.64551111 16,2.21653333 C16,2.77795556 15.7770184,3.34897778 15.35029,3.77493333 L14.3224729,4.80088889 Z M14.3224729,1.67448889 C14.1673475,1.52924444 13.9733963,1.45191111 13.779445,1.45191111 C13.5854937,1.45191111 13.3915425,1.52942222 13.2460345,1.67448889 L12.7320369,2.18755556 L13.8084753,3.26204444 L14.3224729,2.74897778 C14.4679809,2.60373333 14.5454545,2.41013333 14.5454545,2.21653333 C14.5454545,2.01333333 14.4679809,1.82933333 14.3224729,1.67448889 Z M13.3140688,7.64675556 C13.7115888,7.64675556 14.0412525,7.97582222 14.0412525,8.37262222 L14.0412525,13.5994667 C14.0316351,14.9159111 12.9649922,15.9904 11.6363636,16 L2.40488885,16 C1.07643844,15.9904 0,14.9255111 0,13.5994667 L0,4.38471111 C0,3.03928889 1.08605586,1.98417778 2.40488885,1.98417778 L7.63159945,1.98417778 C8.02911941,1.98417778 8.35878313,2.30364444 8.35878313,2.71004444 C8.35878313,2.90364444 8.28113138,3.08746667 8.14541893,3.22311111 C8.00970647,3.34897778 7.83516814,3.43608889 7.63142135,3.43608889 L2.40488885,3.43608889 C1.88127386,3.43608889 1.45454545,3.85226667 1.45454545,4.38471111 L1.45454545,13.5994667 C1.45454545,13.8512 1.56122756,14.0833778 1.73576589,14.2673778 C1.91030422,14.4416 2.14308136,14.5480889 2.40488885,14.5480889 L11.6363636,14.5480889 C11.8981711,14.5480889 12.1309483,14.4416 12.3054866,14.2673778 C12.4800249,14.0931556 12.586707,13.8512 12.586707,13.5994667 L12.586707,8.37262222 C12.586707,8.16942222 12.6643588,7.9952 12.8000712,7.85955556 C12.9261663,7.72408889 13.110322,7.64675556 13.3140688,7.64675556 Z"></path>
            </g>
        </g>
    </g>
</svg>