<?xml version="1.0" encoding="UTF-8"?>
<svg width="24px" height="24px" viewBox="0 0 24 24" version="1.1" xmlns="http://www.w3.org/2000/svg" xmlns:xlink="http://www.w3.org/1999/xlink">
    <!-- Generator: Sketch 48.2 (47327) - http://www.bohemiancoding.com/sketch -->
    <title>product/fish</title>
    <desc>Created with Sketch.</desc>
    <defs>
        <path d="M7.77978568,16.6247992 C7.33826288,11.8390211 10.3348559,10.1310461 15.3005857,8.94178047 C20.6580909,7.65871797 20.2675383,4.99055547 20.2483015,4.87766172 C20.2275697,4.75577216 20.1512502,4.64856688 20.0394699,4.58431797 C19.0001138,3.98694297 17.8633506,3.56534922 16.6607646,3.33106797 C14.6561067,2.94103047 12.6654664,3.11591172 10.872712,3.73724922 C10.144098,3.63695547 6.85191376,3.24216485 5.35567516,4.06811172 C5.18524912,4.16224289 5.10039112,4.35058454 5.14684358,4.53161172 C5.15725235,4.57154922 5.39647516,5.44556172 6.59244007,6.4822211 C5.39048042,7.7517836 4.51423481,9.32461797 4.1238313,11.1080242 C3.70545235,13.0194836 4.23292954,15.4053273 4.89479621,17.0844461 C3.64150849,18.7804398 3.73721551,20.4105367 3.74198744,20.4815242 C3.75087516,20.608818 3.82018744,20.7256773 3.93086639,20.799168 C4.00715761,20.8497086 4.09728744,20.8760617 4.18846112,20.8760617 C4.22967867,20.8760617 4.27119446,20.870718 4.31166639,20.8597492 C5.52519797,20.5320648 6.39240674,19.8611992 6.79608218,19.4967273 C7.29937165,19.7255242 8.34657165,20.1115398 9.60585411,20.0678898 C9.74107448,20.0633129 9.86683084,20.0012623 9.947912,19.8991117 C10.0290348,19.7969336 10.0566822,19.6656461 10.0233681,19.5420367 C10.0045787,19.472568 9.55542077,17.8754336 7.77978568,16.6247711 L7.77978568,16.6247992 Z M6.16069972,4.6466711 C6.96050498,4.38482735 8.22157691,4.37287422 9.28288393,4.4340461 C8.53458349,4.83486652 7.84032619,5.31940247 7.21517691,5.87713985 C6.62992954,5.37384297 6.31754709,4.92823047 6.16069972,4.6466711 Z M6.94272954,18.6164711 C6.7548272,18.5072642 6.51052045,18.5437898 6.36765235,18.7024492 C6.36037516,18.7105492 5.73298568,19.3960961 4.67630147,19.8386992 C4.76195761,19.2587617 5.01594358,18.328218 5.75645761,17.4008242 C5.84995541,17.2837923 5.87233541,17.1293832 5.8155699,16.9929836 C5.1608313,15.4200086 4.60290323,13.0929742 5.00019621,11.2785742 C5.94691726,6.95283672 10.0022225,3.96731172 14.5131874,3.96731172 C15.1619611,3.96731172 15.8201892,4.02910235 16.4798787,4.15738047 C17.5008927,4.35636485 18.4697734,4.70244297 19.3634664,5.18731797 C19.315419,5.71111797 18.8397769,7.22365235 15.0804208,8.12413047 C9.74054183,9.40280547 6.30734709,11.3841836 6.90849095,16.8978086 C6.92176288,17.019618 6.99065761,17.1300367 7.09695235,17.2003492 C8.10529095,17.8659836 8.65212428,18.6766305 8.92385586,19.2027367 C7.7805313,19.089168 6.95161726,18.6215617 6.94272954,18.6164711 Z M13.7302927,7.46935235 C13.8074787,7.51904922 13.8952822,7.54281485 13.9822208,7.54281485 C14.1250804,7.54281485 14.2654646,7.47854922 14.3521348,7.3589336 C14.491505,7.16653047 14.4390734,6.90395547 14.2350436,6.77252735 C13.5820348,6.35203047 13.7132629,5.27537735 13.7161559,5.2532711 C13.7477699,5.02267422 13.5755032,4.81134297 13.3308225,4.78085547 C13.0867681,4.7511836 12.8613243,4.91309922 12.8288752,5.14408985 C12.8198383,5.20945235 12.6180155,6.75275547 13.7302927,7.46935235 Z M15.2714769,5.60083985 C15.2834067,5.6260961 15.2984085,5.65138047 15.3132611,5.6739086 C15.3311559,5.6964086 15.3490804,5.71893672 15.3699278,5.7385961 C15.4537129,5.81777771 15.5674498,5.8622888 15.6860681,5.86231797 C15.8046907,5.86228134 15.9184283,5.8177599 16.0022085,5.73856797 C16.0230857,5.71893672 16.0409804,5.6964086 16.0588752,5.67388047 C16.0737278,5.65138047 16.0887295,5.6260961 16.0976471,5.60083985 C16.1097371,5.57560208 16.1187617,5.54915591 16.1245488,5.52200547 C16.1305138,5.49399297 16.1334366,5.46856797 16.1334366,5.44044297 C16.1334366,5.41243047 16.1305436,5.38427735 16.1245488,5.35612422 C16.1182973,5.3291319 16.1092777,5.30277667 16.0976173,5.27743047 C16.0887295,5.2520336 16.0737576,5.22950547 16.0588752,5.20711797 C16.0424063,5.18376763 16.023416,5.16208937 16.0022085,5.14243047 C15.8351909,4.98493047 15.5340524,4.98493047 15.3699278,5.14243047 C15.3487203,5.16208937 15.32973,5.18376763 15.3132611,5.20711797 C15.2984085,5.22950547 15.2834366,5.2520336 15.2714769,5.27743047 C15.2625892,5.30268672 15.2535822,5.33086797 15.2476173,5.35612422 C15.241703,5.38388432 15.2387159,5.41212816 15.2386997,5.44044297 C15.2386997,5.46856797 15.2416225,5.49399297 15.2475874,5.52200547 C15.2535524,5.5501586 15.2625892,5.5755836 15.2714471,5.60083985 L15.2714769,5.60083985 Z" id="path-1"></path>
    </defs>
    <g id="Symbols" stroke="none" stroke-width="1" fill="none" fill-rule="evenodd">
        <g id="product/fish">
            <mask id="mask-2" fill="white">
                <use xlink:href="#path-1"></use>
            </mask>
            <use id="fish" fill="#000000" fill-rule="nonzero" xlink:href="#path-1"></use>
            <rect id="🎨-color" fill="#EB690B" mask="url(#mask-2)" x="0" y="0" width="24" height="24"></rect>
        </g>
    </g>
</svg>