<?xml version="1.0" encoding="UTF-8"?>
<svg width="24px" height="24px" viewBox="0 0 24 24" version="1.1" xmlns="http://www.w3.org/2000/svg" xmlns:xlink="http://www.w3.org/1999/xlink">
    <!-- Generator: Sketch 48.2 (47327) - http://www.bohemiancoding.com/sketch -->
    <title>product/kefir</title>
    <desc>Created with Sketch.</desc>
    <defs>
        <path d="M20.5162229,11.8574705 C20.4064598,11.5882716 20.2954293,11.3474511 20.1861804,11.1418091 C19.8300012,10.4699614 19.7027523,9.91417727 19.6663299,9.51046591 C19.9581684,9.43068182 20.1752519,9.15369773 20.1752519,8.82212045 L20.1752519,8.44112727 C20.1752519,8.04761591 19.8708501,7.72745568 19.4966893,7.72745568 L16.6649983,7.72745568 C16.2908558,7.72745568 15.9864541,8.04759659 15.9864541,8.44112727 L15.9864541,8.82212045 C15.9864541,9.15369773 16.2035375,9.43068182 16.495376,9.51046591 C16.4589536,9.91417727 16.3316864,10.469942 15.9755072,11.1417125 C15.8662767,11.3474511 15.7552462,11.5882716 15.6456483,11.8573739 C15.3245874,12.643875 15.1617243,13.4967727 15.1617243,14.3923057 L15.1617243,18.8188159 C15.1617243,19.1612307 15.2733242,19.4760591 15.4587975,19.727833 L14.4171679,19.727833 L14.4171679,8.27879659 C14.4171679,8.16051136 14.4478414,8.04448636 14.5061209,7.94327841 L15.3599262,6.45687955 L15.9173929,7.42220909 C15.996501,7.559175 16.1659947,7.60219659 16.2958701,7.51945682 C16.4259108,7.43636932 16.4673475,7.25808182 16.3884231,7.12130909 L15.6348851,5.81675227 L15.6368687,4.6515375 C15.6374198,4.39280909 15.5419831,4.14934205 15.3681547,3.96616705 C15.1943631,3.78297273 14.9631551,3.68215114 14.7170697,3.68215114 L9.82496855,3.68215114 C9.31771804,3.68215114 8.90516948,4.11615341 8.90516948,4.64966364 L8.90516948,5.81686818 L7.9207909,7.53050682 C7.76826,7.79613251 7.68763242,8.10054309 7.68761767,8.41085568 L7.68761767,19.7383034 L5.25214668,19.7383034 C4.68086767,19.7383034 4.21593549,19.2494182 4.21593549,18.6484489 L4.21593549,18.5262034 L6.40746999,18.5262034 C6.74502475,18.5262034 7.01983671,18.2372807 7.01983671,17.8822318 L7.01983671,16.0165398 C7.01983671,15.6614909 6.74502475,15.3725682 6.40746999,15.3725682 L4.21591713,15.3725682 L4.21591713,14.1398943 L7.06248565,14.1398943 C7.21460386,14.1398943 7.33799557,14.0102114 7.33799557,13.8501216 C7.33799557,13.6900511 7.21460386,13.5603489 7.06248565,13.5603489 L5.74334414,13.5603489 L5.20549367,10.8090341 C5.14948906,10.5223159 4.97859875,10.2749495 4.73663088,10.1303477 C4.49492966,9.98569884 4.20565806,9.95771232 3.94292353,10.053558 C3.68004821,10.1494469 3.46919482,10.3598051 3.36427922,10.6308432 C3.25949547,10.901879 3.27087438,11.2072668 3.39550368,11.4688466 L4.39211491,13.5603489 L3.27550992,13.5603489 C3.12341008,13.5603489 3,13.6900511 3,13.8501216 C3,14.0102114 3.12341008,14.1398943 3.27550992,14.1398943 L3.66491565,14.1398943 L3.66491565,18.6484489 C3.66491565,19.5689989 4.37701696,20.3178489 5.25214668,20.3178489 L7.96312759,20.3178489 C7.98729899,20.3178489 8.01033162,20.3135409 8.03266629,20.3073784 L19.584779,20.3073784 C20.3652068,20.3073784 21,19.6396455 21,18.8188159 L21,14.392325 C21,13.4967727 20.8371369,12.643875 20.5162413,11.8574705 L20.5162229,11.8574705 Z M4.99799796,13.5385773 L3.88806032,11.2092489 C3.83372976,11.0952136 3.82906446,10.9673852 3.87479911,10.8492159 C3.92053375,10.7310273 4.00878877,10.6430136 4.12340089,10.6011318 C4.23801302,10.55925 4.35890678,10.5709375 4.46439034,10.6341466 C4.56985554,10.6971625 4.64141465,10.8008239 4.66580646,10.9257159 L5.18069777,13.5603489 L5.00589591,13.5603489 C5.00312245,13.5531239 5.00139592,13.545667 4.99799796,13.5385773 Z M6.40748836,15.9521136 C6.44137608,15.9521136 6.46883524,15.980975 6.46883524,16.0165398 L6.46883524,17.8822318 C6.4688255,17.8993323 6.46235613,17.915728 6.45085083,17.9278108 C6.43934552,17.9398936 6.42374713,17.9466733 6.40748836,17.946658 L4.21591713,17.946658 L4.21591713,15.9521136 L6.40745163,15.9521136 L6.40748836,15.9521136 Z M16.5374556,8.44112727 C16.5375466,8.36709116 16.5945879,8.30709692 16.6649799,8.30700114 L19.4966709,8.30700114 C19.5670701,8.30708628 19.6241226,8.36708363 19.6242136,8.44112727 L19.6242136,8.82212045 C19.6241226,8.89616409 19.5670701,8.95616145 19.4966709,8.95624659 L16.6649799,8.95624659 C16.5945879,8.95615081 16.5375466,8.89615656 16.5374556,8.82212045 L16.5374556,8.44112727 Z M15.7184564,14.1398943 L18.6983166,14.1398943 C18.7831553,14.1398943 18.8521981,14.2125307 18.8521981,14.301858 L18.8521981,17.7104739 C18.8521981,17.7997045 18.783137,17.8723216 18.6982983,17.8723216 L15.7127625,17.8723216 L15.7127625,14.392325 C15.7127625,14.3076341 15.7153156,14.2236773 15.7184931,14.1398943 L15.7184564,14.1398943 Z M9.45618933,4.64964432 C9.45618933,4.43571477 9.62156875,4.26169659 9.82496855,4.26169659 L14.7170697,4.26169659 C14.8157022,4.26169659 14.9084572,4.30214886 14.978051,4.37563523 C15.0478102,4.449025 15.0860326,4.54665909 15.0858489,4.65041705 L15.0842326,5.60782614 L9.45618933,5.60782614 L9.45618933,4.64964432 Z M9.33619558,6.18737159 L14.8707858,6.18737159 L14.0343928,7.64359545 C14.0188541,7.67064091 14.0067867,7.69936705 13.9933602,7.72745568 L8.45158831,7.72745568 L9.33619558,6.18737159 Z M8.23863751,8.410875 C8.23863751,8.376025 8.24231098,8.34154205 8.24537832,8.30702045 L13.8661481,8.30702045 L13.8661481,19.7278523 L8.23863751,19.7278523 L8.23863751,8.410875 Z M20.4489618,18.8188159 C20.4489618,19.3200648 20.0613377,19.727833 19.584779,19.727833 L16.577129,19.727833 C16.1005336,19.727833 15.7127442,19.3200648 15.7127442,18.8188159 L15.7127442,18.451867 L18.698335,18.451867 C19.0870244,18.451867 19.4032363,18.1192852 19.4032363,17.7104739 L19.4032363,14.301858 C19.4032363,13.89295 19.0870244,13.5603489 18.6983166,13.5603489 L15.7668911,13.5603489 C15.833491,13.0464852 15.9614378,12.5527898 16.1520172,12.0859273 C16.2542497,11.8350227 16.3568496,11.6124193 16.4565842,11.4240477 C16.8647246,10.6543341 17.0072184,10.0067693 17.0462122,9.53579205 L19.1154754,9.53579205 C19.1544876,10.0067693 19.296963,10.6543534 19.7051217,11.4241443 C19.8048563,11.6124193 19.9074562,11.8350227 20.0098724,12.0860239 C20.3011783,12.7998886 20.4489618,13.575842 20.4489618,14.392325 L20.4489618,18.8188159 Z" id="path-1"></path>
    </defs>
    <g id="Symbols" stroke="none" stroke-width="1" fill="none" fill-rule="evenodd">
        <g id="product/kefir">
            <mask id="mask-2" fill="white">
                <use xlink:href="#path-1"></use>
            </mask>
            <use id="kefir" fill="#000000" fill-rule="nonzero" xlink:href="#path-1"></use>
            <rect id="🎨-color" fill="#EB690B" mask="url(#mask-2)" x="0" y="0" width="24" height="24"></rect>
        </g>
    </g>
</svg>