<?xml version="1.0" encoding="UTF-8"?>
<svg width="24px" height="24px" viewBox="0 0 24 24" version="1.1" xmlns="http://www.w3.org/2000/svg" xmlns:xlink="http://www.w3.org/1999/xlink">
    <!-- Generator: Sketch 48.2 (47327) - http://www.bohemiancoding.com/sketch -->
    <title>product/meat</title>
    <desc>Created with Sketch.</desc>
    <defs>
        <path d="M10.709188,13.1925629 L10.709188,13.1924419 C10.5927327,12.676321 10.2873011,12.2384903 9.84911953,11.9596113 C9.41441953,11.6826919 8.90035374,11.5959823 8.40251164,11.7153049 C7.37916427,11.95995 6.74276953,13.0186597 6.98389848,14.0752403 C7.19042479,14.9794258 7.98109848,15.5920549 8.85201427,15.5920549 C8.99789073,15.5919967 9.14328056,15.5748689 9.28534058,15.5410065 C10.290309,15.3024097 10.9423116,14.2268129 10.709188,13.1925387 L10.709188,13.1925629 Z M9.124359,14.8341194 C8.47664321,14.9869742 7.82729321,14.5734097 7.67590374,13.9104339 C7.52361427,13.2432242 7.92221953,12.5755549 8.5644169,12.4219742 C8.6547807,12.4003112 8.74728225,12.3893279 8.84010111,12.3892403 C9.06192743,12.3892403 9.28015374,12.452579 9.47339321,12.5755307 C9.75011953,12.7516597 9.94302743,13.0287 10.016709,13.3554581 L10.016709,13.3553371 C10.1636695,14.0071839 9.75499848,14.6843371 9.12438269,14.8341194 L9.124359,14.8341194 Z M19.3356406,9.21775647 C18.6758932,9.00381292 18.3181906,8.63783711 17.8231195,8.13139356 C17.1448511,7.4374984 16.3006511,6.57381292 14.3170985,5.71155485 C10.8633248,4.21049034 7.3539169,4.71678872 7.20626953,4.7389984 C7.17358532,4.74393388 7.143459,4.75465163 7.114659,4.76769195 C6.84432743,4.80695808 6.57574848,4.88040969 6.31001164,4.9909984 C5.52999585,5.31550647 4.94793269,5.87425647 4.57995111,6.65181292 L4.57893269,6.65394195 C4.30069058,7.25227259 4.2876169,7.85665163 4.272459,8.55657098 C4.25256427,9.47979679 4.2300169,10.5262161 3.60032479,11.9612807 C3.36059321,12.5073774 3.22149585,12.9776758 3.16252216,13.4414661 C3.00663269,14.6672081 3.31748795,15.8519419 4.08653795,16.9626436 C4.66613795,17.7994984 5.45472743,18.442829 6.43056427,18.8751919 C7.09817479,19.1707645 7.81123532,19.3329581 8.55020637,19.3574178 C8.61578795,19.3596678 8.68113269,19.3607323 8.74645374,19.3607323 C9.43632743,19.3607323 10.1130327,19.2391597 10.7606774,18.9991839 C10.7610564,18.9990629 10.7614353,18.9991355 10.7618143,18.9990145 C10.7629037,18.9986274 10.7638985,18.9982161 10.7649643,18.9978049 C10.7655801,18.9976113 10.7661958,18.9974419 10.766788,18.9972242 C10.7679958,18.9967645 10.7691564,18.9962565 10.770388,18.9957726 C13.4013722,18.0610065 14.9263037,16.6136758 16.1518195,15.4504258 C17.1077616,14.5429258 17.8628143,13.8260952 18.8201301,13.6426355 C20.2558669,13.3675065 20.821588,12.3629178 20.8723669,11.5144742 C20.9344669,10.4758452 20.3025722,9.53137743 19.3356643,9.21775647 L19.3356406,9.21775647 Z M8.57329848,18.632071 C7.92409058,18.6105871 7.29821164,18.4682323 6.71314058,18.2092887 C5.85854321,17.8306597 5.16987743,17.2701436 4.66658795,16.5434903 C3.99457216,15.5729178 3.73295637,14.5887484 3.867009,13.5350226 C3.91684058,13.1435226 4.03817479,12.7378452 4.24863269,12.2582323 C4.93720374,10.6889661 4.96252216,9.51543388 4.98289058,8.57251453 C4.99676953,7.93104679 5.00764058,7.42426453 5.22020637,6.9664984 C5.51348795,6.34760324 5.9575669,5.92126453 6.5781169,5.66314356 C7.16155374,5.42072421 7.76256427,5.39604679 8.35639848,5.58790163 C10.3510353,6.28049034 12.9204643,9.31651453 13.5439037,11.7170952 C13.7510222,12.515071 13.8563695,13.2029419 13.8486248,13.7066758 C13.8405248,14.243821 13.7422353,14.7737565 13.5563853,15.2819661 C13.3135274,15.9462242 12.9402406,16.5432726 12.4470169,17.0565629 C11.9075143,17.6179258 11.2604853,18.0413129 10.5238116,18.3151113 C9.89864321,18.5476113 9.24154848,18.6543049 8.57334585,18.6320952 L8.57329848,18.632071 Z M18.6891801,12.9293613 C17.5297195,13.1514581 16.6670222,13.9704581 15.6680695,14.9187 C15.1004537,15.4575145 14.4644143,16.0596194 13.6801353,16.6381355 C13.8990684,16.2917306 14.0807525,15.9221945 14.2220301,15.53595 C14.4363248,14.9497645 14.5497722,14.338079 14.5591274,13.7178774 C14.5679143,13.140571 14.4573564,12.4048452 14.2305801,11.5310226 C13.6998643,9.48700647 11.6976011,6.67336937 9.59614848,5.39084518 C10.8488537,5.45500647 12.4627906,5.69423227 14.0388327,6.37949034 C15.895438,7.18646614 16.6855195,7.99472421 17.3202801,8.64420001 C17.8437011,9.17960324 18.2956432,9.64194195 19.1205406,9.90952259 C19.7765932,10.1222807 20.2052774,10.7641113 20.1630958,11.4702968 C20.1185695,12.2154581 19.567509,12.7610226 18.6891801,12.9293613 Z" id="path-1"></path>
    </defs>
    <g id="Symbols" stroke="none" stroke-width="1" fill="none" fill-rule="evenodd">
        <g id="product/meat">
            <mask id="mask-2" fill="white">
                <use xlink:href="#path-1"></use>
            </mask>
            <use id="meat" fill="#000000" fill-rule="nonzero" xlink:href="#path-1"></use>
            <rect id="🎨-color" fill="#EB690B" mask="url(#mask-2)" x="0" y="0" width="24" height="24"></rect>
        </g>
    </g>
</svg>