<?xml version="1.0" encoding="UTF-8"?>
<svg width="24px" height="24px" viewBox="0 0 24 24" version="1.1" xmlns="http://www.w3.org/2000/svg" xmlns:xlink="http://www.w3.org/1999/xlink">
    <!-- Generator: Sketch 48.2 (47327) - http://www.bohemiancoding.com/sketch -->
    <title>product/milk</title>
    <desc>Created with Sketch.</desc>
    <defs>
        <path d="M15.987,9.17594595 C16.3444211,8.97030811 16.5848684,8.60670811 16.5848684,8.18969189 C16.5848684,7.69184595 16.2434211,7.26930811 15.7668947,7.10317297 C15.6567105,5.88452432 14.8467895,4.89372162 13.5787368,4.43024595 C13.5279211,3.66619459 12.8392368,3.05879189 12.0000263,3.05879189 C11.1608158,3.05879189 10.4720789,3.66617027 10.4213421,4.43024595 C9.15326316,4.89372162 8.34334211,5.88452432 8.23315789,7.10317297 C7.75663158,7.26930811 7.41518421,7.69184595 7.41518421,8.18969189 C7.41518421,8.60670811 7.65563158,8.97030811 8.01307895,9.17594595 C7.52860526,9.57447568 7.22126316,10.1532 7.22126316,10.7983784 L7.22126316,18.7671 C7.22126316,19.9658514 8.27647368,20.9412081 9.57336842,20.9412081 L14.4266316,20.9412081 C15.7235263,20.9412081 16.7787368,19.9658514 16.7787368,18.7671 L16.7787368,10.7984027 C16.7787368,10.1532 16.4713684,9.57447568 15.9869737,9.17597027 L15.987,9.17594595 Z M10.9477895,5.03205405 C11.1338421,4.97873514 11.2487105,4.79961081 11.2199211,4.62158108 C11.2145263,4.58832973 11.2078421,4.55517568 11.2078421,4.52075676 C11.2078421,4.11704595 11.5632632,3.78852162 12.0000263,3.78852162 C12.4367895,3.78852162 12.7922105,4.11704595 12.7922105,4.52075676 C12.7922105,4.5552 12.7855263,4.58832973 12.7801053,4.62158108 L12.7787105,4.63002162 C12.7501393,4.80805349 12.8662842,4.97874829 13.0522632,5.03205405 C14.1145526,5.33669189 14.8196053,6.08342432 14.9640263,7.02538378 L9.03602632,7.02538378 C9.18044737,6.08342432 9.8855,5.33669189 10.9477895,5.03205405 Z M8.67471053,8.62417297 C8.41552632,8.62417297 8.20465789,8.42926216 8.20465789,8.18969189 C8.20465789,7.95002432 8.41552632,7.75511351 8.67471053,7.75511351 L15.3253421,7.75511351 C15.5845263,7.75511351 15.7953947,7.95002432 15.7953947,8.18969189 C15.7953947,8.42928649 15.5845263,8.62417297 15.3253421,8.62417297 L8.67471053,8.62417297 Z M15.9892895,18.7671 C15.9892895,19.5635757 15.2883421,20.2114784 14.4266579,20.2114784 L9.57339474,20.2114784 C8.71171053,20.2114784 8.01076316,19.5635757 8.01076316,18.7671 L8.01076316,10.7984027 C8.01076316,10.0019027 8.71171053,9.3539027 9.57339474,9.3539027 L14.4266579,9.3539027 C15.2883421,9.3539027 15.9892895,10.0019027 15.9892895,10.7984027 L15.9892895,18.7671 Z M11.1315263,11.5721838 L9.21836842,11.5721838 C9.00031579,11.5721838 8.82363158,11.7354973 8.82363158,11.9370486 C8.82363158,12.1386 9.00031579,12.3019135 9.21836842,12.3019135 L11.1315263,12.3019135 C11.3495789,12.3019135 11.5262632,12.1386 11.5262632,11.9370486 C11.5262632,11.7354973 11.3495789,11.5721838 11.1315263,11.5721838 Z M9.21836842,13.9401081 L10.2864211,13.9401081 C10.5044737,13.9401081 10.6811579,13.7768189 10.6811579,13.5752432 C10.6811579,13.3737162 10.5044737,13.2103784 10.2864211,13.2103784 L9.21836842,13.2103784 C9.00031579,13.2103784 8.82363158,13.3737162 8.82363158,13.5752432 C8.82363158,13.7768189 9.00031579,13.9401081 9.21836842,13.9401081 Z M11.1315263,14.8486216 L9.21836842,14.8486216 C9.00031579,14.8486216 8.82363158,15.0119108 8.82363158,15.2134865 C8.82363158,15.4150378 9.00031579,15.5783514 9.21836842,15.5783514 L11.1315263,15.5783514 C11.3495789,15.5783514 11.5262632,15.4150378 11.5262632,15.2134865 C11.5262632,15.0119108 11.3495789,14.8486216 11.1315263,14.8486216 Z M9.21836842,17.2165459 L10.2864211,17.2165459 C10.5044737,17.2165459 10.6811579,17.0532324 10.6811579,16.8516811 C10.6811579,16.6501297 10.5044737,16.4868162 10.2864211,16.4868162 L9.21836842,16.4868162 C9.00031579,16.4868162 8.82363158,16.6501297 8.82363158,16.8516811 C8.82363158,17.0532324 9.00031579,17.2165459 9.21836842,17.2165459 Z M11.1315263,18.1249135 L9.21836842,18.1249135 C9.00031579,18.1249135 8.82363158,18.288227 8.82363158,18.4897784 C8.82363158,18.6913297 9.00031579,18.8546432 9.21836842,18.8546432 L11.1315263,18.8546432 C11.3495789,18.8546432 11.5262632,18.6913297 11.5262632,18.4897784 C11.5262632,18.288227 11.3495789,18.1249135 11.1315263,18.1249135 Z" id="path-1"></path>
    </defs>
    <g id="Symbols" stroke="none" stroke-width="1" fill="none" fill-rule="evenodd">
        <g id="product/milk">
            <mask id="mask-2" fill="white">
                <use xlink:href="#path-1"></use>
            </mask>
            <use id="milk" fill="#000000" fill-rule="nonzero" xlink:href="#path-1"></use>
            <rect id="🎨-color" fill="#EB690B" mask="url(#mask-2)" x="0" y="0" width="24" height="24"></rect>
        </g>
    </g>
</svg>