<?xml version="1.0" encoding="UTF-8"?>
<svg width="24px" height="24px" viewBox="0 0 24 24" version="1.1" xmlns="http://www.w3.org/2000/svg" xmlns:xlink="http://www.w3.org/1999/xlink">
    <!-- Generator: Sketch 48.2 (47327) - http://www.bohemiancoding.com/sketch -->
    <title>product/oil</title>
    <desc>Created with Sketch.</desc>
    <defs>
        <path d="M17.0400409,8.17575 C16.8607394,7.5435375 16.7826212,6.5146125 16.7574288,6.10400625 C16.8838833,6.02229375 16.969053,5.91166875 16.969053,5.7594 L16.969053,4.54696875 C16.969053,4.53871875 16.9672409,4.530975 16.9665121,4.52289375 C16.9669061,4.515675 16.9690727,4.5093375 16.9690727,4.50193125 C16.9690727,3.97614375 15.9701606,3.93530625 15.6639515,3.93530625 C15.3702697,3.93530625 14.4419712,3.97411875 14.3662364,4.44099375 C14.3614302,4.46098668 14.3589466,4.48142183 14.3588303,4.50193125 L14.3588303,5.7594 C14.3588303,5.91165 14.4440197,6.022275 14.5704545,6.1039875 C14.5451045,6.51710625 14.4660606,7.55611875 14.2845727,8.1873 C13.9052682,8.38183125 12.9394667,9.06765 12.9394667,11.00445 L12.9394667,19.0954313 C12.9394667,19.3235813 13.0473667,19.5335062 13.2352955,19.6713937 L13.2851288,19.7087438 C13.6447955,19.9812 14.0483864,20.1896812 15.6639318,20.1896812 C17.2793197,20.1896812 17.6828712,19.9812937 18.0427742,19.7089312 L18.0928045,19.6713 C18.2807136,19.5333187 18.3884364,19.3233937 18.3884364,19.0954313 L18.3884364,11.00445 C18.3884364,8.9836125 17.4393576,8.35198125 17.0400409,8.17575 Z M15.6639515,8.58975 C16.2050273,8.58975 16.5939636,8.676825 16.7838227,8.7533625 C16.5939636,8.82999375 16.2050273,8.91705 15.6639515,8.91705 C15.1228561,8.91705 14.7341167,8.82999375 14.5442576,8.7533625 C14.7341167,8.676825 15.1228561,8.58975 15.6639515,8.58975 Z M15.0000455,5.6815875 C14.9959091,5.67975 14.9912409,5.67879375 14.9869864,5.67714375 C14.9744316,5.67309426 14.9620102,5.66867969 14.9497394,5.66390625 L14.9497394,4.9948125 C15.2238621,5.058825 15.5201439,5.06855625 15.6639515,5.06855625 C15.8077394,5.06855625 16.1040212,5.05880625 16.3781636,4.9948125 L16.3781636,5.663925 C16.3658929,5.66869844 16.3534714,5.67311301 16.3409167,5.6771625 C16.3366424,5.6788125 16.3319939,5.67976875 16.3278576,5.68160625 C16.2011864,5.72135625 15.9696879,5.76354375 15.6639515,5.76354375 C15.3581955,5.76354375 15.126697,5.72135625 15.0000455,5.68160625 L15.0000455,5.6815875 Z M15.8272591,4.50193125 C15.7184588,4.50724129 15.6094442,4.50724129 15.5006439,4.50193125 C15.6094442,4.49662121 15.7184588,4.49662121 15.8272591,4.50193125 Z M15.6639515,6.326025 C15.7727773,6.326025 15.969353,6.3203625 16.1772152,6.29011875 C16.2071545,6.72301875 16.2751879,7.48153125 16.4098364,8.08130625 C16.1679182,8.0443125 15.9100652,8.02725 15.6639515,8.02725 C15.4178379,8.02725 15.1599848,8.0443125 14.9180667,8.08130625 C15.0526955,7.48155 15.1207485,6.72301875 15.1506879,6.29011875 C15.3585303,6.3203625 15.5551258,6.326025 15.6639515,6.326025 Z M17.7975273,19.0954312 C17.7975273,19.1477062 17.7736742,19.1953125 17.7321333,19.2258 L17.6748152,19.2686437 C17.4639788,19.4283937 17.2014182,19.6271625 15.6639515,19.6271625 C14.1262682,19.6271625 13.8639045,19.4284125 13.6530879,19.2686625 L13.5959667,19.2258937 C13.5542091,19.1952187 13.5303758,19.1477062 13.5303758,19.0954312 L13.5303758,11.00445 C13.5303758,10.0473187 13.7886621,9.4663875 14.0547682,9.1209 C14.3832545,9.37910625 15.0593727,9.47955 15.6639515,9.47955 C16.28025,9.47955 16.9714561,9.37554375 17.292497,9.1061625 C17.5496212,9.44278125 17.7975273,10.0201687 17.7975273,11.00445 L17.7975273,19.0954312 Z M16.2496606,14.6143875 C16.2683136,14.6143875 16.2869667,14.6139187 16.3060136,14.613 L16.3062106,14.613 C16.8038348,14.5887375 17.0938924,14.258325 17.1866061,14.0668875 C17.2296693,13.9784725 17.2214441,13.875118 17.1648803,13.7938875 C17.0423652,13.61745 16.7074576,13.3255125 16.2379409,13.3479375 C16.2331152,13.3481625 16.2289394,13.3494187 16.2241333,13.3497187 C16.2315394,13.3374 16.2383348,13.3254562 16.2458591,13.3130625 C16.4625258,13.19985 16.7542379,12.9422062 16.8030667,12.514875 C16.8592227,12.0231562 16.5503152,11.684325 16.3589,11.5616437 C16.2739268,11.5074426 16.1656062,11.4987613 16.0723091,11.538675 C15.8610985,11.6294812 15.4894758,11.9074312 15.4361955,12.3734437 C15.3997561,12.6933187 15.5301106,12.9552375 15.675297,13.1320312 C15.4563061,13.501725 15.2798212,13.8473062 15.141253,14.1691125 C15.1312076,14.1583312 15.1239591,14.1469875 15.1132439,14.136375 C14.7533409,13.7796937 14.2818939,13.78785 14.0601061,13.8489 C13.9618025,13.8760032 13.8852389,13.9496094 13.8577394,14.04345 C13.7954182,14.25585 13.781,14.705475 14.1220333,15.0433125 C14.3171909,15.2364937 14.5547758,15.3196312 14.7650015,15.34665 C14.3957621,17.2345125 15.4921742,17.9812875 15.5548894,18.021975 C15.6054712,18.0549375 15.6629864,18.0706875 15.7199106,18.0706875 C15.8130182,18.0706875 15.9047667,18.0283875 15.9622818,17.9499375 C16.0549955,17.8235625 16.0222985,17.6488125 15.8905455,17.559075 C15.8578485,17.5368187 15.4601076,17.2521187 15.3238242,16.5681562 C15.4917606,16.6554375 15.704153,16.7253937 15.9551712,16.7253937 C16.0090227,16.7253937 16.0646076,16.7222062 16.1217485,16.7152312 C16.875,16.6239562 17.1750636,15.9783375 17.1875712,15.9509625 C17.2280488,15.8614294 17.2169129,15.7583259 17.1581439,15.6785062 C17.1404561,15.6542437 16.7116924,15.0860625 15.916703,15.1813687 C15.6899318,15.2088 15.507597,15.2821125 15.3606576,15.3726562 C15.4207136,15.0936562 15.5178,14.7836063 15.6623561,14.4400312 C15.8120136,14.5377562 16.0086288,14.6143875 16.2496606,14.6143875 Z M16.2681167,13.9097062 C16.3716045,13.9047562 16.4529727,13.9345125 16.5179924,13.9718625 C16.4595121,14.0121375 16.3798773,14.0461125 16.2760152,14.0512312 C16.1707939,14.0561812 16.0888545,14.0300812 16.0259621,13.99575 C16.0867273,13.952175 16.1675242,13.9146375 16.2681167,13.9096875 L16.2681167,13.9097062 Z M14.418453,14.3871375 C14.5015545,14.4017063 14.5994682,14.43915 14.6873758,14.5262062 C14.7754606,14.6135625 14.81125,14.70795 14.8231667,14.7873188 C14.7348848,14.7734063 14.6327364,14.7374438 14.5480985,14.6534813 C14.4632833,14.5697062 14.4296212,14.4712875 14.418453,14.3871375 Z M16.0236379,12.4342312 C16.0369136,12.3184125 16.0946258,12.2305312 16.1554106,12.1683562 C16.1971485,12.2383125 16.2294712,12.3337125 16.2156045,12.4541062 C16.2017576,12.5746687 16.1486742,12.6613687 16.0921045,12.720975 C16.0469197,12.647925 16.0103621,12.5502375 16.0236379,12.4342312 Z M15.9913348,15.7394812 L15.9913348,15.7393875 C16.2434955,15.7095375 16.4293167,15.7977937 16.5430076,15.8800125 C16.4493288,15.9917062 16.2885227,16.1280187 16.0471167,16.157325 C15.8064788,16.1862562 15.6141182,16.0928625 15.4941045,16.0072687 C15.5831545,15.9004125 15.7403167,15.7697812 15.9913348,15.7394625 L15.9913348,15.7394812 Z M11.2477136,6.8339625 L9.98990455,5.89719375 L9.98990455,5.32160625 C10.2006227,5.2228875 10.3515409,5.0802 10.3515409,4.87134375 L10.3515409,3.81088125 C10.3515409,3.79903125 10.3493742,3.7877625 10.3478773,3.77630625 C10.3484682,3.76725 10.3515409,3.7593 10.3515409,3.75 C10.3515409,3.1150875 8.96832121,3.08295 8.69114545,3.08295 C8.42411364,3.08295 7.13563636,3.114375 7.0398303,3.68325 C7.03431515,3.7047375 7.03057273,3.72688125 7.03057273,3.75 L7.03057273,4.87134375 C7.03057273,5.08018125 7.18145152,5.22290625 7.3921697,5.32160625 L7.3921697,5.89719375 L6.1343803,6.83394375 C6.12654835,6.83977525 6.11903404,6.84598332 6.11186667,6.85254375 C5.79391818,7.14285 5.61156364,7.54970625 5.61156364,7.96884375 L5.61156364,9.7695 C5.61156364,10.143675 5.70236667,10.5130875 5.87392727,10.8377438 C6.19035909,11.4367688 6.61488788,12.6233063 5.90087273,13.8390188 C5.71158485,14.1614625 5.61156364,14.5480875 5.61156364,14.95725 L5.61156364,19.6511625 C5.61156364,19.7730188 5.6475303,19.8884625 5.71562273,19.9851375 C5.96106667,20.3332125 6.67411667,20.91705 8.69114545,20.91705 C10.6746894,20.91705 11.3960121,20.347875 11.6493348,20.0088563 C11.7283715,19.903673 11.7707595,19.7775403 11.7705303,19.6482188 L11.7705303,14.9586188 C11.7705303,14.5485563 11.6704894,14.1614625 11.4812212,13.8390188 C10.7672061,12.6232875 11.1917348,11.4367688 11.508147,10.8378375 C11.6797273,10.5130875 11.7705106,10.143675 11.7705106,9.7695 L11.7705106,7.96884375 C11.7705106,7.54944375 11.5881758,7.1425875 11.2702076,6.85245 C11.263045,6.8459271 11.2555373,6.83975657 11.2477136,6.8339625 Z M6.25289697,10.19055 C6.2193645,10.0524753 6.20244758,9.91121642 6.20247273,9.7695 L6.2024727,8.2532625 C6.83892121,8.57248125 7.93990303,8.6737125 8.69114545,8.6737125 C9.44238788,8.6737125 10.5432121,8.57248125 11.1796212,8.2532625 L11.1796212,9.7695 C11.1796212,9.9119625 11.1624848,10.0531875 11.1293939,10.1895563 C10.9087879,10.3885688 10.0302833,10.6591125 8.69055455,10.6591125 C7.44275152,10.6591125 6.51100606,10.4193563 6.25289697,10.19055 Z M11.0886212,7.62975 C10.9847591,7.77853125 10.1820682,8.11123125 8.69114545,8.11123125 C7.20020303,8.11123125 6.39733485,7.77853125 6.29345303,7.62973125 C6.39733485,7.48096875 7.20020303,7.14826875 8.69114545,7.14826875 C10.1820682,7.14826875 10.9847591,7.48096875 11.0886212,7.62975 Z M7.62146212,4.8039375 L7.62146212,4.286325 C7.70316515,4.31023125 7.78843333,4.32939375 7.87383939,4.3453875 L7.87383939,4.89148125 C7.75404242,4.8625875 7.66810455,4.8308625 7.62146212,4.80395625 L7.62146212,4.8039375 Z M8.46474848,4.4111625 C8.5634303,4.4158125 8.6440697,4.41703125 8.69114545,4.41703125 C8.7155697,4.41703125 8.75106364,4.4165625 8.7909697,4.4156625 L8.7909697,4.9736625 C8.75764242,4.9744125 8.72591061,4.975875 8.69114545,4.975875 C8.61151061,4.975875 8.53662273,4.9735125 8.46474848,4.9699125 L8.46474848,4.4111625 Z M9.38187879,4.3665375 C9.50858939,4.3476 9.63843182,4.3220625 9.76063182,4.2862875 L9.76063182,4.8039375 C9.69907879,4.839525 9.56943333,4.88349375 9.38187879,4.91814375 L9.38187879,4.36651875 L9.38187879,4.3665375 Z M8.69114545,3.6454125 C9.09237273,3.6454125 9.3980303,3.69586875 9.58617576,3.74998125 C9.3980303,3.80409375 9.0925697,3.85453125 8.69114545,3.85453125 C8.28970152,3.85453125 7.98424091,3.80409375 7.79591818,3.74998125 C7.98424091,3.69586875 8.28970152,3.64543125 8.69114545,3.64543125 L8.69114545,3.6454125 Z M7.86958485,6.25569375 C7.94125414,6.20246669 7.98312973,6.12074957 7.98307879,6.03421875 L7.98307879,5.48514375 C8.28985909,5.53245 8.57975909,5.538375 8.69114545,5.538375 C8.80243333,5.538375 9.09223485,5.53245 9.39899545,5.4851625 L9.39899545,6.03421875 C9.39899545,6.12073125 9.44075303,6.20240625 9.51248939,6.25569375 L10.1024136,6.6951 C9.61587879,6.6160125 9.10123636,6.58573125 8.69112576,6.58573125 C8.28099545,6.58573125 7.76621515,6.6160125 7.27956212,6.6951375 L7.86960455,6.25569375 L7.86958485,6.25569375 Z M11.1679015,19.682625 C11.0501727,19.840275 10.5237121,20.3545312 8.69116515,20.3545312 C6.83226364,20.3545312 6.31925606,19.8317812 6.20633333,19.671825 C6.20499394,19.6699125 6.20249242,19.663125 6.20249242,19.6511437 L6.20249242,15.0561188 C6.74941818,15.3066937 7.65707424,15.4591313 8.69057424,15.4591313 C9.52223939,15.4591313 10.5509333,15.3479813 11.1796409,15.0576938 L11.1796409,19.6482187 C11.1797081,19.6605954 11.1755924,19.6726645 11.1679015,19.6826438 L11.1679015,19.682625 Z M11.1053439,14.447175 C10.8496576,14.6437875 9.98547273,14.8966125 8.69057424,14.8966125 C7.47767424,14.8966125 6.56399091,14.6700937 6.27667121,14.4472687 C6.31179091,14.3285062 6.35689697,14.2153687 6.41677576,14.1134812 C7.13266212,12.8944687 6.89119697,11.7165375 6.57651818,10.9586437 C7.12192727,11.1248062 7.86653182,11.2215937 8.69059394,11.2215937 C9.37218788,11.2215937 10.1867561,11.1471562 10.8048273,10.9605937 C10.4905227,11.7185062 10.2500818,12.8955 10.9653576,14.1134812 C11.0251576,14.2152562 11.0702242,14.3283562 11.1053439,14.447175 Z" id="path-1"></path>
    </defs>
    <g id="Symbols" stroke="none" stroke-width="1" fill="none" fill-rule="evenodd">
        <g id="product/oil">
            <mask id="mask-2" fill="white">
                <use xlink:href="#path-1"></use>
            </mask>
            <use id="oil" fill="#000000" fill-rule="nonzero" xlink:href="#path-1"></use>
            <rect id="🎨-color" fill="#EB690B" mask="url(#mask-2)" x="0" y="0" width="24" height="24"></rect>
        </g>
    </g>
</svg>