<?xml version="1.0" encoding="UTF-8"?>
<svg width="24px" height="24px" viewBox="0 0 24 24" version="1.1" xmlns="http://www.w3.org/2000/svg" xmlns:xlink="http://www.w3.org/1999/xlink">
    <!-- Generator: Sketch 48.2 (47327) - http://www.bohemiancoding.com/sketch -->
    <title>product/porrige</title>
    <desc>Created with Sketch.</desc>
    <defs>
        <path d="M10.2973974,8.86471908 C10.182373,9.00823487 10.2031827,9.21970592 10.3440217,9.33678224 C10.4052217,9.38789408 10.4789559,9.41256645 10.5521632,9.41256645 C10.6475632,9.41256645 10.7423047,9.37040197 10.8073681,9.28936118 C11.1785632,8.82649145 11.6560461,7.66568224 10.8059632,6.5861375 C10.109912,5.70233882 10.7117486,5.00571908 10.783573,4.92841382 C10.9089803,4.79559013 10.9056437,4.58436513 10.7758461,4.45547829 C10.6455217,4.32636776 10.4369193,4.32878355 10.3102608,4.46203224 C9.92697053,4.86309803 9.43006077,5.91117039 10.2923486,7.00599276 C11.0174413,7.92694539 10.3261096,8.8280125 10.2973974,8.86471908 Z M8.10313151,8.80202039 C7.98810712,8.94553618 8.00891687,9.15700724 8.1497559,9.27408355 C8.2109559,9.32519539 8.28469004,9.34986776 8.35789736,9.34986776 C8.45329736,9.34986776 8.54803882,9.30772566 8.61310224,9.22668487 C8.86284126,8.91518224 9.18427297,8.13425592 8.61288273,7.40880329 C8.26614126,6.96843618 8.53399004,6.63006908 8.59253395,6.56540197 C8.71695346,6.43260066 8.71341931,6.22180066 8.58395102,6.09336118 C8.45360468,5.96425066 8.24502419,5.96664408 8.1183437,6.09989276 C7.85659736,6.37383882 7.51576077,7.08768224 8.09924614,7.82865855 C8.47033151,8.29982697 8.14029492,8.75397303 8.10313151,8.80202039 Z M20.9441559,8.33608618 C20.9436918,8.00204882 20.8531867,7.67456001 20.6825193,7.38936513 L19.773212,5.87278618 L19.7736071,4.81722039 C19.7737169,4.56031908 19.6755291,4.31894145 19.4971754,4.13744408 C19.31959,3.95655066 19.0836583,3.85672039 18.8506461,3.85672039 L18.8478583,3.85672039 L14.1733461,3.59852171 C13.6536291,3.59964013 13.2313315,4.0310375 13.2321876,4.56054276 L13.2336803,5.61823355 L12.3082608,7.18424671 C12.1571014,7.44008834 12.0774174,7.73315478 12.0778169,8.03178618 L12.0829315,11.6455836 C11.7981696,11.6413459 11.5133822,11.639124 11.22859,11.6389178 C10.37269,11.6401928 9.5313437,11.6608388 8.72536077,11.6998046 L5.51688273,7.10452566 C5.31269248,6.8118125 5.00807541,6.62306776 4.65931443,6.57282829 C4.31022419,6.52301382 3.96635834,6.61783355 3.69058516,6.84151776 C3.41470224,7.06475461 3.24587541,7.38477961 3.21523151,7.74236118 C3.18456565,8.09996513 3.29636321,8.4450875 3.52992419,8.71377697 L6.29057541,11.8895559 C3.04251931,12.2558164 3.04074126,12.8155638 3.04115834,13.0909191 C3.04124614,13.1597691 3.05213395,13.2290888 3.08089004,13.2982743 C3.14929004,14.2447046 3.73995346,18.6288033 8.80561443,19.9062862 C8.82405346,19.9220112 8.85309492,19.9512914 8.87355346,19.9720493 C8.96669248,20.0657507 9.08257297,20.1826257 9.25096077,20.2160441 C9.87485834,20.3390257 10.5495949,20.4014783 11.2567974,20.4014783 L11.2714827,20.4014783 C12.0467339,20.4001809 12.782012,20.324173 13.4568364,20.1751993 C13.6239291,20.1384928 13.7421583,20.0203204 13.8371193,19.9255007 C13.8612437,19.901477 13.8958608,19.8669625 13.916012,19.8507901 C14.4403608,19.7042322 14.9141998,19.5237862 15.3438949,19.3181309 C15.3715754,19.3288007 15.4004193,19.3371441 15.4313705,19.339873 L18.2771047,19.5910704 C18.2834925,19.591652 18.2899242,19.5917638 18.2963339,19.5919651 C18.2971681,19.5919651 18.2979144,19.5923901 18.2987486,19.5923901 C18.2994071,19.5923901 18.3000657,19.5921664 18.3007242,19.5921664 C18.3023266,19.5921888 18.3039291,19.5923901 18.3055096,19.5923901 C18.3088022,19.5923901 18.3117876,19.5906454 18.3150583,19.5905559 C18.3336071,19.5896612 18.3522437,19.5885428 18.37099,19.5842928 L20.7014852,19.0530428 C20.852086,19.0187319 20.9590811,18.8824182 20.9588413,18.7251664 L20.9441559,8.33608618 Z M14.1561144,4.26914934 L18.8304071,4.52734803 L18.8307144,4.52734803 C18.9067096,4.52734803 18.9780949,4.55747829 19.0317876,4.61210197 C19.0854803,4.66692697 19.1150705,4.73966908 19.1150705,4.81699671 L19.1147413,5.61693618 L13.8918876,5.38974013 L13.8907242,4.55967039 C13.8905047,4.39998224 14.0178217,4.26979803 14.1561144,4.26914934 Z M13.7443096,6.05490987 L18.8761315,6.27828092 L18.1295047,7.54379671 C18.1226998,7.55531645 18.1179583,7.56779803 18.1115486,7.57949671 L12.979573,7.34903487 L13.7443096,6.05490987 Z M12.7363535,8.03093618 C12.7363535,8.0239125 12.7375827,8.01706776 12.7377144,8.01008882 L17.9606998,8.24464408 L17.9662535,12.1557625 C17.6561266,12.0867559 17.2842291,12.020277 16.8319461,11.9574217 C15.6964535,11.7995901 14.2812803,11.698798 12.74149,11.6587586 L12.7363535,8.03093618 Z M11.2294461,12.3099704 L11.3132778,12.3099704 C15.3191559,12.3099704 18.0288583,12.730273 18.66619,13.0679691 C18.5389169,13.1358349 18.325573,13.2072349 18.038912,13.2781651 C18.023612,13.2725507 18.0083339,13.2668243 17.9918925,13.2634691 C16.66999,12.9958757 14.133812,12.6852454 11.316373,12.6852454 L11.2604413,12.6852454 C10.7260169,12.6861401 10.1838876,12.6979283 9.64902419,12.7204309 C9.63234126,12.7211243 9.61642663,12.7243678 9.60051199,12.7274993 C9.43592175,12.6368625 9.2909998,12.5098993 9.1812876,12.3527836 L9.18054126,12.3517322 C9.86320415,12.3248834 10.5462976,12.3109604 11.2294681,12.3099704 L11.2294461,12.3099704 Z M11.4154388,13.846323 C11.413112,13.8431243 11.4116413,13.8395678 11.4092047,13.8364586 L11.2031925,13.5723546 C11.143112,13.4953625 11.0766437,13.4252599 11.0069266,13.3593178 C11.0916583,13.3586243 11.1769827,13.3564546 11.2614071,13.3563204 L11.3167242,13.3563204 C13.0200071,13.3563204 14.6146754,13.4714283 15.8916437,13.620827 C14.7033364,13.7481033 13.1894486,13.8378454 11.4154388,13.8463007 L11.4154388,13.846323 Z M3.8712876,7.80089934 C3.88608273,7.62855066 3.96732419,7.47432039 4.10034858,7.36663882 C4.23326321,7.25895724 4.39844614,7.21220724 4.56714126,7.23734934 C4.7351998,7.26157434 4.88192175,7.35245724 4.98032907,7.49333355 L8.64471199,12.7416362 C8.94065834,13.1656072 9.40014126,13.4528625 9.90563395,13.5297651 C10.1489193,13.5668296 10.3708022,13.6777993 10.5499461,13.8439072 C9.8544876,13.8364809 9.20343638,13.8162375 8.59863638,13.7862414 C8.51890955,13.5302572 8.38961687,13.2921901 8.21427053,13.0904717 L4.02297053,8.26902566 C3.91031687,8.1395125 3.85651443,7.97324803 3.8712876,7.80089934 Z M7.72133395,13.5354467 C7.77702419,13.5995099 7.82373638,13.6704401 7.86529004,13.7442783 C7.41957053,13.7145283 7.00579004,13.6794099 6.62397053,13.6403322 C6.98539775,13.5953881 7.34748204,13.5561119 7.71009492,13.5225178 L7.72133395,13.5354467 Z M6.8276559,12.5073941 L7.17046809,12.9017493 C6.14337053,13.0103033 5.2094559,13.1539533 4.49042175,13.3138651 C4.17322663,13.2394678 3.93676809,13.1640414 3.79926565,13.0922164 C4.10838273,12.934877 4.97826565,12.6877507 6.8276559,12.5073717 L6.8276559,12.5073941 Z M13.721151,19.2094651 C13.5721681,19.2505336 13.4634876,19.3591099 13.3762315,19.4462572 C13.3509437,19.471377 13.3147242,19.5076362 13.2931681,19.5246586 C12.6702144,19.6600993 11.9898144,19.7291283 11.2705169,19.730448 L11.2565778,19.730448 C10.6033974,19.730448 9.98151931,19.6743033 9.40775834,19.5633336 C9.38826565,19.5467362 9.35814858,19.5163599 9.33681199,19.4949533 C9.2505437,19.4080296 9.14313638,19.299677 8.99103638,19.2616507 C4.94981687,18.2555191 4.01280712,15.1960336 3.7956437,13.8070217 C4.18400468,13.9470704 4.76413151,14.0801178 5.62922907,14.2003704 C7.10867541,14.4061599 9.06562663,14.518852 11.1484242,14.518852 L11.232673,14.518852 C13.346773,14.5155862 15.3365193,14.3967428 16.835173,14.1839967 C17.7509339,14.053902 18.3447583,13.9103862 18.7318022,13.760048 C18.5278535,15.1140533 17.6339998,18.1253796 13.721151,19.2094428 L13.721151,19.2094651 Z M17.9733217,17.1872928 L17.9757144,18.8909612 L16.3362876,18.7462822 C17.0216925,18.2788941 17.5566217,17.7418283 17.9733437,17.1872928 L17.9733217,17.1872928 Z M18.6341852,18.8366283 L18.6306071,16.2751309 C18.6305632,16.2381336 18.6232315,16.2031941 18.6123437,16.1699322 C19.4342413,14.5756454 19.4506169,13.1187007 19.450551,13.0911428 C19.4504632,13.0258717 19.4313657,12.9655664 19.39969,12.9141414 C19.344373,12.7175901 19.1548461,12.5207928 18.6250315,12.3366336 L18.6191266,8.16418487 C18.6190561,8.06743397 18.6448828,7.97249564 18.6938266,7.88959013 L19.4461608,6.61434408 L20.1204583,7.73887171 C20.2282413,7.91905145 20.2853742,8.12594283 20.2856193,8.33695855 L20.2998876,18.4569243 L18.6341852,18.8366283 Z" id="path-1"></path>
    </defs>
    <g id="Symbols" stroke="none" stroke-width="1" fill="none" fill-rule="evenodd">
        <g id="product/porrige">
            <mask id="mask-2" fill="white">
                <use xlink:href="#path-1"></use>
            </mask>
            <use id="porrige" fill="#000000" fill-rule="nonzero" xlink:href="#path-1"></use>
            <rect id="🎨-color" fill="#EB690B" mask="url(#mask-2)" x="0" y="0" width="24" height="24"></rect>
        </g>
    </g>
</svg>