<?xml version="1.0" encoding="UTF-8"?>
<svg width="24px" height="24px" viewBox="0 0 24 24" version="1.1" xmlns="http://www.w3.org/2000/svg" xmlns:xlink="http://www.w3.org/1999/xlink">
    <!-- Generator: Sketch 48.2 (47327) - http://www.bohemiancoding.com/sketch -->
    <title>product/potato</title>
    <desc>Created with Sketch.</desc>
    <defs>
        <path d="M6.83882641,11.8461282 C6.86189914,11.8519142 6.88505369,11.8544882 6.90784005,11.8544882 C7.04756505,11.8544882 7.17391278,11.7511542 7.20657869,11.5984082 C7.22186144,11.5274059 7.21475932,11.4529535 7.18639005,11.3867682 C7.1693105,11.2127482 7.1888855,10.5278442 7.46854005,10.0577482 C7.55993096,9.90436421 7.5182855,9.70024821 7.37555369,9.60186421 C7.23274005,9.50367821 7.04296278,9.54836021 6.95179687,9.70196421 C6.5511946,10.3750762 6.51942869,11.3878462 6.61331505,11.6351482 C6.65105369,11.7343902 6.74156505,11.8220602 6.83882641,11.8461282 Z M5.24621505,11.2061042 C5.0949946,11.1236042 4.91033096,11.1884822 4.83372869,11.3511282 C4.82264232,11.3745362 4.56475141,11.9335562 4.80805823,12.5155882 C4.8591946,12.6378202 4.9710605,12.7102222 5.08810141,12.7102222 C5.13015596,12.7102222 5.17290596,12.7009822 5.21375369,12.6812262 C5.36826732,12.6064482 5.43728096,12.4111542 5.36777641,12.2448782 C5.24811732,11.9587022 5.37755369,11.6576982 5.38203323,11.6473802 C5.45693778,11.4851742 5.39651505,11.2881642 5.24621505,11.2061042 Z M7.19209687,13.2890202 C7.02359232,13.3081382 6.90154005,13.4707622 6.91943778,13.6520862 C6.9249196,13.7070862 6.98024914,14.2005902 7.23791505,14.5400502 C7.29619217,14.6169689 7.38358916,14.6615528 7.47584232,14.6614242 C7.54405823,14.6614242 7.61268323,14.6371582 7.66969005,14.5870862 C7.80092641,14.4717182 7.82050141,14.2639722 7.71334005,14.1228202 C7.5924946,13.9636282 7.53976278,13.6780902 7.52957641,13.5814002 C7.51129005,13.4005162 7.35968096,13.2692422 7.19207641,13.2890202 L7.19209687,13.2890202 Z M5.88161505,9.14294421 C5.99967869,9.01340821 5.99826732,8.80544221 5.87834232,8.67782021 C5.75796732,8.54934021 5.5637105,8.55063821 5.44435823,8.67997621 C5.42247187,8.70382421 5.22574005,8.92360421 5.0698355,9.30387421 C5.00151732,9.47081021 5.07171732,9.66544421 5.22682414,9.73914421 C5.26707869,9.75806421 5.30913323,9.76708421 5.3503696,9.76708421 C5.46833096,9.76708421 5.58068778,9.69360421 5.63133323,9.57027221 C5.74009005,9.30473221 5.8764196,9.14897221 5.88161505,9.14294421 Z M17.5324219,15.0303202 C17.258556,15.1742662 17.118831,15.1456882 17.1172355,15.1456882 C17.1301219,15.1484822 17.1363196,15.1519142 17.1363196,15.1519142 L16.9317741,15.7741182 C16.9569332,15.7837762 17.0320423,15.8076242 17.1523969,15.8076242 C17.3019196,15.8076242 17.5213355,15.7706642 17.8018901,15.6232862 C17.9540923,15.5433602 18.0172151,15.3457122 17.9428219,15.1819882 C17.868306,15.0182862 17.6847264,14.9503942 17.5324219,15.0303202 Z M14.385531,14.7873302 C13.8398037,14.8706882 13.5397969,14.7087022 13.5208151,14.6979442 C13.3738901,14.6105162 13.1888378,14.6667922 13.105731,14.8238502 C13.022031,14.9821842 13.0735764,15.1837262 13.2208901,15.2737502 C13.2599378,15.2977962 13.5615605,15.4709582 14.0844196,15.4709582 C14.2023605,15.4709582 14.3317151,15.4621582 14.4716241,15.4408842 C14.6394128,15.4153202 14.7561673,15.2481642 14.7324196,15.0676982 C14.7084264,14.8874522 14.5522151,14.7621842 14.385531,14.7873302 Z M20.1558605,8.84926621 C19.7093378,8.40983821 18.8663446,7.93032621 18.6153673,7.79196821 C18.2592128,7.21886821 17.6660719,6.75180821 16.5362651,6.58093421 C15.1090901,6.36496021 14.3272355,6.71093221 14.0890014,6.84425221 C13.0257741,6.64257821 11.8577582,6.88622821 11.075331,7.27798221 C11.0653082,7.27342821 11.0557355,7.26775221 11.0456105,7.26346221 C11.0264855,7.24907421 11.0060719,7.23624821 10.9834696,7.22654621 C10.899606,7.19068621 9.17774232,6.46906421 7.94648096,7.08807821 C7.65768323,7.03897421 6.87724005,6.96355821 6.11661732,7.39112821 L5.9536355,7.48113021 C5.01049687,7.99826221 3.2549855,8.96098221 3.1921696,11.8153942 C3.1325446,14.5213722 5.34259687,15.7019142 6.53910596,15.7326482 L6.54649005,15.7326482 C6.56342641,15.7326482 6.5798105,15.7302282 6.5960105,15.7273682 C7.22772869,16.0347082 8.24254005,16.3743882 9.6436355,16.3743882 C9.98305823,16.3743882 10.3462287,16.3532462 10.7310605,16.3081242 C11.1503582,16.2845842 11.5193991,16.1389882 11.8319446,15.8719742 C12.4911946,16.6984262 13.5905855,17.4396942 15.4203469,17.4864222 C15.4723832,17.4876982 15.5237241,17.4883362 15.5748605,17.4883362 C17.9777991,17.4881162 19.4528991,16.0296922 19.5434514,13.5593342 C20.1102469,12.9382962 20.5097855,12.3167302 20.6980901,11.7599542 C20.9615446,10.9809342 20.745831,9.42956021 20.1558401,8.84926621 L20.1558605,8.84926621 Z M3.80560141,11.8308602 C3.85982641,9.37007221 5.34499005,8.55578621 6.23228778,8.06916821 L6.40087414,7.97593221 C6.72064005,7.79617021 7.05075596,7.73102821 7.32147187,7.71466021 C7.32053096,7.79969021 7.34963778,7.88505021 7.40950823,7.95036821 C7.46715334,8.01325413 7.54585616,8.04861976 7.62796278,8.04853221 C7.70575141,8.04853221 7.78364232,8.01696221 7.84347187,7.95336021 C8.21318778,7.56129821 8.76670823,7.47272621 9.29267641,7.50266821 C8.80352641,7.88718421 8.51037187,8.54296021 8.42235596,9.45362821 C8.12232869,12.5606882 8.38390141,14.6412282 9.19969005,15.6381142 C9.21762869,15.6600262 9.23695823,15.6790562 9.25540823,15.6999342 C7.24877641,15.5946202 6.21925823,14.7452002 6.20121732,14.7297342 C6.06938778,14.6158842 5.87680823,14.6379942 5.7704446,14.7793882 C5.74784232,14.8094182 5.7321946,14.8427922 5.72084232,14.8772662 C4.79335141,14.4920682 3.76835369,13.5218902 3.80560141,11.8308602 Z M10.9328446,15.6171922 C10.8304696,15.6321522 10.7337196,15.6407762 10.6346173,15.6519962 C10.6119332,15.6522822 10.5898628,15.6538222 10.5667082,15.6531402 C10.1976469,15.6439002 9.90111732,15.4963242 9.66032641,15.2019862 C8.97217414,14.3610802 8.75515141,12.3969862 9.03278096,9.52193821 C9.10212187,8.80436421 9.31155596,8.30357821 9.65521278,8.03392421 C10.0579219,7.71789421 10.5340219,7.82081021 10.5367219,7.82122821 C10.5563991,7.82595821 10.5764855,7.82853221 10.5966537,7.82919221 C10.9884605,7.83896021 11.7150469,8.29372221 12.2113355,11.1928822 C11.7366673,11.4519542 11.4525332,11.7433222 11.344431,11.8680402 C10.9217582,12.0984462 10.7934469,12.3771422 10.7626423,12.5815882 C10.7619264,12.5847562 10.7615378,12.5880342 10.7609241,12.5912462 C10.7603514,12.5953822 10.7591446,12.6000022 10.7586537,12.6040942 C10.758081,12.6087802 10.7583469,12.6134662 10.7578764,12.6181742 C10.7566491,12.6290862 10.7543991,12.6396242 10.7541537,12.6509322 C10.7539774,12.6636913 10.7539092,12.6764518 10.7539491,12.6892122 C10.7539491,12.6947122 10.7539082,12.7002122 10.7540105,12.7057122 C10.7557696,12.9486142 10.7945514,13.9710642 11.2968741,15.0163722 C11.3478673,15.1224562 11.4066537,15.2308942 11.4699196,15.3398602 C11.3119491,15.4796482 11.1331151,15.5707722 10.9328446,15.6171922 Z M18.7500605,12.1220522 C18.751206,12.1239222 18.7518196,12.1259462 18.753006,12.1277722 C18.7607582,12.1398282 18.7697582,12.1588582 18.7795151,12.1841142 C18.785406,12.2258482 18.7420832,12.3045642 18.6646014,12.3894622 C18.0047378,13.1119862 16.8368855,13.4277962 14.991681,13.3792422 C13.0963423,13.3311282 11.6169878,12.9358102 11.4317105,12.7860562 C11.3868537,12.7459282 11.3656014,12.7074722 11.367381,12.6896962 L11.367381,12.6884642 C11.3718196,12.6566302 11.4327537,12.5507882 11.6631332,12.4352222 C11.7053106,12.4139289 11.7424576,12.3826399 11.7717878,12.3437022 C11.7769832,12.3365962 12.3046287,11.6501742 13.4799469,11.4351022 C13.9150151,11.3556382 14.4443787,11.3242662 14.9768923,11.3242662 C15.9487901,11.3242662 16.9304651,11.4286782 17.3637332,11.5335302 C18.3835969,11.7810302 18.6697355,12.0132842 18.7500605,12.1220522 Z M15.434931,16.8264222 C12.475731,16.7510062 11.6680832,14.7014422 11.4487082,13.5059402 C12.1797537,13.7763202 13.6208173,14.0046802 14.9771173,14.0392422 C15.0963474,14.0422172 15.2156052,14.0437206 15.3348673,14.0437522 C17.0217537,14.0437522 18.1759014,13.7166122 18.9252332,13.0277702 C18.9339264,13.1680862 18.9382219,13.3191602 18.933681,13.4825762 C18.8984173,14.7639222 18.3983446,16.9020362 15.434931,16.8264222 Z M20.1213946,11.5343882 C20.0104491,11.8625182 19.7950014,12.2371562 19.5018878,12.6222882 C19.4717991,12.3924982 19.4287423,12.1850822 19.3747014,12.0193562 C19.3725537,12.0102042 19.3710196,12.0000842 19.3686264,11.9913502 C19.3454105,11.9064302 19.3073651,11.8283302 19.2589491,11.7552462 C19.2583355,11.7542562 19.2578037,11.7527602 19.2571696,11.7517922 C19.2551446,11.7486682 19.2525264,11.7463142 19.2504196,11.7432782 C18.9450332,11.2979542 18.2077082,11.0618282 17.4986719,10.8898542 C16.8129128,10.7237762 14.7364082,10.5357862 13.377081,10.7845842 C13.179069,10.8207565 12.9836736,10.8718938 12.7923469,10.9376162 C12.6506991,10.1160262 12.3397901,8.57175821 11.6475878,7.73771621 C12.5230832,7.39495621 13.745631,7.26084421 14.6851696,7.72027021 C14.8400719,7.79610421 15.0212378,7.72240421 15.0914582,7.55654621 C15.1403037,7.44115621 15.1209741,7.31217021 15.0534741,7.21840621 C15.3902787,7.16397821 15.8509151,7.14382621 16.4507651,7.23448821 C17.8578332,7.44740421 18.1925923,8.16218421 18.4149128,8.87634821 C18.4578673,9.01426621 18.5775264,9.10149621 18.7058582,9.10149621 C18.7381151,9.10149621 18.7709855,9.09612821 18.8033446,9.08429221 C18.9278719,9.03950021 19.0069901,8.91693821 19.0115923,8.78355221 C19.2767651,8.95480021 19.5555401,9.15315221 19.7416764,9.33632421 C20.1323787,9.72044421 20.3042787,10.9938262 20.1213946,11.5343882 Z M15.1485878,9.04046821 C15.0288264,9.16336021 15.0250423,9.37046821 15.1352923,9.50323821 C15.1398946,9.50882621 15.2474651,9.64139821 15.2440696,9.92519821 C15.2419628,10.1076002 15.3774946,10.2571342 15.5470014,10.2594882 L15.5509901,10.2594882 C15.7185741,10.2594882 15.8555173,10.1144862 15.857706,9.93380021 C15.8644969,9.36510021 15.6016151,9.07098221 15.5716696,9.03939021 C15.4535037,8.91478221 15.2683287,8.91715821 15.1485878,9.04049021 L15.1485878,9.04046821 Z M13.4881491,8.26747621 C13.3960628,8.11470821 13.2066128,8.07218221 13.0645764,8.17014821 C12.9224582,8.26897221 12.8816105,8.47308821 12.9730014,8.62603221 C12.9745969,8.62862821 13.1273923,8.88686421 13.219581,9.22975621 C13.2584446,9.37412021 13.3809673,9.46801621 13.5142287,9.46801621 C13.5423946,9.46801621 13.5710514,9.46392421 13.5995241,9.45512421 C13.7623219,9.40441421 13.8560855,9.22137421 13.8090605,9.04627621 C13.6906082,8.60561621 13.4963514,8.28100621 13.4881491,8.26747621 Z M16.9304651,7.71274621 C16.796631,7.60144821 16.6036832,7.62809021 16.5001014,7.77225621 C16.3965401,7.91662021 16.4214128,8.12394821 16.5555332,8.23524621 C16.5563514,8.23588421 16.6397241,8.31537021 16.6851741,8.45568621 C16.7293151,8.59164621 16.8479719,8.67696221 16.9749128,8.67696221 C17.0083764,8.67696221 17.0425355,8.67115421 17.0758969,8.65848221 C17.2358923,8.59853221 17.3203901,8.41032221 17.2646514,8.23823821 C17.1576741,7.90823821 16.9534355,7.73186421 16.9304651,7.71274621 Z M17.9963514,10.1658122 C17.9938877,10.159054 17.9915215,10.1522552 17.9892537,10.1454182 C17.9848849,10.1318709 17.9808878,10.1181884 17.9772673,10.1043882 C18.0760628,10.0549762 18.1471628,9.95034421 18.1541378,9.82507621 C18.1644264,9.64311421 18.035706,9.48671621 17.866506,9.47573821 C17.7412628,9.46608021 17.5660696,9.51635021 17.4517287,9.67877621 C17.3322741,9.84828621 17.3180787,10.0779442 17.4095923,10.3617662 C17.5221332,10.7104662 17.7388696,10.8326982 17.9380151,10.8326982 C17.9804582,10.8326982 18.022206,10.8271102 18.0618673,10.8170122 C18.2267514,10.7749042 18.3288196,10.5972322 18.2897719,10.4197802 C18.2568196,10.2698062 18.1334787,10.1681882 17.9963514,10.1658342 L17.9963514,10.1658122 Z" id="path-1"></path>
    </defs>
    <g id="Symbols" stroke="none" stroke-width="1" fill="none" fill-rule="evenodd">
        <g id="product/potato">
            <mask id="mask-2" fill="white">
                <use xlink:href="#path-1"></use>
            </mask>
            <use id="potato" fill="#000000" fill-rule="nonzero" xlink:href="#path-1"></use>
            <rect id="🎨-color" fill="#EB690B" mask="url(#mask-2)" x="0" y="0" width="24" height="24"></rect>
        </g>
    </g>
</svg>