<?xml version="1.0" encoding="UTF-8"?>
<svg width="24px" height="24px" viewBox="0 0 24 24" version="1.1" xmlns="http://www.w3.org/2000/svg" xmlns:xlink="http://www.w3.org/1999/xlink">
    <!-- Generator: Sketch 48.2 (47327) - http://www.bohemiancoding.com/sketch -->
    <title>product/products</title>
    <desc>Created with Sketch.</desc>
    <defs>
        <path d="M21,12.1035555 C21,10.8247361 19.1250368,9.76579162 16.4235197,9.50111108 C16.3809615,9.09451386 15.896669,8.83333331 15.1574836,8.83333331 C14.4181462,8.83333331 13.9339919,9.09462498 13.891641,9.50136108 C13.4371945,9.5458194 13.0039856,9.61048607 12.6015623,9.69705553 C12.6322235,9.65823608 12.6532953,9.61124997 12.6532953,9.55777776 L12.6532953,7.38058333 C12.7677464,7.18630554 12.8334766,6.9818611 12.8334766,6.76866667 C12.8334766,5.68544445 11.2676128,4.78934721 9.00818921,4.56109723 C8.95908153,4.28619446 8.65643499,4 7.91684885,4 C7.17695872,4 6.87432601,4.28627777 6.82527359,4.56120834 C4.56386027,4.78912501 3,5.68263889 3,6.76866667 C3,6.982 3.06579933,7.18659722 3.18040237,7.3809861 L3.18040237,16.0433333 C3.18040237,16.8908889 3.64202019,18.8622222 7.91684885,18.8622222 C8.78437199,18.8622222 9.54820801,18.7802222 10.1866909,18.6182222 C10.2267343,18.6080972 10.258791,18.5854444 10.2863848,18.5584722 C11.0193799,19.3324028 12.4389293,20 15.1574836,20 C20.2359429,20 20.7842246,17.6708889 20.7842246,16.6695556 L20.7842246,12.834625 C20.9239342,12.6030139 21,12.3581527 21,12.1035555 Z M20.5472254,12.1035555 C20.5472254,12.2873055 20.4886389,12.4666111 20.3798116,12.6386527 C20.3720875,12.649 20.3641977,12.659125 20.3582976,12.6707361 C19.7298048,13.6046805 17.60303,14.3142222 15.1574836,14.3142222 C12.7281037,14.3142222 10.6137371,13.6139444 9.96975485,12.6891666 C9.95733285,12.6509722 9.93675845,12.6176666 9.90776918,12.591375 C9.81730545,12.4338056 9.76774178,12.2705833 9.76774178,12.1035555 C9.76774178,11.0885416 11.5794757,10.1721944 14.0011453,9.94755554 C14.0804721,10.1517917 14.16925,10.4386805 14.16925,10.6802222 L14.16925,10.84775 C13.9242643,10.998875 13.8833919,11.1887361 13.8833919,11.296 C13.8833919,11.6908889 14.3954163,11.9562222 15.1574836,11.9562222 C15.919772,11.9562222 16.4317964,11.6908889 16.4317964,11.296 C16.4317964,11.1846805 16.3882572,10.9919028 16.134442,10.8409444 L16.134442,10.6802222 C16.134442,10.4263472 16.2281528,10.1377361 16.3035001,9.94572221 C18.7273115,10.1686527 20.5472254,11.09025 20.5472254,12.1035555 Z M15.6816674,10.6802222 L15.6816674,11.0893333 C15.6816674,11.2148889 15.7829227,11.3168889 15.9080547,11.3168889 C15.9281455,11.3168889 15.9461498,11.3103194 15.964693,11.3053889 C15.8982719,11.3760278 15.629285,11.5011111 15.1574836,11.5011111 C14.6610869,11.5011111 14.3893089,11.3627083 14.3434207,11.3062777 C14.3606512,11.3105 14.377108,11.3168889 14.3956373,11.3168889 C14.5207694,11.3168889 14.6220246,11.2148889 14.6220246,11.0893333 L14.6220246,10.6802222 C14.6220246,10.5217222 14.5952738,10.3575555 14.5577729,10.2041944 C14.7334358,10.25275 14.933625,10.282 15.1574836,10.282 C15.3761331,10.282 15.5722737,10.2541527 15.7451178,10.2077639 C15.708059,10.3601111 15.6816674,10.5229444 15.6816674,10.6802222 Z M15.1574836,9.28844442 C15.7253034,9.28844442 15.9732461,9.46312498 15.9780961,9.55480552 C15.9723341,9.56688886 15.965301,9.58191663 15.9566926,9.60090275 C15.8829482,9.69024998 15.6095535,9.82688886 15.1574836,9.82688886 C14.6240144,9.82688886 14.3361665,9.63577773 14.3361665,9.55777774 C14.3361665,9.46688887 14.5842197,9.28844442 15.1574836,9.28844442 Z M8.31722717,5.57977775 L8.31722717,5.92133331 C8.31722717,5.92155554 8.31722717,5.92155554 8.31722717,5.92177775 C8.31740681,6.0203472 8.3809124,6.10224997 8.46841917,6.13362497 C8.36423459,6.17943051 8.18217411,6.22777774 7.91684887,6.22777774 C7.64881538,6.22777774 7.46570477,6.17843052 7.36204527,6.13233329 C7.44649834,6.0993194 7.50674301,6.01797218 7.50674301,5.92133329 L7.50674301,5.57977773 C7.50674301,5.46584717 7.49067316,5.34854162 7.46657529,5.23634717 C7.60146254,5.26773607 7.75275126,5.28488885 7.91684887,5.28488885 C8.07678739,5.28488885 8.22453883,5.26854162 8.35682835,5.23863884 C8.33300684,5.35012497 8.31722717,5.46663886 8.31722717,5.57977775 Z M7.91684887,4.45511109 C8.3798899,4.45511109 8.55201555,4.5933472 8.56367757,4.63363887 C8.56062388,4.64015276 8.55595353,4.65073609 8.55220898,4.65893053 C8.49805786,4.7210833 8.28508746,4.82977776 7.91684885,4.82977776 C7.50409,4.82977776 7.2849984,4.69288887 7.26797515,4.64244442 C7.26797515,4.60422219 7.43732345,4.45511109 7.91684887,4.45511109 Z M6.92612815,5.0082083 C6.98572338,5.16479165 7.05396844,5.38487496 7.05396844,5.57977775 L7.05396844,5.69868053 C6.84939911,5.83231943 6.8152006,5.99899998 6.8152006,6.0942222 C6.8152006,6.4462222 7.25802651,6.68288887 7.91684887,6.68288887 C8.57567123,6.68288887 9.01827608,6.4462222 9.01827608,6.0942222 C9.01827608,6.01440276 8.98888607,5.83488887 8.77000174,5.6943611 L8.77000174,5.57977777 C8.77000174,5.38426388 8.83868895,5.163375 8.89840854,5.00672223 C10.8892321,5.19552778 12.3807021,5.94566667 12.3807021,6.76866667 C12.3807021,7.64222222 10.5870692,8.57733333 7.91684887,8.57733333 C5.24662855,8.57733333 3.45277459,7.64222222 3.45277459,6.76866667 C3.45277459,5.94413886 4.93726665,5.1980972 6.92612815,5.0082083 Z M7.91684887,18.4071111 C6.62882903,18.4071111 3.63317696,18.1768888 3.63317696,16.0433333 L3.63317696,7.89301386 C4.46920983,8.57818052 6.05535787,9.03244442 7.91684887,9.03244442 C9.77833988,9.03244442 11.364557,8.57812498 12.2005208,7.89286108 L12.2005208,9.55777774 C12.2005208,9.64855552 12.2542297,9.72541662 12.3306271,9.76195829 C10.4946848,10.2127638 9.31496721,11.0866805 9.31496721,12.1035555 C9.31496721,12.3582777 9.3911159,12.6032639 9.53096368,12.8349861 L9.53096368,16.6695555 C9.53096368,17.0520277 9.61201762,17.6281527 9.99388036,18.1942777 C9.40728249,18.3340972 8.71126318,18.4071111 7.91684887,18.4071111 Z M15.1574836,19.5448888 C13.6019553,19.5448888 9.98373825,19.2646666 9.98373825,16.6695555 L9.98373825,13.3604027 C10.9531108,14.2051666 12.8838832,14.7693333 15.1574836,14.7693333 C17.4312637,14.7693333 19.3621466,14.2050694 20.33145,13.3601944 L20.33145,16.6695555 C20.33145,19.2646666 16.7132329,19.5448888 15.1574836,19.5448888 Z" id="path-1"></path>
    </defs>
    <g id="Symbols" stroke="none" stroke-width="1" fill="none" fill-rule="evenodd">
        <g id="product/products">
            <mask id="mask-2" fill="white">
                <use xlink:href="#path-1"></use>
            </mask>
            <use id="products" fill="#000000" fill-rule="nonzero" xlink:href="#path-1"></use>
            <rect id="🎨-color" fill="#FFFFFF" mask="url(#mask-2)" x="0" y="0" width="24" height="24"></rect>
        </g>
    </g>
</svg>