<?xml version="1.0" encoding="UTF-8"?>
<svg width="24px" height="24px" viewBox="0 0 24 24" version="1.1" xmlns="http://www.w3.org/2000/svg" xmlns:xlink="http://www.w3.org/1999/xlink">
    <!-- Generator: Sketch 48.2 (47327) - http://www.bohemiancoding.com/sketch -->
    <title>product/pumpkin</title>
    <desc>Created with Sketch.</desc>
    <defs>
        <path d="M13.1999358,7.28237029 C13.7171739,3.84237029 11.9171853,3.24237029 11.8344272,3.22237029 L11.7930481,3.22237029 C10.3240918,2.88237029 9.49651083,3.96237029 9.24823653,4.58237029 C9.20685748,4.68237029 9.20685748,4.82237029 9.26892606,4.92237029 C9.33099463,5.02237029 9.43444226,5.10237029 9.53788988,5.12237029 C10.0758175,5.22237029 10.448229,5.46237029 10.6758138,5.82237029 C10.9861566,6.30237029 10.9861566,6.92237029 10.9447776,7.28237029 C5.93791254,7.58237029 3.0827581,10.0023703 3.0827581,14.0423703 C3.0827581,18.3623703 6.33101352,20.8423703 11.9999434,20.8423703 C17.6688732,20.8423703 20.9171286,18.3623703 20.9171286,14.0423703 C20.9378181,10.0223703 18.1240427,7.60237029 13.1999358,7.28237029 Z M12.6413186,20.0223703 C12.4344234,20.0223703 12.2275281,20.0423703 12.0206329,20.0423703 C11.8137376,20.0423703 11.6068424,20.0423703 11.3999471,20.0223703 C10.7378823,19.5623703 9.97236991,18.1423703 9.97236991,14.0423703 C9.97236991,9.94237029 10.7378823,8.52237029 11.3999471,8.06237029 C11.6068424,8.06237029 11.8137376,8.04237029 12.0206329,8.04237029 L12.57925,8.04237029 C12.5999396,8.04237029 12.5999396,8.04237029 12.6206291,8.06237029 L12.6620081,8.06237029 C13.3240729,8.54237029 14.0688958,9.96237029 14.0688958,14.0223703 C14.0688958,18.1423703 13.3033834,19.5423703 12.6413186,20.0223703 Z M10.7585719,8.08237029 C9.74478513,9.34237029 9.55857941,12.1623703 9.55857941,14.0223703 C9.55857941,15.8823703 9.74478513,18.7223703 10.7585719,19.9823703 C10.4068499,19.9623703 10.055128,19.9223703 9.68271656,19.8623703 C7.94479646,19.2423703 6.28963447,17.7023703 6.28963447,14.0423703 C6.28963447,10.3823703 7.94479646,8.84237029 9.68271656,8.22237029 C10.055128,8.16237029 10.4068499,8.12237029 10.7585719,8.08237029 Z M13.2826939,19.9823703 C14.2964806,18.7223703 14.4826863,15.9023703 14.4826863,14.0423703 C14.4826863,12.1823703 14.2964806,9.34237029 13.2826939,8.08237029 C13.6344158,8.10237029 13.9861377,8.14237029 14.3585492,8.20237029 C16.0964693,8.82237029 17.7516313,10.3623703 17.7516313,14.0223703 C17.7516313,17.6823703 16.0964693,19.2223703 14.3585492,19.8423703 C13.9861377,19.9023703 13.6344158,19.9423703 13.2826939,19.9823703 Z M11.3999471,5.38237029 C11.1309833,4.96237029 10.7378823,4.66237029 10.2413337,4.48237029 C10.4689185,4.18237029 10.882709,3.84237029 11.5861529,3.98237029 C11.71029,4.04237029 12.7861453,4.62237029 12.3516653,7.26237029 L11.7930481,7.26237029 C11.8344272,6.76237029 11.8137376,6.02237029 11.3999471,5.38237029 Z M3.93102862,14.0223703 C3.93102862,10.7423703 5.93791254,9.22237029 8.15169171,8.54237029 C6.66204592,9.64237029 5.85515444,11.5023703 5.85515444,14.0223703 C5.85515444,16.5423703 6.66204592,18.4023703 8.15169171,19.5023703 C5.93791254,18.8423703 3.93102862,17.3023703 3.93102862,14.0223703 Z M15.8688845,19.5223703 C17.3585303,18.4223703 18.1654218,16.5623703 18.1654218,14.0423703 C18.1654218,11.5223703 17.3585303,9.66237029 15.8688845,8.56237029 C18.1033532,9.24237029 20.0895476,10.7623703 20.0895476,14.0423703 C20.0895476,17.3223703 18.1033532,18.8423703 15.8688845,19.5223703 Z" id="path-1"></path>
    </defs>
    <g id="Symbols" stroke="none" stroke-width="1" fill="none" fill-rule="evenodd">
        <g id="product/pumpkin">
            <mask id="mask-2" fill="white">
                <use xlink:href="#path-1"></use>
            </mask>
            <use id="pumpkin" fill="#000000" fill-rule="nonzero" xlink:href="#path-1"></use>
            <rect id="🎨-color" fill="#EB690B" mask="url(#mask-2)" x="0" y="0" width="24" height="24"></rect>
        </g>
    </g>
</svg>