<?xml version="1.0" encoding="UTF-8"?>
<svg width="15px" height="16px" viewBox="0 0 15 16" version="1.1" xmlns="http://www.w3.org/2000/svg" xmlns:xlink="http://www.w3.org/1999/xlink">
    <!-- Generator: Sketch 48.2 (47327) - http://www.bohemiancoding.com/sketch -->
    <title>icon/replace</title>
    <desc>Created with Sketch.</desc>
    <defs></defs>
    <g id="icon/replace" stroke="none" stroke-width="1" fill="none" fill-rule="evenodd">
        <path d="M1.53352941,9.01914339 C1.59882353,9.42589282 1.33111765,9.81012577 0.935470588,9.87767523 C0.54,9.94467993 0.166588235,9.66903456 0.101294118,9.26228513 C0.033,8.83737724 0,8.41410361 0,7.99591435 C0,4.28414419 2.60523529,1.01652988 6.27758824,0.391697379 C6.69052941,0.321060982 7.10188235,0.286923083 7.50829412,0.287104668 C9.40729412,0.287649422 11.1808235,1.03468834 12.5283529,2.28907453 L12.5768824,0.723089216 C12.5897647,0.310892246 12.9248824,-0.0126914545 13.3254706,0.000382634442 C13.7262353,0.0134567234 14.0407059,0.358467403 14.0278235,0.770482789 L13.9196471,4.25581699 L13.9196471,4.25618016 L13.9191176,4.25835918 C13.9154118,4.50041141 13.8109412,4.73665293 13.5981176,4.8770178 C13.4272941,4.98960023 13.2282353,5.01774584 13.0448824,4.97452871 L9.76076471,4.86666748 C9.36017647,4.85359339 9.04570588,4.50858271 9.05858824,4.09620416 C9.07129412,3.68418877 9.40658824,3.36060507 9.80717647,3.37367916 L11.5987059,3.43251256 C10.5061765,2.39711735 9.05488235,1.78027457 7.50829412,1.78081933 C7.18094118,1.78100091 6.84917647,1.80842018 6.51423529,1.86561932 C3.55288235,2.36661114 1.45147059,5.00812186 1.45147059,7.99591435 C1.45164706,8.33311689 1.47829412,8.67467746 1.53352941,9.01896181 L1.53352941,9.01914339 Z M14.0643529,6.13194875 C14.4598235,6.06458088 14.8334118,6.34004467 14.8988824,6.74697569 C14.967,7.17170199 15,7.59461245 15,8.01280171 C15,11.7240271 12.3945882,14.9914598 8.72241176,15.6179266 C8.30911765,15.6878367 7.89776471,15.7216114 7.49205882,15.7214298 C5.59870588,15.7208851 3.83047059,14.9774778 2.48435294,13.7305366 L2.43635294,15.2769108 C2.42364706,15.6891078 2.08852941,16.0126915 1.68776471,15.9996174 C1.287,15.9865433 0.972529412,15.6415326 0.985411765,15.2295172 L1.08811765,11.9166883 C1.02635294,11.6207055 1.13876471,11.3043852 1.401,11.1315167 C1.52752941,11.0478062 1.66905882,11.023837 1.80882353,11.0274687 L1.842,11.021658 L5.25264706,11.1338773 C5.65323529,11.1469514 5.96770588,11.491962 5.95482353,11.9043406 C5.94211765,12.316356 5.60682353,12.6399397 5.20623529,12.6268656 L3.39052941,12.5671243 C4.48429412,13.6081486 5.94035294,14.2288047 7.49205882,14.2282599 C7.81976471,14.2280783 8.15188235,14.2010222 8.48576471,14.1443678 C11.4471176,13.6421049 13.5485294,11.0004126 13.5485294,8.0129833 C13.5483529,7.67578075 13.5218824,7.33440176 13.4666471,6.99048059 L13.4666471,6.99066218 C13.4013529,6.58373116 13.6688824,6.19913504 14.0643529,6.13194875 Z" fill="#EB690B" fill-rule="nonzero"></path>
    </g>
</svg>