<?xml version="1.0" encoding="UTF-8"?>
<svg width="16px" height="16px" viewBox="0 0 16 16" version="1.1" xmlns="http://www.w3.org/2000/svg" xmlns:xlink="http://www.w3.org/1999/xlink">
    <!-- Generator: Sketch 48.2 (47327) - http://www.bohemiancoding.com/sketch -->
    <title>icon/test/orange</title>
    <desc>Created with Sketch.</desc>
    <defs></defs>
    <g id="4--02-menu-edit-mode" stroke="none" stroke-width="1" fill="none" fill-rule="evenodd" transform="translate(-288.000000, -161.000000)">
        <g id="меню-на-день" transform="translate(0.000000, 161.000000)" fill="#EB690B" fill-rule="nonzero">
            <g id="icon/test/orange" transform="translate(288.000000, 0.000000)">
                <path d="M0.0145777778,8 C0.0145777778,3.59591111 3.58613333,0.0241777778 8,0.0145777778 C12.4040889,0.0241777778 15.9854222,3.59591111 15.9854222,8 C15.9854222,12.4138667 12.4040889,15.9854222 8,15.9854222 C3.58613333,15.9854222 0.0145777778,12.4138667 0.0145777778,8 Z M3.37333333,12.6266667 C4.56391111,13.8076444 6.19004444,14.5335111 8,14.5335111 C9.80035556,14.5335111 11.4360889,13.8076444 12.6170667,12.6266667 C13.7978667,11.4360889 14.5335111,9.80995556 14.5335111,8 C14.5335111,6.19964444 13.7978667,4.57351111 12.6170667,3.38293333 C11.4360889,2.20213333 9.80035556,1.46648889 8,1.46648889 C6.19004444,1.46648889 4.56391111,2.20213333 3.37333333,3.38293333 C2.19235556,4.57351111 1.46648889,6.19964444 1.46648889,8 C1.46648889,9.80995556 2.19235556,11.4360889 3.37333333,12.6266667 Z M11.4554667,6.80942222 L7.16746667,11.3877333 C7.02222222,11.5425778 6.8384,11.6200889 6.63502222,11.6200889 C6.43164444,11.6200889 6.23822222,11.5425778 6.10257778,11.3877333 L3.95395556,9.09368889 C3.68302222,8.80337778 3.69262222,8.34844444 3.99271111,8.06773333 C4.28302222,7.79662222 4.73795556,7.816 5.01866667,8.10648889 L6.6352,9.82933333 L10.4005333,5.81244444 C10.6714667,5.52213333 11.1361778,5.50275556 11.4264889,5.78346667 C11.7168,6.0544 11.7361778,6.50933333 11.4554667,6.80942222 Z"></path>
            </g>
        </g>
    </g>
</svg>