<?xml version="1.0" encoding="UTF-8"?>
<svg width="16px" height="16px" viewBox="0 0 16 16" version="1.1" xmlns="http://www.w3.org/2000/svg" xmlns:xlink="http://www.w3.org/1999/xlink">
    <!-- Generator: Sketch 48.2 (47327) - http://www.bohemiancoding.com/sketch -->
    <title>icon/search</title>
    <desc>Created with Sketch.</desc>
    <defs></defs>
    <g id="5--04-catalog-change" stroke="none" stroke-width="1" fill="none" fill-rule="evenodd" transform="translate(-51.000000, -100.000000)">
        <g id="текстовое-поле" transform="translate(8.000000, 88.000000)" fill="#9B9B9B">
            <g id="icon/search" transform="translate(43.000000, 12.000000)">
                <g id="Shape">
                    <path d="M12.4641149,11.3687467 C13.4231681,10.1712044 13.9999176,8.65404129 14.0001059,7.00003235 C13.9995412,3.13352529 10.8661949,0.000188233633 7.00005294,0 C3.13372274,0.000188233633 0.000376468374,3.13352529 0,7.00003235 C0.000376468374,10.8661629 3.13372274,13.9995 7.00005294,13.9998765 C8.65406674,13.9998765 10.1712343,13.4227522 11.3691567,12.46389 L14.6783137,15.7734138 C14.9806178,16.0755287 15.4707796,16.0755287 15.7732719,15.7734138 C16.075576,15.4709223 16.075576,14.9807619 15.7732719,14.6784587 L12.4641149,11.3687467 Z M3.14501679,10.8548689 C2.15716378,9.86570118 1.54860266,8.50778375 1.54822619,7.00003235 C1.54860266,5.49190448 2.15716378,4.13417529 3.14501679,3.14500754 C4.13399921,2.15734567 5.49210887,1.54878633 7.00005294,1.54822163 C8.50799701,1.54878633 9.86591844,2.15734567 10.8549009,3.14500754 C11.8427539,4.13417529 12.451315,5.49209272 12.4516915,7.00003235 C12.451315,8.50759552 11.8427539,9.86513648 10.8552773,10.8543042 L10.8549009,10.8544925 L10.8545244,10.8550572 C9.86535373,11.8425308 8.50762054,12.4510901 6.99986471,12.4516548 C5.49210887,12.4510901 4.13418745,11.8425308 3.14501679,10.8548689 Z" fill-rule="nonzero"></path>
                </g>
            </g>
        </g>
    </g>
</svg>