<?xml version="1.0" encoding="UTF-8"?>
<svg width="24px" height="24px" viewBox="0 0 24 24" version="1.1" xmlns="http://www.w3.org/2000/svg" xmlns:xlink="http://www.w3.org/1999/xlink">
    <!-- Generator: Sketch 48.2 (47327) - http://www.bohemiancoding.com/sketch -->
    <title>product/soup</title>
    <desc>Created with Sketch.</desc>
    <defs>
        <path d="M11.6983891,8.54878307 C11.7610191,8.62929366 11.85475,8.67595287 11.9536818,8.67586769 C12.0269989,8.67586769 12.100755,8.65041384 12.1618452,8.59789077 C12.3026843,8.47687538 12.3234721,8.25872923 12.2085794,8.11066769 C12.1755647,8.06829846 11.4121891,7.06228307 12.213716,6.01232923 C13.1312111,4.81048307 12.6034379,3.66113692 12.196155,3.22124461 C12.0690355,3.08444461 11.8608721,3.08174461 11.7303282,3.21471384 C11.6002013,3.34809846 11.5974135,3.56739846 11.724116,3.70440615 C11.755616,3.73821384 12.4866135,4.54906769 11.7001013,5.57917538 C10.794833,6.76482154 11.3033111,8.04012154 11.6983891,8.54876 L11.6983891,8.54878307 Z M14.0611306,9.02359077 C14.1233193,9.10375628 14.2165542,9.15020016 14.3149525,9.15002923 C14.3873916,9.15002923 14.4604891,9.12478307 14.5216013,9.07318307 C14.6626599,8.95419846 14.6849404,8.73672154 14.5728355,8.58752923 C14.5297452,8.53029846 14.1627428,8.01106769 14.5751843,7.47086 C15.1925623,6.66203692 14.8328696,5.88362923 14.5561086,5.58503692 C14.4294282,5.44826 14.2210672,5.44532923 14.0905233,5.57873692 C13.9603965,5.71193692 13.9576086,5.93119077 14.0845086,6.06822154 C14.1003794,6.08534461 14.4729355,6.49888307 14.0615696,7.03749846 C13.4564184,7.83009846 13.7968379,8.68329846 14.0611306,9.02359077 Z M9.20209645,9.02359077 C9.26702816,9.10742923 9.36176962,9.15069846 9.45716962,9.15069846 C9.5304867,9.15069846 9.60424279,9.12524461 9.66533304,9.07251384 C9.80617206,8.95170615 9.82695987,8.73356 9.71184767,8.58549846 C9.69448426,8.56295231 9.2893306,8.02929846 9.71590865,7.47065231 C10.3330891,6.66203692 9.9733745,5.88365231 9.6970306,5.58526769 C9.57037206,5.44802923 9.36176962,5.44556 9.23144523,5.57850615 C9.10109889,5.71193692 9.09833304,5.93119077 9.22501353,6.06799077 C9.24108182,6.08534461 9.61344035,6.49888307 9.20229401,7.03726769 C8.59692328,7.83009846 8.93734279,8.68329846 9.2020745,9.02359077 L9.20209645,9.02359077 Z M20.7931306,11.6995215 C20.7933501,11.3997523 20.7917257,10.7893677 17.2682038,10.3858446 L20.2730843,6.81979077 C20.519816,6.52682923 20.638133,6.15069846 20.6057769,5.76060615 C20.5733989,5.37051384 20.3950452,5.02163692 20.103533,4.77780615 C19.8115379,4.53441384 19.4482013,4.43096 19.0794867,4.48505231 C18.7107721,4.53983692 18.3887916,4.74559077 18.1729013,5.06469846 L14.7100965,10.1815908 C13.8370745,10.1377677 12.9267794,10.11476 12.0021721,10.1134446 L11.9093404,10.1134446 C9.66877938,10.1134446 7.56326231,10.2385215 5.9720184,10.4667985 C3.55084279,10.8141062 3.2099184,11.2495908 3.2070867,11.6690831 C3.2070867,11.6698446 3.20686718,11.6705831 3.20686718,11.6713677 L3.20686718,11.6734908 C3.20662572,11.7768062 3.24875011,18.58076 9.11997694,20.2738215 C9.14225743,20.2914062 9.18319645,20.3333138 9.2110745,20.36216 C9.3109745,20.4651523 9.43530621,20.59316 9.60830377,20.6325985 C10.3339452,20.7975523 11.1238818,20.8818292 11.9560525,20.8832138 L11.9742721,20.8832138 C12.7322696,20.8832138 13.4566379,20.8140062 14.1269623,20.6776677 C14.3005965,20.6422908 14.4223599,20.5156446 14.5201086,20.4137831 C14.5443208,20.3887677 14.5788282,20.3526985 14.5994184,20.3353446 C20.1142672,18.9011138 20.6932086,13.0481138 20.7532233,11.9162831 C20.781716,11.8438908 20.7930208,11.7714754 20.7931306,11.6995215 Z M16.7373135,11.02436 C18.8250282,11.2341523 19.7581745,11.5248985 20.0563379,11.7008831 C19.9125355,11.7892677 19.6428867,11.8831908 19.2609574,11.9753138 C18.4738306,11.7942062 17.4474355,11.6320446 16.3203721,11.5107062 L16.731255,11.0230908 C16.7333184,11.0233215 16.7352062,11.0241292 16.7373135,11.02436 Z M15.7600013,12.1757138 L15.7805257,12.1513908 C15.7808989,12.1514138 15.7812721,12.1515523 15.7816452,12.1516215 C16.2699062,12.1980062 16.7428013,12.2523523 17.1896843,12.3127908 C16.7046721,12.3675523 16.165616,12.4161062 15.5776745,12.4558215 C15.6279208,12.3556677 15.6880891,12.2609831 15.7600013,12.1757138 Z M18.7094769,5.46605231 C18.8196721,5.30336 18.9836477,5.19854461 19.1716599,5.17059846 C19.3603086,5.14221384 19.5452916,5.19561384 19.6936599,5.31979077 C19.8422038,5.44396769 19.9330818,5.62200615 19.9496111,5.82079077 C19.9660965,6.01955231 19.9058623,6.21132154 19.7800379,6.36074461 L15.2671745,11.7166677 C15.0764184,11.9427754 14.9374672,12.2108369 14.8533062,12.4987908 C14.1799086,12.5333138 13.451194,12.5560908 12.6726062,12.5637523 C12.8761379,12.3503831 13.1351623,12.2062908 13.4229647,12.16106 C13.9603965,12.0765523 14.4491404,11.7615062 14.7640525,11.2961369 L18.7094769,5.46605231 Z M12.0493013,12.2510138 L11.8274404,12.5444369 C11.8222379,12.5512908 11.8188135,12.5589292 11.8142038,12.56606 C9.78700865,12.5567138 8.07461596,12.4460369 6.76180133,12.2916754 C8.18595255,12.1133138 10.0105818,11.97236 11.9667647,11.9679523 C12.0780574,11.9681369 12.1913916,11.9709523 12.3035404,11.9720369 C12.2109009,12.0567083 12.125802,12.1500876 12.0493013,12.2510138 Z M11.9082428,10.8057754 L12.001294,10.8057754 C12.7674135,10.8068831 13.5224038,10.8236369 14.2549379,10.8541677 L14.2272794,10.8950138 C14.1053184,11.0751754 13.9437355,11.2204677 13.7601574,11.3233677 C13.7412355,11.3189369 13.7218965,11.3155215 13.701855,11.3146446 C13.1240761,11.2896931 12.5458862,11.2766906 11.9676208,11.2756446 L11.9086818,11.2756446 C8.87515499,11.2756446 6.14582816,11.6206677 4.72437694,11.9177138 C4.70446718,11.9218677 4.68565499,11.9284677 4.66743548,11.93606 C4.31946475,11.8476062 4.0738306,11.7582754 3.93999401,11.6743215 C4.55243304,11.2923292 7.49249157,10.8057754 11.9082428,10.8057754 Z M14.4176404,19.6694369 C14.2605135,19.7097754 14.1475306,19.8273985 14.0568501,19.9218292 C14.0317818,19.9479754 13.9957599,19.9853831 13.9738745,20.0036369 C13.3472989,20.1291754 12.6767769,20.1866369 11.9569086,20.1909062 C11.1791769,20.1895677 10.4428452,20.11226 9.76843792,19.9608292 C9.74442328,19.9423446 9.70155255,19.8981754 9.67196231,19.8677369 C9.57528914,19.7681369 9.46553304,19.6552446 9.31161109,19.6112831 C4.94582084,18.3635369 4.07938426,14.1352677 3.90792328,12.4101754 C4.32016718,12.5787292 4.96285499,12.7403369 5.96855011,12.8876369 C7.58145987,13.1238062 9.72255987,13.2558754 11.9978477,13.2592446 L12.0906794,13.2592446 C14.3312404,13.2592446 16.4367574,13.1341677 18.0280013,12.9058908 C19.0000452,12.76646 19.6329208,12.6126985 20.0471404,12.4515754 C19.8465062,14.1858062 18.8981477,18.5185677 14.4176404,19.6694138 L14.4176404,19.6694369 Z M14.4830111,14.6591831 C14.418694,14.6242677 12.885555,13.8217446 11.3140233,14.9070985 C9.74185499,15.9926369 9.83402816,17.7901215 9.83874767,17.8662985 C9.83885743,17.8682369 9.83962572,17.8700138 9.83975743,17.8719523 C9.57243548,18.2699831 9.48092084,18.5571985 9.47282084,18.5840831 C9.41838182,18.7654677 9.51375987,18.9576985 9.68590133,19.0163138 C9.71935499,19.0275754 9.75320377,19.0329985 9.78665743,19.0329985 C9.92907767,19.032647 10.0553491,18.9366478 10.1002745,18.7945677 C10.1017672,18.7896754 10.1672257,18.5950677 10.3551282,18.3086369 C10.6857648,18.434332 11.034674,18.4986282 11.3862647,18.4986523 C11.9044013,18.4986523 12.5282111,18.3587138 13.1863086,17.9041677 C14.8624379,16.7464908 14.6686745,14.9967754 14.659455,14.92286 C14.6456701,14.8097281 14.5796373,14.711049 14.4830111,14.6591831 Z M12.8248818,17.3254215 C12.0129062,17.8863523 11.2778696,17.8516215 10.8201208,17.7352908 C11.1721306,17.3739062 11.6814867,16.9756677 12.4132965,16.6347062 C12.5796428,16.5573985 12.6546721,16.3527754 12.5809379,16.1781292 C12.5071818,16.0030215 12.3121233,15.9239138 12.146633,16.0018908 C11.4891282,16.3081446 10.9892111,16.6583138 10.6078086,17.00006 C10.7423696,16.5213754 11.0355282,15.9276523 11.6754501,15.4858215 C12.6623769,14.8038754 13.6296135,15.0549292 14.0124867,15.2007292 C14.0047599,15.6138062 13.8688599,16.6044985 12.8248818,17.3254215 Z" id="path-1"></path>
    </defs>
    <g id="Symbols" stroke="none" stroke-width="1" fill="none" fill-rule="evenodd">
        <g id="product/soup">
            <mask id="mask-2" fill="white">
                <use xlink:href="#path-1"></use>
            </mask>
            <use id="soup" fill="#000000" fill-rule="nonzero" xlink:href="#path-1"></use>
            <rect id="🎨-color" fill="#EB690B" mask="url(#mask-2)" x="0" y="0" width="24" height="24"></rect>
        </g>
    </g>
</svg>