<?xml version="1.0" encoding="UTF-8"?>
<svg width="20px" height="20px" viewBox="0 0 20 20" version="1.1" xmlns="http://www.w3.org/2000/svg" xmlns:xlink="http://www.w3.org/1999/xlink">
    <!-- Generator: Sketch 48.2 (47327) - http://www.bohemiancoding.com/sketch -->
    <title>icon/today/white</title>
    <desc>Created with Sketch.</desc>
    <defs></defs>
    <g id="bottomnav/2" stroke="none" stroke-width="1" fill="none" fill-rule="evenodd" transform="translate(-150.000000, -10.000000)">
        <g id="сегодня" transform="translate(107.000000, 0.000000)" fill="#FFFFFF" fill-rule="nonzero">
            <g id="icon/today/white" transform="translate(43.000000, 10.000000)">
                <path d="M0.909111111,10.9091111 C0.406888889,10.9091111 0,10.502 0,10 C0,9.49777778 0.406888889,9.09088889 0.909111111,9.09088889 L3.03022222,9.09088889 C3.53222222,9.09088889 3.93933333,9.49777778 3.93933333,10 C3.93933333,10.502 3.53222222,10.9091111 3.03022222,10.9091111 L0.909111111,10.9091111 Z M19.0908889,9.09088889 C19.5928889,9.09088889 20,9.49777778 20,10 C20,10.502 19.5928889,10.9091111 19.0908889,10.9091111 L16.9697778,10.9091111 C16.4675556,10.9091111 16.0606667,10.502 16.0606667,10 C16.0606667,9.49777778 16.4675556,9.09088889 16.9697778,9.09088889 L19.0908889,9.09088889 Z M10,3.92733333 C9.49777778,3.92733333 9.09088889,3.52 9.09088889,3.01822222 L9.09088889,0.909111111 C9.09088889,0.406888889 9.49777778,0 10,0 C10.502,0 10.9091111,0.406888889 10.9091111,0.909111111 L10.9091111,3.01822222 C10.9091111,3.52022222 10.502,3.92733333 10,3.92733333 Z M9.09088889,16.9575556 C9.09088889,16.4553333 9.49777778,16.0484444 10,16.0484444 C10.502,16.0484444 10.9091111,16.4553333 10.9091111,16.9575556 L10.9091111,19.0908889 C10.9091111,19.5928889 10.502,20 10,20 C9.49777778,20 9.09088889,19.5928889 9.09088889,19.0908889 L9.09088889,16.9575556 Z M4.42111111,5.70666667 L2.93022222,4.20355556 C2.57666667,3.84688889 2.57911111,3.27133333 2.93555556,2.91777778 C3.292,2.56444444 3.86755556,2.56688889 4.22111111,2.92311111 L5.712,4.42622222 C6.06555556,4.78288889 6.06311111,5.35844444 5.70666667,5.712 C5.35022222,6.06533333 4.77466667,6.06288889 4.42111111,5.70666667 Z M14.2784444,14.278 C14.6333333,13.9231111 15.2088889,13.9231111 15.564,14.278 L17.0671111,15.7811111 C17.4222222,16.1362222 17.4222222,16.7117778 17.0671111,17.0668889 C16.7122222,17.4217778 16.1364444,17.4217778 15.7815556,17.0668889 L14.2784444,15.5637778 C13.9233333,15.2086667 13.9233333,14.6331111 14.2784444,14.278 Z M15.576,5.69711111 C15.2211111,6.052 14.6455556,6.052 14.2904444,5.69711111 C13.9353333,5.342 13.9353333,4.76644444 14.2904444,4.41133333 L15.7813333,2.92044444 C16.1362222,2.56555556 16.712,2.56555556 17.0668889,2.92044444 C17.422,3.27555556 17.422,3.85111111 17.0668889,4.20622222 L15.576,5.69711111 Z M4.436,14.278 C4.79088889,13.9231111 5.36666667,13.9231111 5.72155556,14.278 C6.07666667,14.6331111 6.07666667,15.2086667 5.72155556,15.5637778 L4.21844444,17.0668889 C3.86355556,17.4217778 3.28777778,17.4217778 2.93288889,17.0668889 C2.57777778,16.7117778 2.57777778,16.1362222 2.93288889,15.7811111 L4.436,14.278 Z M10.0046667,15.1393333 C7.15911111,15.1388889 4.85377778,12.8331111 4.85311111,9.98822222 C4.85377778,7.14244444 7.15933333,4.83688889 10.0046667,4.83666667 C12.85,4.83688889 15.1555556,7.14244444 15.156,9.98822222 C15.1555556,12.8331111 12.85,15.1386667 10.0046667,15.1393333 Z M10.0046667,6.65444444 C8.164,6.658 6.67466667,8.14711111 6.67133333,9.988 C6.67466667,11.8284444 8.164,13.3177778 10.0046667,13.3213333 C11.8451111,13.3177778 13.3346667,11.8284444 13.338,9.988 C13.3346667,8.14711111 11.8453333,6.658 10.0046667,6.65444444 Z"></path>
            </g>
        </g>
    </g>
</svg>