<?xml version="1.0" encoding="UTF-8"?>
<svg width="24px" height="24px" viewBox="0 0 24 24" version="1.1" xmlns="http://www.w3.org/2000/svg" xmlns:xlink="http://www.w3.org/1999/xlink">
    <!-- Generator: Sketch 48.2 (47327) - http://www.bohemiancoding.com/sketch -->
    <title>product/tomato</title>
    <desc>Created with Sketch.</desc>
    <defs>
        <path d="M17.4237736,6.445 L17.4033962,6.435 C17.4169811,6.235 17.3286792,6.04166667 17.1486792,5.92833333 C16.4660377,5.49833333 15.4064151,4.985 14.2415094,4.985 C13.7762264,4.985 13.3279245,5.06833333 12.9067925,5.23166667 L12.9067925,3.985 C12.9067925,3.47166667 12.5298113,3.055 12.0645283,3.055 L11.310566,3.055 C10.845283,3.055 10.4683019,3.47166667 10.4683019,3.985 L10.4683019,5.355 C10.2,5.30833333 9.82301887,5.26166667 9.37811321,5.26166667 C8.31509434,5.26166667 7.34377358,5.515 6.4845283,6.01833333 C6.26377358,6.14833333 6.15849057,6.39833333 6.22981132,6.645 C6.24339623,6.68833333 6.26037736,6.72833333 6.28075472,6.765 C6.25018868,6.77166667 6.21622642,6.78166667 6.18226415,6.78833333 C6.10075472,6.80833333 6.02603774,6.84833333 5.95811321,6.90166667 C4.09018868,8.42833333 3.01698113,10.6083333 3.01698113,12.875 C3.01698113,17.325 7.04490566,20.945 12,20.945 C16.9550943,20.945 20.9830189,17.325 20.9830189,12.875 C20.9796226,10.3316667 19.6856604,7.985 17.4237736,6.445 Z M9.37811321,5.925 C9.84679245,5.925 10.2271698,5.98166667 10.4649057,6.03166667 C10.8079245,6.09833333 11.1441509,5.83166667 11.1441509,5.485 L11.1441509,3.985 C11.1475472,3.835 11.2358491,3.72166667 11.310566,3.72166667 L12.0645283,3.72166667 C12.1392453,3.72166667 12.2275472,3.835 12.2275472,3.985 L12.2275472,5.40166667 C12.2275472,5.555 12.2886792,5.695 12.4007547,5.80166667 C12.5671698,5.95833333 12.8184906,6.00166667 13.0324528,5.90833333 C13.4060377,5.74166667 13.8135849,5.655 14.2415094,5.655 C15.0633962,5.655 15.8411321,5.96166667 16.4286792,6.28166667 L16.3335849,6.28166667 C16.2928302,6.28166667 16.2554717,6.285 16.2181132,6.285 C15.5184906,6.28833333 14.9445283,6.345 14.4996226,6.45166667 C14.2754717,6.505 14.1090566,6.685 14.0750943,6.90833333 C14.0411321,7.135 14.1498113,7.35833333 14.3535849,7.47833333 C15.2026415,7.96833333 15.5592453,8.56166667 15.6984906,9.05166667 C14.7067925,8.255 13.5520755,8.12833333 13.0596226,8.115 C12.9067925,8.115 12.7641509,8.175 12.6554717,8.28166667 C12.5467925,8.38833333 12.4890566,8.53166667 12.4924528,8.685 C12.5196226,10.3983333 11.9150943,11.545 11.565283,12.065 C11.2290566,11.3683333 11.1271698,9.87166667 11.1475472,8.64166667 C11.1509434,8.35833333 10.9369811,8.115 10.6449057,8.07833333 C10.5566038,8.06833333 10.4683019,8.06166667 10.38,8.06166667 C10.3630189,8.06166667 10.3460377,8.065 10.3290566,8.065 C10.2849057,8.065 10.2407547,8.07166667 10.1932075,8.075 C10.1184906,8.08166667 10.0471698,8.08833333 9.97245283,8.10166667 C9.93169811,8.10833333 9.8909434,8.11833333 9.85018868,8.125 C9.76867925,8.14166667 9.69056604,8.16166667 9.6090566,8.185 C9.57509434,8.195 9.53773585,8.205 9.50377358,8.21833333 C9.41886792,8.245 9.33396226,8.275 9.2490566,8.30833333 C9.21849057,8.32166667 9.18792453,8.33166667 9.15396226,8.345 C9.06566038,8.38166667 8.98075472,8.42166667 8.89584906,8.465 C8.86867925,8.47833333 8.83811321,8.49166667 8.8109434,8.50833333 C8.72603774,8.55166667 8.64113208,8.59833333 8.55962264,8.645 C8.53245283,8.66166667 8.50528302,8.675 8.47471698,8.69166667 C8.39320755,8.73833333 8.31509434,8.78833333 8.23698113,8.83833333 C8.20981132,8.855 8.17924528,8.875 8.15207547,8.89166667 C8.07056604,8.945 7.99245283,9.00166667 7.91433962,9.055 C7.89735849,9.06833333 7.87698113,9.08166667 7.85660377,9.095 C8.05018868,8.75166667 8.26075472,8.465 8.47132075,8.22833333 C8.73622642,7.93166667 8.99433962,7.71166667 9.20830189,7.55833333 C9.22188679,7.54833333 9.23886792,7.535 9.2490566,7.52833333 C9.26603774,7.515 9.27962264,7.50833333 9.29660377,7.49833333 C9.33396226,7.47166667 9.37132075,7.445 9.40528302,7.425 C9.58188679,7.31166667 9.68037736,7.11166667 9.66,6.90166667 C9.63962264,6.69166667 9.50037736,6.515 9.30339623,6.43833333 C9.28641509,6.43166667 9.26603774,6.42833333 9.2490566,6.42166667 C9.1709434,6.395 9.08943396,6.37166667 9.00113208,6.34833333 C8.95358491,6.33833333 8.90603774,6.325 8.85849057,6.31833333 C8.84830189,6.315 8.83811321,6.315 8.82792453,6.31166667 L8.80754717,6.31166667 C8.41698113,6.245 7.95849057,6.23833333 7.43207547,6.29166667 C8.02981132,6.04833333 8.68188679,5.925 9.37811321,5.925 Z M12,20.2816667 C7.42188679,20.2816667 3.69622642,16.9583333 3.69622642,12.875 C3.69622642,10.8083333 4.67433962,8.825 6.37924528,7.425 C7.11622642,7.23166667 7.90754717,7.07833333 8.7090566,6.96833333 C8.75660377,6.975 8.80075472,6.985 8.84490566,6.995 C8.65132075,7.13166667 8.42037736,7.31833333 8.18264151,7.56166667 C8.17584906,7.56833333 8.17245283,7.575 8.16566038,7.57833333 C8.0909434,7.655 8.01622642,7.73166667 7.94150943,7.81833333 C7.91433962,7.84833333 7.88716981,7.885 7.86,7.91833333 C7.80566038,7.98166667 7.75132075,8.045 7.70037736,8.115 C7.64943396,8.18166667 7.60188679,8.255 7.5509434,8.32833333 C7.52037736,8.37166667 7.49320755,8.40833333 7.46264151,8.45166667 C7.38792453,8.56833333 7.31320755,8.68833333 7.24528302,8.81833333 C7.24188679,8.82166667 7.24188679,8.825 7.23849057,8.83166667 C7.16716981,8.965 7.09584906,9.105 7.02792453,9.255 C6.94981132,9.42833333 6.96679245,9.61833333 7.06867925,9.775 C7.24528302,10.0416667 7.65622642,10.1083333 7.9109434,9.90166667 C8.89245283,9.10833333 9.79245283,8.67833333 10.4649057,8.725 C10.454717,9.66166667 10.5056604,11.6983333 11.0728302,12.565 C11.1781132,12.725 11.3581132,12.8216667 11.5516981,12.8216667 C11.7316981,12.8216667 11.9049057,12.735 12.0101887,12.5916667 C12.3192453,12.175 12.974717,11.1216667 13.1309434,9.505 C13.154717,9.275 13.1649057,9.03166667 13.1649057,8.77833333 C13.6607547,8.81166667 14.669434,8.975 15.4709434,9.74166667 C15.6984906,9.95833333 16.0856604,9.93833333 16.2928302,9.71166667 C16.4015094,9.59166667 16.4490566,9.43166667 16.4286792,9.27166667 C16.3675472,8.80833333 16.1739623,8.215 15.6509434,7.64833333 L15.6101887,7.59833333 C15.5898113,7.575 15.5592453,7.555 15.5354717,7.53166667 C15.3622642,7.36166667 15.165283,7.195 14.9241509,7.03833333 C15.2332075,6.985 15.6883019,6.94166667 16.3267925,6.94166667 L16.5407547,6.94166667 L16.6630189,6.95166667 C16.7649057,6.965 16.8633962,6.97833333 16.965283,6.98833333 L17.0501887,6.99833333 C19.1116981,8.415 20.2935849,10.5516667 20.2935849,12.8683333 C20.3003774,16.9583333 16.5781132,20.2816667 12,20.2816667 Z M5.07509434,13.2916667 C5.04792453,13.1083333 4.87811321,12.9816667 4.69132075,13.0116667 C4.5045283,13.0383333 4.3754717,13.205 4.40264151,13.3883333 C4.47735849,13.885 4.64377358,14.3483333 4.89849057,14.7716667 C4.96301887,14.8783333 5.07509434,14.935 5.19056604,14.935 C5.24830189,14.935 5.30943396,14.9216667 5.36377358,14.8883333 C5.52679245,14.795 5.57773585,14.5883333 5.48264151,14.4316667 C5.2754717,14.0883333 5.13622642,13.695 5.07509434,13.2916667 Z M4.75584906,12.2816667 L4.77962264,12.2816667 C4.95622642,12.2816667 5.10566038,12.1483333 5.11924528,11.9716667 C5.14641509,11.5916667 5.2245283,11.225 5.35358491,10.875 C5.41811321,10.7016667 5.32641509,10.5116667 5.14981132,10.4483333 C4.97320755,10.385 4.77962264,10.475 4.71509434,10.6483333 C4.56566038,11.055 4.47056604,11.485 4.44,11.925 C4.42981132,12.1083333 4.5690566,12.2683333 4.75584906,12.2816667 Z" id="path-1"></path>
    </defs>
    <g id="Symbols" stroke="none" stroke-width="1" fill="none" fill-rule="evenodd">
        <g id="product/tomato">
            <mask id="mask-2" fill="white">
                <use xlink:href="#path-1"></use>
            </mask>
            <use id="tomato" fill="#000000" fill-rule="nonzero" xlink:href="#path-1"></use>
            <rect id="🎨-color" fill="#EB690B" mask="url(#mask-2)" x="0" y="0" width="24" height="24"></rect>
        </g>
    </g>
</svg>