<?xml version="1.0" encoding="UTF-8"?>
<svg width="24px" height="24px" viewBox="0 0 24 24" version="1.1" xmlns="http://www.w3.org/2000/svg" xmlns:xlink="http://www.w3.org/1999/xlink">
    <!-- Generator: Sketch 48.2 (47327) - http://www.bohemiancoding.com/sketch -->
    <title>product/yolk</title>
    <desc>Created with Sketch.</desc>
    <defs>
        <path d="M12.6324324,13.7843137 C12.6324324,15.5431373 13.9945946,16.9705882 15.672973,16.9705882 C17.3513514,16.9705882 18.7135135,15.5431373 18.7135135,13.7843137 C18.7135135,12.0254902 17.3513514,10.5980392 15.672973,10.5980392 C13.9945946,10.5980392 12.6324324,12.0254902 12.6324324,13.7843137 Z M15.672973,5.55098039 C14.3351351,5.55098039 13.0216216,6.51960784 11.9756757,8.25294118 C11.8297297,8.48235294 11.7081081,8.71176471 11.6108108,8.94117647 C11.0027027,8.66078431 10.3459459,8.50784314 9.68918919,8.50784314 C8.4,8.50784314 6.79459459,9.04313725 5.50540541,9.90980392 C3.97297297,10.9294118 3.14594595,12.1784314 3.14594595,13.4784314 C3.14594595,14.7784314 3.9972973,16.027451 5.50540541,17.0470588 C6.79459459,17.9137255 8.4,18.4490196 9.68918919,18.4490196 C10.7594595,18.4490196 11.7810811,18.0666667 12.6324324,17.3784314 C13.4837838,18.0411765 14.5540541,18.4490196 15.6972973,18.4490196 C18.5432432,18.4490196 20.8540541,16.027451 20.8540541,13.045098 C20.8540541,11.5666667 20.2945946,9.73137255 19.3945946,8.25294118 C18.3243243,6.49411765 16.9864865,5.55098039 15.672973,5.55098039 Z M15.672973,17.5823529 C13.2891892,17.5823529 11.3432432,15.5431373 11.3432432,13.045098 C11.3432432,10.4960784 13.3378378,6.41764706 15.672973,6.41764706 C18.0081081,6.41764706 20.0027027,10.4960784 20.0027027,13.045098 C20.0027027,15.5431373 18.0567568,17.5823529 15.672973,17.5823529 Z" id="path-1"></path>
    </defs>
    <g id="Symbols" stroke="none" stroke-width="1" fill="none" fill-rule="evenodd">
        <g id="product/yolk">
            <mask id="mask-2" fill="white">
                <use xlink:href="#path-1"></use>
            </mask>
            <use id="yolk" fill="#000000" fill-rule="nonzero" xlink:href="#path-1"></use>
            <rect id="🎨-color" fill="#EB690B" mask="url(#mask-2)" x="0" y="0" width="24" height="24"></rect>
        </g>
    </g>
</svg>